<?xml version="1.0" encoding="utf-8"?>
<!-- Generator: Adobe Illustrator 25.0.0, SVG Export Plug-In . SVG Version: 6.00 Build 0)  -->
<svg version="1.1" id="Layer_1" xmlns="http://www.w3.org/2000/svg" xmlns:xlink="http://www.w3.org/1999/xlink" x="0px" y="0px"
	 width="900px" height="600px" viewBox="0 0 900 600" style="enable-background:new 0 0 900 600;" xml:space="preserve">
<linearGradient id="SVGID_1_" gradientUnits="userSpaceOnUse" x1="-808.2923" y1="658.2923" x2="-198.6956" y2="48.6956">
	<stop  offset="0" style="stop-color:#3397A9"/>
	<stop  offset="0.3563" style="stop-color:#33AABF"/>
	<stop  offset="1" style="stop-color:#33D3F1"/>
</linearGradient>
<rect x="-900.2" style="fill:url(#SVGID_1_);" width="900.5" height="600"/>
<linearGradient id="SVGID_2_" gradientUnits="userSpaceOnUse" x1="97.4934" y1="652.5066" x2="896.8461" y2="-146.8461">
	<stop  offset="5.103600e-04" style="stop-color:#011994"/>
	<stop  offset="9.353911e-02" style="stop-color:#032197"/>
	<stop  offset="0.2398" style="stop-color:#08389F"/>
	<stop  offset="0.421" style="stop-color:#115CAC"/>
	<stop  offset="0.6301" style="stop-color:#1D90BF"/>
	<stop  offset="0.8597" style="stop-color:#2CD0D6"/>
	<stop  offset="1" style="stop-color:#36FBE6"/>
</linearGradient>
<rect x="-0.2" style="fill:url(#SVGID_2_);" width="900.5" height="600"/>
<linearGradient id="SVGID_3_" gradientUnits="userSpaceOnUse" x1="989.1362" y1="660.8638" x2="1594.6248" y2="55.3752" gradientTransform="matrix(-1 0 0 -1 2700 600)">
	<stop  offset="0" style="stop-color:#BA0ADB"/>
	<stop  offset="1" style="stop-color:#580068"/>
</linearGradient>
<polygon style="fill:url(#SVGID_3_);" points="899.8,0 1800.2,0 1800.2,600 899.8,600 "/>
<g>
	
		<linearGradient id="SVGID_4_" gradientUnits="userSpaceOnUse" x1="-5050.4409" y1="-1352.2523" x2="-5050.4409" y2="-1779.0005" gradientTransform="matrix(-0.2633 0.321 -3.9028 -3.2011 -6681.5073 -2649.9487)">
		<stop  offset="0" style="stop-color:#FFFFFF;stop-opacity:0"/>
		<stop  offset="0.9029" style="stop-color:#FFFFFF;stop-opacity:0.9029"/>
		<stop  offset="1" style="stop-color:#FFFFFF"/>
	</linearGradient>
	<polygon style="opacity:0.53;fill:url(#SVGID_4_);" points="-82,71.7 -50.8,29 1599.3,1409.3 1568.1,1452 	"/>
	
		<linearGradient id="SVGID_5_" gradientUnits="userSpaceOnUse" x1="-5148.2344" y1="-1352.0333" x2="-5148.2344" y2="-1778.3253" gradientTransform="matrix(-0.2633 0.321 -3.9028 -3.2011 -6681.5073 -2649.9487)">
		<stop  offset="0" style="stop-color:#FFFFFF;stop-opacity:0"/>
		<stop  offset="0.9029" style="stop-color:#FFFFFF;stop-opacity:0.9029"/>
		<stop  offset="1" style="stop-color:#FFFFFF"/>
	</linearGradient>
	<polygon style="opacity:0.53;fill:url(#SVGID_5_);" points="-45.7,22.1 -39,12.9 1611.1,1393.2 1604.3,1402.4 	"/>
</g>
<g>
	
		<linearGradient id="SVGID_6_" gradientUnits="userSpaceOnUse" x1="-3882.312" y1="-1235.1064" x2="-3882.312" y2="-1661.8547" gradientTransform="matrix(-0.2633 0.321 -3.9028 -3.2011 -6681.5073 -2649.9487)">
		<stop  offset="0" style="stop-color:#FFFFFF;stop-opacity:0"/>
		<stop  offset="0.9029" style="stop-color:#FFFFFF;stop-opacity:0.9029"/>
		<stop  offset="1" style="stop-color:#FFFFFF"/>
	</linearGradient>
	<polygon style="opacity:0.53;fill:url(#SVGID_6_);" points="-846.8,71.7 -815.5,29 834.5,1409.3 803.3,1452 	"/>
	
		<linearGradient id="SVGID_7_" gradientUnits="userSpaceOnUse" x1="-3980.105" y1="-1234.8876" x2="-3980.105" y2="-1661.1796" gradientTransform="matrix(-0.2633 0.321 -3.9028 -3.2011 -6681.5073 -2649.9487)">
		<stop  offset="0" style="stop-color:#FFFFFF;stop-opacity:0"/>
		<stop  offset="0.9029" style="stop-color:#FFFFFF;stop-opacity:0.9029"/>
		<stop  offset="1" style="stop-color:#FFFFFF"/>
	</linearGradient>
	<polygon style="opacity:0.53;fill:url(#SVGID_7_);" points="-810.5,22.1 -803.8,12.9 846.3,1393.2 839.5,1402.4 	"/>
</g>
<g>
	<path style="fill:#FFFFFF;" d="M161.8,396.6c-0.4,5-2.2,9-5.6,11.9s-7.8,4.4-13.3,4.4c-6,0-10.7-2-14.2-6.1
		c-3.4-4-5.2-9.6-5.2-16.7v-2.9c0-4.5,0.8-8.5,2.4-11.9c1.6-3.4,3.9-6.1,6.8-7.9s6.4-2.8,10.3-2.8c5.4,0,9.8,1.5,13.1,4.4
		c3.3,2.9,5.2,7,5.7,12.2h-9.7c-0.2-3-1.1-5.2-2.5-6.6c-1.5-1.4-3.7-2-6.6-2c-3.2,0-5.6,1.2-7.2,3.5c-1.6,2.3-2.4,5.9-2.5,10.7v3.5
		c0,5.1,0.8,8.8,2.3,11.1s4,3.5,7.3,3.5c3,0,5.2-0.7,6.7-2c1.5-1.4,2.3-3.5,2.5-6.3H161.8z"/>
	<path style="fill:#FFFFFF;" d="M166.1,394.5c0-3.5,0.7-6.5,2-9.2c1.3-2.7,3.2-4.8,5.8-6.3s5.4-2.2,8.7-2.2c4.7,0,8.5,1.4,11.5,4.3
		s4.6,6.8,5,11.7l0.1,2.4c0,5.3-1.5,9.6-4.5,12.9c-3,3.2-7,4.9-12,4.9s-9-1.6-12-4.8s-4.5-7.6-4.5-13.1V394.5z M175.4,395.1
		c0,3.3,0.6,5.8,1.9,7.6c1.2,1.8,3,2.6,5.3,2.6c2.3,0,4-0.9,5.3-2.6c1.3-1.7,1.9-4.5,1.9-8.3c0-3.2-0.6-5.8-1.9-7.6
		c-1.3-1.8-3.1-2.7-5.3-2.7c-2.3,0-4,0.9-5.3,2.7C176,388.6,175.4,391.4,175.4,395.1z"/>
	<path style="fill:#FFFFFF;" d="M213.6,377.3l0.3,3.9c2.5-3,5.8-4.5,10-4.5c4.5,0,7.6,1.8,9.2,5.3c2.4-3.5,5.9-5.3,10.5-5.3
		c3.8,0,6.6,1.1,8.4,3.3c1.8,2.2,2.8,5.5,2.8,9.9v22.3h-9.3V390c0-2-0.4-3.4-1.2-4.3c-0.8-0.9-2.1-1.4-4.1-1.4c-2.8,0-4.7,1.3-5.8,4
		l0,23.9h-9.3V390c0-2-0.4-3.5-1.2-4.4c-0.8-0.9-2.1-1.4-4.1-1.4c-2.6,0-4.6,1.1-5.7,3.3v24.7h-9.3v-34.9H213.6z"/>
	<path style="fill:#FFFFFF;" d="M293.4,395.1c0,5.4-1.2,9.7-3.7,12.9c-2.4,3.2-5.7,4.9-9.9,4.9c-3.5,0-6.4-1.2-8.5-3.7v16.4H262
		v-48.3h8.6l0.3,3.4c2.3-2.7,5.2-4.1,8.8-4.1c4.3,0,7.6,1.6,10,4.8s3.6,7.6,3.6,13.1V395.1z M284,394.4c0-3.2-0.6-5.7-1.7-7.5
		s-2.8-2.6-5-2.6c-2.9,0-4.9,1.1-6,3.4v14.3c1.1,2.3,3.2,3.4,6.1,3.4C281.8,405.3,284,401.7,284,394.4z"/>
	<path style="fill:#FFFFFF;" d="M319.3,412.2c-0.4-0.8-0.7-1.9-0.9-3.1c-2.3,2.5-5.2,3.8-8.8,3.8c-3.4,0-6.2-1-8.5-3
		s-3.4-4.5-3.4-7.5c0-3.7,1.4-6.5,4.1-8.5s6.7-3,11.9-3h4.3v-2c0-1.6-0.4-2.9-1.2-3.9s-2.1-1.5-3.9-1.5c-1.6,0-2.8,0.4-3.7,1.1
		s-1.3,1.8-1.3,3.1h-9.3c0-2,0.6-3.9,1.9-5.6c1.2-1.7,3-3.1,5.3-4c2.3-1,4.8-1.5,7.7-1.5c4.3,0,7.7,1.1,10.2,3.2s3.8,5.2,3.8,9.1
		v15.1c0,3.3,0.5,5.8,1.4,7.5v0.5H319.3z M311.6,405.7c1.4,0,2.6-0.3,3.8-0.9s2-1.4,2.6-2.5v-6h-3.5c-4.7,0-7.1,1.6-7.4,4.8l0,0.5
		c0,1.2,0.4,2.1,1.2,2.9C309.1,405.4,310.2,405.7,311.6,405.7z"/>
	<path style="fill:#FFFFFF;" d="M343.1,377.3l0.3,4c2.5-3.1,5.8-4.7,10-4.7c3.7,0,6.4,1.1,8.2,3.3s2.7,5.4,2.8,9.7v22.5h-9.3v-22.3
		c0-2-0.4-3.4-1.3-4.3c-0.9-0.9-2.3-1.3-4.3-1.3c-2.6,0-4.6,1.1-5.9,3.4v24.6h-9.3v-34.9H343.1z"/>
	<path style="fill:#FFFFFF;" d="M384.5,399l6.4-21.7h10l-14,40.3l-0.8,1.8c-2.1,4.6-5.5,6.8-10.3,6.8c-1.4,0-2.7-0.2-4.1-0.6v-7.1
		l1.4,0c1.8,0,3.1-0.3,3.9-0.8c0.9-0.5,1.6-1.4,2-2.7l1.1-2.9l-12.2-35h10L384.5,399z"/>
	<path style="fill:#FFFFFF;" d="M439,395h-7.7v17.2h-9.7v-46.9h17.4c5.5,0,9.8,1.2,12.8,3.7s4.5,6,4.5,10.5c0,3.2-0.7,5.9-2.1,8
		c-1.4,2.1-3.5,3.8-6.3,5.1l10.2,19.2v0.5h-10.4L439,395z M431.3,387.2h7.8c2.4,0,4.3-0.6,5.6-1.9c1.3-1.2,2-2.9,2-5.1
		c0-2.2-0.6-4-1.9-5.2c-1.3-1.3-3.2-1.9-5.8-1.9h-7.8V387.2z"/>
	<path style="fill:#FFFFFF;" d="M479.2,412.9c-5.1,0-9.3-1.6-12.5-4.7c-3.2-3.1-4.8-7.3-4.8-12.5v-0.9c0-3.5,0.7-6.6,2-9.4
		c1.4-2.8,3.3-4.9,5.8-6.4c2.5-1.5,5.3-2.2,8.5-2.2c4.8,0,8.5,1.5,11.3,4.5c2.7,3,4.1,7.3,4.1,12.8v3.8h-22.2
		c0.3,2.3,1.2,4.1,2.7,5.5c1.5,1.4,3.4,2.1,5.8,2.1c3.6,0,6.4-1.3,8.4-3.9l4.6,5.1c-1.4,2-3.3,3.5-5.7,4.6S482.1,412.9,479.2,412.9z
		 M478.2,384.2c-1.8,0-3.3,0.6-4.5,1.9c-1.1,1.3-1.9,3-2.2,5.4h13v-0.7c0-2.1-0.6-3.7-1.7-4.8S480.1,384.2,478.2,384.2z"/>
	<path style="fill:#FFFFFF;" d="M497.5,394.5c0-5.3,1.3-9.7,3.8-12.9c2.5-3.3,6-4.9,10.3-4.9c3.8,0,6.8,1.3,8.9,3.9l0.4-3.3h8.4
		v33.7c0,3-0.7,5.7-2.1,8c-1.4,2.3-3.3,4-5.8,5.2c-2.5,1.2-5.5,1.8-8.8,1.8c-2.6,0-5-0.5-7.5-1.5s-4.3-2.3-5.5-3.9l4.1-5.7
		c2.3,2.6,5.1,3.9,8.4,3.9c2.5,0,4.4-0.7,5.8-2s2.1-3.2,2.1-5.6v-1.9c-2.1,2.4-5,3.6-8.5,3.6c-4.2,0-7.6-1.6-10.2-4.9
		c-2.6-3.3-3.9-7.6-3.9-13V394.5z M506.8,395.2c0,3.2,0.6,5.6,1.9,7.4s3,2.7,5.2,2.7c2.8,0,4.9-1.1,6.1-3.2v-14.7
		c-1.2-2.1-3.3-3.2-6-3.2c-2.2,0-4,0.9-5.3,2.7C507.4,388.8,506.8,391.6,506.8,395.2z"/>
	<path style="fill:#FFFFFF;" d="M536.4,368.3c0-1.4,0.5-2.5,1.4-3.4c0.9-0.9,2.2-1.4,3.8-1.4c1.6,0,2.9,0.5,3.8,1.4s1.4,2.1,1.4,3.4
		c0,1.4-0.5,2.6-1.4,3.5s-2.2,1.4-3.8,1.4s-2.8-0.5-3.8-1.4C536.9,370.9,536.4,369.7,536.4,368.3z M546.3,412.2H537v-34.9h9.3V412.2
		z"/>
	<path style="fill:#FFFFFF;" d="M572.9,402.6c0-1.1-0.6-2-1.7-2.7c-1.1-0.7-2.9-1.2-5.4-1.8c-8.3-1.7-12.4-5.3-12.4-10.6
		c0-3.1,1.3-5.7,3.9-7.8c2.6-2.1,5.9-3.1,10.1-3.1c4.4,0,8,1,10.6,3.1c2.7,2.1,4,4.8,4,8.1h-9.3c0-1.3-0.4-2.4-1.3-3.3
		s-2.2-1.3-4-1.3c-1.6,0-2.8,0.4-3.6,1.1s-1.3,1.6-1.3,2.7c0,1,0.5,1.9,1.5,2.5c1,0.6,2.6,1.2,4.9,1.6c2.3,0.5,4.3,1,5.9,1.6
		c4.9,1.8,7.4,4.9,7.4,9.4c0,3.2-1.4,5.8-4.1,7.7s-6.3,2.9-10.6,2.9c-2.9,0-5.5-0.5-7.8-1.6c-2.3-1-4-2.5-5.3-4.3
		c-1.3-1.8-1.9-3.8-1.9-5.9h8.8c0.1,1.7,0.7,2.9,1.8,3.8s2.7,1.3,4.6,1.3c1.8,0,3.1-0.3,4-1S572.9,403.7,572.9,402.6z"/>
	<path style="fill:#FFFFFF;" d="M599.1,368.8v8.6h6v6.8h-6v17.4c0,1.3,0.2,2.2,0.7,2.8s1.4,0.8,2.8,0.8c1,0,1.9-0.1,2.7-0.2v7.1
		c-1.8,0.6-3.7,0.8-5.6,0.8c-6.5,0-9.9-3.3-10-9.9v-18.8h-5.1v-6.8h5.1v-8.6H599.1z"/>
	<path style="fill:#FFFFFF;" d="M629.8,386.1c-1.3-0.2-2.4-0.3-3.4-0.3c-3.5,0-5.8,1.2-6.9,3.6v22.8h-9.3v-34.9h8.8l0.3,4.2
		c1.9-3.2,4.5-4.8,7.8-4.8c1,0,2,0.1,2.9,0.4L629.8,386.1z"/>
	<path style="fill:#FFFFFF;" d="M653.6,412.2c-0.4-0.8-0.7-1.9-0.9-3.1c-2.3,2.5-5.2,3.8-8.8,3.8c-3.4,0-6.2-1-8.5-3
		s-3.4-4.5-3.4-7.5c0-3.7,1.4-6.5,4.1-8.5c2.7-2,6.7-3,11.9-3h4.3v-2c0-1.6-0.4-2.9-1.2-3.9s-2.1-1.5-3.9-1.5
		c-1.6,0-2.8,0.4-3.7,1.1s-1.3,1.8-1.3,3.1h-9.3c0-2,0.6-3.9,1.9-5.6s3-3.1,5.3-4c2.3-1,4.8-1.5,7.7-1.5c4.3,0,7.7,1.1,10.2,3.2
		c2.5,2.2,3.8,5.2,3.8,9.1v15.1c0,3.3,0.5,5.8,1.4,7.5v0.5H653.6z M645.9,405.7c1.4,0,2.6-0.3,3.8-0.9s2-1.4,2.6-2.5v-6h-3.5
		c-4.7,0-7.1,1.6-7.4,4.8l0,0.5c0,1.2,0.4,2.1,1.2,2.9S644.4,405.7,645.9,405.7z"/>
	<path style="fill:#FFFFFF;" d="M679.9,368.8v8.6h6v6.8h-6v17.4c0,1.3,0.2,2.2,0.7,2.8s1.4,0.8,2.8,0.8c1,0,1.9-0.1,2.7-0.2v7.1
		c-1.8,0.6-3.7,0.8-5.6,0.8c-6.5,0-9.9-3.3-10-9.9v-18.8h-5.1v-6.8h5.1v-8.6H679.9z"/>
	<path style="fill:#FFFFFF;" d="M691,368.3c0-1.4,0.5-2.5,1.4-3.4c0.9-0.9,2.2-1.4,3.8-1.4c1.6,0,2.9,0.5,3.8,1.4s1.4,2.1,1.4,3.4
		c0,1.4-0.5,2.6-1.4,3.5s-2.2,1.4-3.8,1.4s-2.8-0.5-3.8-1.4C691.5,370.9,691,369.7,691,368.3z M700.9,412.2h-9.3v-34.9h9.3V412.2z"
		/>
	<path style="fill:#FFFFFF;" d="M707.1,394.5c0-3.5,0.7-6.5,2-9.2s3.2-4.8,5.8-6.3s5.4-2.2,8.7-2.2c4.7,0,8.5,1.4,11.5,4.3
		s4.6,6.8,5,11.7l0.1,2.4c0,5.3-1.5,9.6-4.5,12.9c-3,3.2-7,4.9-12,4.9s-9-1.6-12-4.8c-3-3.2-4.5-7.6-4.5-13.1V394.5z M716.4,395.1
		c0,3.3,0.6,5.8,1.9,7.6c1.2,1.8,3,2.6,5.3,2.6c2.3,0,4-0.9,5.3-2.6s1.9-4.5,1.9-8.3c0-3.2-0.6-5.8-1.9-7.6s-3.1-2.7-5.3-2.7
		c-2.3,0-4,0.9-5.3,2.7C717,388.6,716.4,391.4,716.4,395.1z"/>
	<path style="fill:#FFFFFF;" d="M754.4,377.3l0.3,4c2.5-3.1,5.8-4.7,10-4.7c3.7,0,6.4,1.1,8.2,3.3s2.7,5.4,2.8,9.7v22.5h-9.3v-22.3
		c0-2-0.4-3.4-1.3-4.3c-0.9-0.9-2.3-1.3-4.3-1.3c-2.6,0-4.6,1.1-5.9,3.4v24.6h-9.3v-34.9H754.4z"/>
	<path style="fill:#FFFFFF;" d="M360,479.1c0-1.8-0.6-3.2-1.9-4.2c-1.3-1-3.6-2-7-3.1c-3.4-1.1-6-2.2-8-3.2c-5.3-2.9-8-6.8-8-11.6
		c0-2.5,0.7-4.8,2.1-6.8c1.4-2,3.5-3.5,6.2-4.7s5.7-1.7,9-1.7c3.4,0,6.3,0.6,9,1.8c2.6,1.2,4.7,2.9,6.1,5.1c1.5,2.2,2.2,4.7,2.2,7.5
		H360c0-2.1-0.7-3.8-2-5s-3.3-1.8-5.7-1.8c-2.4,0-4.2,0.5-5.5,1.5s-2,2.3-2,3.9c0,1.5,0.8,2.8,2.3,3.8c1.5,1,3.8,2,6.8,2.9
		c5.5,1.7,9.5,3.7,12,6.2s3.8,5.5,3.8,9.2c0,4.1-1.5,7.2-4.6,9.6c-3.1,2.3-7.2,3.5-12.4,3.5c-3.6,0-6.9-0.7-9.9-2s-5.2-3.1-6.8-5.4
		c-1.6-2.3-2.3-5-2.3-8h9.7c0,5.2,3.1,7.8,9.3,7.8c2.3,0,4.1-0.5,5.4-1.4S360,480.8,360,479.1z"/>
	<path style="fill:#FFFFFF;" d="M396.5,487.9c-2.3,2.8-5.5,4.2-9.5,4.2c-3.7,0-6.6-1.1-8.6-3.2c-2-2.1-3-5.3-3-9.4v-22.8h9.3v22.6
		c0,3.6,1.7,5.5,5,5.5c3.2,0,5.3-1.1,6.5-3.3v-24.7h9.3v34.9h-8.8L396.5,487.9z"/>
	<path style="fill:#FFFFFF;" d="M443.9,474.3c0,5.4-1.2,9.7-3.7,12.9c-2.4,3.2-5.7,4.9-9.9,4.9c-3.5,0-6.4-1.2-8.5-3.7v16.4h-9.3
		v-48.3h8.6l0.3,3.4c2.3-2.7,5.2-4.1,8.8-4.1c4.3,0,7.6,1.6,10,4.8s3.6,7.6,3.6,13.1V474.3z M434.6,473.6c0-3.2-0.6-5.7-1.7-7.5
		s-2.8-2.6-5-2.6c-2.9,0-4.9,1.1-6,3.4v14.3c1.1,2.3,3.2,3.4,6.1,3.4C432.4,484.5,434.6,480.9,434.6,473.6z"/>
	<path style="fill:#FFFFFF;" d="M481.1,474.3c0,5.4-1.2,9.7-3.7,12.9c-2.4,3.2-5.7,4.9-9.9,4.9c-3.5,0-6.4-1.2-8.5-3.7v16.4h-9.3
		v-48.3h8.6l0.3,3.4c2.3-2.7,5.2-4.1,8.8-4.1c4.3,0,7.6,1.6,10,4.8s3.6,7.6,3.6,13.1V474.3z M471.8,473.6c0-3.2-0.6-5.7-1.7-7.5
		s-2.8-2.6-5-2.6c-2.9,0-4.9,1.1-6,3.4v14.3c1.1,2.3,3.2,3.4,6.1,3.4C469.5,484.5,471.8,480.9,471.8,473.6z"/>
	<path style="fill:#FFFFFF;" d="M485.4,473.7c0-3.5,0.7-6.5,2-9.2s3.2-4.8,5.8-6.3s5.4-2.2,8.7-2.2c4.7,0,8.5,1.4,11.5,4.3
		s4.6,6.8,5,11.7l0.1,2.4c0,5.3-1.5,9.6-4.5,12.9c-3,3.2-7,4.9-12,4.9s-9-1.6-12-4.8c-3-3.2-4.5-7.6-4.5-13.1V473.7z M494.7,474.3
		c0,3.3,0.6,5.8,1.9,7.6c1.2,1.8,3,2.6,5.3,2.6c2.3,0,4-0.9,5.3-2.6s1.9-4.5,1.9-8.3c0-3.2-0.6-5.8-1.9-7.6s-3.1-2.7-5.3-2.7
		c-2.3,0-4,0.9-5.3,2.7C495.3,467.8,494.7,470.6,494.7,474.3z"/>
	<path style="fill:#FFFFFF;" d="M543.7,465.3c-1.3-0.2-2.4-0.3-3.4-0.3c-3.5,0-5.8,1.2-6.9,3.6v22.8h-9.3v-34.9h8.8l0.3,4.2
		c1.9-3.2,4.5-4.8,7.8-4.8c1,0,2,0.1,2.9,0.4L543.7,465.3z"/>
	<path style="fill:#FFFFFF;" d="M561,448v8.6h6v6.8h-6v17.4c0,1.3,0.2,2.2,0.7,2.8s1.4,0.8,2.8,0.8c1,0,1.9-0.1,2.7-0.2v7.1
		c-1.8,0.6-3.7,0.8-5.6,0.8c-6.5,0-9.9-3.3-10-9.9v-18.8h-5.1v-6.8h5.1V448H561z"/>
</g>
<g id="SvgjsG1077">
	<path style="fill:#FFFFFF;" d="M531.1,188c0-1.8-1.5-3.2-3.2-3.2h-14.6v6.5h14.6C529.7,191.3,531.1,189.8,531.1,188z M443.5,158.8
		h-87.6c-5.4,0-9.7,4.4-9.7,9.7v126.5c0,1.8,1.5,3.2,3.2,3.2s3.2-1.5,3.2-3.2V168.6c0-1.8,1.5-3.2,3.2-3.2h87.6
		c1.8,0,3.2,1.5,3.2,3.2v126.5c0,1.8,1.5,3.2,3.2,3.2s3.2-1.5,3.2-3.2V168.6C453.2,163.2,448.9,158.8,443.5,158.8z"/>
	<path style="fill:#FFFFFF;" d="M427.3,184.8h-55.2c-1.8,0-3.2,1.5-3.2,3.2c0,1.8,1.5,3.2,3.2,3.2h55.2c1.8,0,3.2-1.5,3.2-3.2
		C430.5,186.2,429.1,184.8,427.3,184.8z M427.3,201h-55.2c-1.8,0-3.2,1.5-3.2,3.2c0,1.8,1.5,3.2,3.2,3.2h55.2c1.8,0,3.2-1.5,3.2-3.2
		C430.5,202.5,429.1,201,427.3,201z M427.3,217.2h-55.2c-1.8,0-3.2,1.5-3.2,3.2c0,1.8,1.5,3.2,3.2,3.2h55.2c1.8,0,3.2-1.5,3.2-3.2
		C430.5,218.7,429.1,217.2,427.3,217.2z M427.3,233.4h-55.2c-1.8,0-3.2,1.5-3.2,3.2s1.5,3.2,3.2,3.2h55.2c1.8,0,3.2-1.5,3.2-3.2
		S429.1,233.4,427.3,233.4z M427.3,249.7h-55.2c-1.8,0-3.2,1.5-3.2,3.2c0,1.8,1.5,3.2,3.2,3.2h55.2c1.8,0,3.2-1.5,3.2-3.2
		C430.5,251.1,429.1,249.7,427.3,249.7z M427.3,265.9h-55.2c-1.8,0-3.2,1.5-3.2,3.2c0,1.8,1.5,3.2,3.2,3.2h55.2
		c1.8,0,3.2-1.5,3.2-3.2C430.5,267.3,429.1,265.9,427.3,265.9z M427.3,282.1h-55.2c-1.8,0-3.2,1.5-3.2,3.2c0,1.8,1.5,3.2,3.2,3.2
		h55.2c1.8,0,3.2-1.5,3.2-3.2C430.5,283.6,429.1,282.1,427.3,282.1z M544.1,158.8h-30.8v6.5h30.8c1.8,0,3.2,1.5,3.2,3.2v47.8
		c2.5,2.9,4.7,6,6.5,9.4v-57.2C553.8,163.2,549.5,158.8,544.1,158.8z M506.8,204.2c-26,0-47,21.1-47,47s21.1,47,47,47
		c26,0,47-21.1,47-47C553.8,225.3,532.7,204.3,506.8,204.2z M506.8,291.8c-22.4,0-40.6-18.2-40.6-40.6s18.2-40.6,40.6-40.6
		s40.6,18.2,40.6,40.6C547.3,273.7,529.2,291.8,506.8,291.8z"/>
	<path style="fill:#FFFFFF;" d="M522.2,237c0.2-1.2,0.4-2.4,0.3-3.6c-0.3-3-1.2-10.8-7.6-13.6c-1.3-0.6-2.8-0.9-4.3-0.9
		c-0.2,0-0.3,0-0.5,0c-2.1,0.1-4.1,0.9-5.8,2.2c-2.8,2.4-4.2,6.2-3.7,9.9c0,0.3,0,0.5,0,0.8v1c-0.9,1.9-3.7,6.3-4.7,7.8l-0.2,0.3
		c-0.5,0.2-1.1,0.3-1.8,0.5c-0.5-0.2-1.1-0.2-1.7-0.2h-8.3c-3.6,0-6.5,2.9-6.5,6.5v19.8c0,3.6,2.9,6.5,6.5,6.5h8.3
		c1.1,0,2.1-0.3,3.1-0.8c0.4,0,0.8,0,1.1,0c0.4,0,0.9,0,1.3,0c1,0.7,2.1,1.2,3.3,1.5c0.5,0.1,1.1,0.2,1.7,0.2l21.6,0
		c5.4,0,9.8-4.3,9.8-9.6c0-0.1,0-0.3,0-0.4c1.3-1.7,2.1-3.8,2.1-5.9c0-0.3,0-0.7-0.1-1c1-1.6,1.6-3.4,1.6-5.3c0-0.4,0-0.9-0.1-1.3
		c2.7-4.4,1.4-10.2-3-12.9c-1.6-1-3.5-1.5-5.4-1.4L522.2,237z M484.1,247.7h8.3v19.8h-8.3V247.7z M532.7,246.3
		c0,1.8-1.5,3.2-3.3,3.2c0,0,2,1.5,2,3.1c-0.1,1.8-1.5,3.2-3.3,3.1c1,0.8,1.6,1.9,1.8,3.1c0,1.8-1.5,3.2-3.3,3.2
		c0.7,0.9,1.2,2,1.3,3.1c0,1.8-1.5,3.2-3.3,3.1c0,0,0,0,0,0l-21.6,0c-1.2-0.3-2-1.2-3.1-1.6c-0.3-0.1-0.6-0.1-0.9-0.1v-18.9
		c0-0.3,0-0.6-0.1-0.9c0.5-0.1,0.9-0.3,1.4-0.5c0.4-0.9,7.1-10.6,7.1-12.6v-2c0-2-0.5-4.2,1.2-5.6c0.6-0.5,1.3-0.8,2.1-0.8
		c0.1,0,0.1,0,0.2,0c0.6,0,1.1,0.1,1.6,0.4c2.8,1.2,3.5,5.8,3.7,8.3c-0.4,3.2-1.2,6.4-2.3,9.4l15.6,0c1.6-0.2,3.1,1,3.3,2.6
		C532.7,246.2,532.7,246.3,532.7,246.3z M474.3,113.4v95.3c2.1-1.6,4.2-3,6.5-4.3v-91.1c0-1.8-1.5-3.2-3.2-3.2
		C475.8,110.2,474.3,111.6,474.3,113.4z M422.4,113.4v38.9h6.5v-38.9c0-1.8-1.5-3.2-3.2-3.2C423.9,110.2,422.4,111.6,422.4,113.4z"
		/>
	<path style="fill:#FFFFFF;" d="M403,100.4c0-1.8,1.5-3.2,3.2-3.2H497c1.8,0,3.2,1.5,3.2,3.2v97.7c2.2-0.3,4.3-0.4,6.5-0.4v-97.3
		c0-5.4-4.4-9.7-9.7-9.7h-90.8c-5.4,0-9.7,4.4-9.7,9.7v51.9h6.5V100.4z"/>
	<path style="fill:#FFFFFF;" d="M451.6,110.2c-1.8,0-3.2,1.5-3.2,3.2v39.7c2.4,0.8,4.7,2.1,6.5,3.9v-43.6
		C454.9,111.6,453.4,110.2,451.6,110.2z"/>
</g>
<rect id="_x3C_Slice_x3E__14_" x="-0.2" style="fill:none;" width="900" height="600"/>
<rect id="_x3C_Slice_x3E__15_" x="899.8" style="fill:none;" width="1747.4" height="600"/>
</svg>
