<?xml version="1.0" encoding="utf-8"?>
<!-- Generator: Adobe Illustrator 25.0.0, SVG Export Plug-In . SVG Version: 6.00 Build 0)  -->
<svg version="1.1" id="Layer_1" xmlns="http://www.w3.org/2000/svg" xmlns:xlink="http://www.w3.org/1999/xlink" x="0px" y="0px"
	 width="900px" height="600px" viewBox="0 0 900 600" style="enable-background:new 0 0 900 600;" xml:space="preserve">
<linearGradient id="SVGID_1_" gradientUnits="userSpaceOnUse" x1="89.5648" y1="660.4352" x2="759.0677" y2="-9.0677">
	<stop  offset="0" style="stop-color:#FF1204"/>
	<stop  offset="0.3046" style="stop-color:#FF2812"/>
	<stop  offset="0.9383" style="stop-color:#FF6234"/>
	<stop  offset="1" style="stop-color:#FF6838"/>
</linearGradient>
<rect x="-0.2" style="fill:url(#SVGID_1_);" width="900.5" height="600"/>
<linearGradient id="SVGID_2_" gradientUnits="userSpaceOnUse" x1="-818.1495" y1="668.1495" x2="-111.0393" y2="-38.9607">
	<stop  offset="5.103600e-04" style="stop-color:#F6A200"/>
	<stop  offset="0.2113" style="stop-color:#F7AA01"/>
	<stop  offset="0.5424" style="stop-color:#F9C106"/>
	<stop  offset="0.9504" style="stop-color:#FCE50C"/>
	<stop  offset="1" style="stop-color:#FCEA0D"/>
</linearGradient>
<rect x="-900.2" style="fill:url(#SVGID_2_);" width="900.5" height="600"/>
<g>
	
		<linearGradient id="SVGID_3_" gradientUnits="userSpaceOnUse" x1="-5950.4409" y1="-1952.2523" x2="-5950.4409" y2="-2379.0005" gradientTransform="matrix(-0.2633 0.321 -3.9028 -3.2011 -10160.1631 -4881.6978)">
		<stop  offset="0" style="stop-color:#FFFFFF;stop-opacity:0"/>
		<stop  offset="0.9029" style="stop-color:#FFFFFF;stop-opacity:0.9029"/>
		<stop  offset="1" style="stop-color:#FFFFFF"/>
	</linearGradient>
	<polygon style="opacity:0.53;fill:url(#SVGID_3_);" points="-982,-528.3 -950.8,-571 699.3,809.3 668.1,852 	"/>
	
		<linearGradient id="SVGID_4_" gradientUnits="userSpaceOnUse" x1="-6048.2344" y1="-1952.0333" x2="-6048.2344" y2="-2378.3254" gradientTransform="matrix(-0.2633 0.321 -3.9028 -3.2011 -10160.1631 -4881.6978)">
		<stop  offset="0" style="stop-color:#FFFFFF;stop-opacity:0"/>
		<stop  offset="0.9029" style="stop-color:#FFFFFF;stop-opacity:0.9029"/>
		<stop  offset="1" style="stop-color:#FFFFFF"/>
	</linearGradient>
	<polygon style="opacity:0.53;fill:url(#SVGID_4_);" points="-945.7,-577.9 -939,-587.1 711.1,793.2 704.3,802.4 	"/>
</g>
<g>
	
		<linearGradient id="SVGID_5_" gradientUnits="userSpaceOnUse" x1="-7532.3682" y1="-2110.8958" x2="-7532.3682" y2="-2537.644" gradientTransform="matrix(-0.2633 0.321 -3.9028 -3.2011 -10160.1631 -4881.6978)">
		<stop  offset="0" style="stop-color:#FFFFFF;stop-opacity:0"/>
		<stop  offset="0.9029" style="stop-color:#FFFFFF;stop-opacity:0.9029"/>
		<stop  offset="1" style="stop-color:#FFFFFF"/>
	</linearGradient>
	<polygon style="opacity:0.53;fill:url(#SVGID_5_);" points="53.7,-528.3 84.9,-571 1735,809.3 1703.8,852 	"/>
	
		<linearGradient id="SVGID_6_" gradientUnits="userSpaceOnUse" x1="-7630.1616" y1="-2110.6768" x2="-7630.1616" y2="-2536.9688" gradientTransform="matrix(-0.2633 0.321 -3.9028 -3.2011 -10160.1631 -4881.6978)">
		<stop  offset="0" style="stop-color:#FFFFFF;stop-opacity:0"/>
		<stop  offset="0.9029" style="stop-color:#FFFFFF;stop-opacity:0.9029"/>
		<stop  offset="1" style="stop-color:#FFFFFF"/>
	</linearGradient>
	<polygon style="opacity:0.53;fill:url(#SVGID_6_);" points="90,-577.9 96.7,-587.1 1746.8,793.2 1740,802.4 	"/>
</g>
<g>
	<path style="fill:#FFFFFF;" d="M337.7,370.1h-14.4v39.1h-9.7v-39.1h-14.2v-7.8h38.2V370.1z"/>
	<path style="fill:#FFFFFF;" d="M360.1,383.1c-1.3-0.2-2.4-0.3-3.4-0.3c-3.5,0-5.8,1.2-6.9,3.6v22.8h-9.3v-34.9h8.8l0.3,4.2
		c1.9-3.2,4.5-4.8,7.8-4.8c1,0,2,0.1,2.9,0.4L360.1,383.1z"/>
	<path style="fill:#FFFFFF;" d="M383.8,409.2c-0.4-0.8-0.7-1.9-0.9-3.1c-2.3,2.5-5.2,3.8-8.8,3.8c-3.4,0-6.2-1-8.5-3
		c-2.2-2-3.4-4.5-3.4-7.5c0-3.7,1.4-6.5,4.1-8.5c2.7-2,6.7-3,11.9-3h4.3v-2c0-1.6-0.4-2.9-1.2-3.9s-2.1-1.5-3.9-1.5
		c-1.6,0-2.8,0.4-3.7,1.1s-1.3,1.8-1.3,3.1H363c0-2,0.6-3.9,1.9-5.6s3-3.1,5.3-4c2.3-1,4.8-1.5,7.7-1.5c4.3,0,7.7,1.1,10.2,3.2
		c2.5,2.2,3.8,5.2,3.8,9.1v15.1c0,3.3,0.5,5.8,1.4,7.5v0.5H383.8z M376.1,402.7c1.4,0,2.6-0.3,3.8-0.9s2-1.4,2.6-2.5v-6H379
		c-4.7,0-7.1,1.6-7.4,4.8l0,0.5c0,1.2,0.4,2.1,1.2,2.9C373.6,402.4,374.7,402.7,376.1,402.7z"/>
	<path style="fill:#FFFFFF;" d="M399,365.3c0-1.4,0.5-2.5,1.4-3.4c0.9-0.9,2.2-1.4,3.8-1.4c1.6,0,2.9,0.5,3.8,1.4s1.4,2.1,1.4,3.4
		c0,1.4-0.5,2.6-1.4,3.5s-2.2,1.4-3.8,1.4s-2.8-0.5-3.8-1.4C399.4,367.9,399,366.7,399,365.3z M408.8,409.2h-9.3v-34.9h9.3V409.2z"
		/>
	<path style="fill:#FFFFFF;" d="M425.1,374.3l0.3,4c2.5-3.1,5.8-4.7,10-4.7c3.7,0,6.4,1.1,8.2,3.3s2.7,5.4,2.8,9.7v22.5h-9.3v-22.3
		c0-2-0.4-3.4-1.3-4.3s-2.3-1.3-4.3-1.3c-2.6,0-4.6,1.1-5.9,3.4v24.6h-9.3v-34.9H425.1z"/>
	<path style="fill:#FFFFFF;" d="M453.4,365.3c0-1.4,0.5-2.5,1.4-3.4c0.9-0.9,2.2-1.4,3.8-1.4c1.6,0,2.9,0.5,3.8,1.4s1.4,2.1,1.4,3.4
		c0,1.4-0.5,2.6-1.4,3.5s-2.2,1.4-3.8,1.4s-2.8-0.5-3.8-1.4C453.9,367.9,453.4,366.7,453.4,365.3z M463.3,409.2H454v-34.9h9.3V409.2
		z"/>
	<path style="fill:#FFFFFF;" d="M479.6,374.3l0.3,4c2.5-3.1,5.8-4.7,10-4.7c3.7,0,6.4,1.1,8.2,3.3s2.7,5.4,2.8,9.7v22.5h-9.3v-22.3
		c0-2-0.4-3.4-1.3-4.3s-2.3-1.3-4.3-1.3c-2.6,0-4.6,1.1-5.9,3.4v24.6h-9.3v-34.9H479.6z"/>
	<path style="fill:#FFFFFF;" d="M506.6,391.5c0-5.3,1.3-9.7,3.8-12.9c2.5-3.3,6-4.9,10.3-4.9c3.8,0,6.8,1.3,8.9,3.9l0.4-3.3h8.4
		v33.7c0,3.1-0.7,5.7-2.1,8c-1.4,2.3-3.3,4-5.8,5.2c-2.5,1.2-5.5,1.8-8.8,1.8c-2.6,0-5-0.5-7.5-1.5s-4.3-2.3-5.5-3.9l4.1-5.7
		c2.3,2.6,5.1,3.9,8.4,3.9c2.5,0,4.4-0.7,5.8-2s2.1-3.2,2.1-5.6v-1.9c-2.1,2.4-5,3.6-8.5,3.6c-4.2,0-7.6-1.6-10.2-4.9
		c-2.6-3.3-3.9-7.6-3.9-13V391.5z M515.9,392.2c0,3.2,0.6,5.6,1.9,7.4s3,2.7,5.2,2.7c2.8,0,4.9-1.1,6.1-3.2v-14.7
		c-1.2-2.1-3.3-3.2-6-3.2c-2.2,0-4,0.9-5.3,2.7C516.5,385.8,515.9,388.6,515.9,392.2z"/>
	<path style="fill:#FFFFFF;" d="M560.8,396.6c0-2.2,0.6-4.2,1.8-6c1.2-1.8,3.4-3.9,6.7-6.2c-1.4-1.9-2.5-3.6-3.3-5.3
		s-1.2-3.4-1.2-5.1c0-3.7,1.2-6.6,3.5-8.9c2.3-2.3,5.4-3.4,9.3-3.4c3.5,0,6.4,1,8.6,3.1s3.4,4.7,3.4,7.8c0,3.7-1.9,7-5.7,9.9
		l-3.6,2.6l8.1,9.4c1.3-2.5,1.9-5.2,1.9-8.2h7.9c0,6.1-1.4,11-4.2,14.8l7,8.2h-10.6l-2.4-2.8c-3.5,2.3-7.4,3.4-11.9,3.4
		c-4.6,0-8.4-1.2-11.2-3.7S560.8,400.6,560.8,396.6z M576.6,402.3c2.2,0,4.4-0.6,6.3-1.9l-9.2-10.7l-0.7,0.5
		c-1.9,1.6-2.9,3.5-2.9,5.8c0,1.9,0.6,3.4,1.8,4.5C573.1,401.8,574.6,402.3,576.6,402.3z M573.1,373.9c0,1.6,0.9,3.6,2.8,6.1
		l2.5-1.6c1.3-0.8,2.1-1.6,2.6-2.4c0.5-0.8,0.7-1.7,0.7-2.8s-0.4-2-1.2-2.8c-0.8-0.8-1.8-1.2-3.1-1.2c-1.3,0-2.4,0.4-3.2,1.3
		C573.5,371.3,573.1,372.4,573.1,373.9z"/>
	<path style="fill:#FFFFFF;" d="M324.4,474.9l6.3-33.4h9.6L330,488.4h-9.7l-7.6-31.4l-7.6,31.4h-9.7l-10.4-46.9h9.6l6.3,33.3
		l7.7-33.3h8.2L324.4,474.9z"/>
	<path style="fill:#FFFFFF;" d="M342.5,470.7c0-3.5,0.7-6.5,2-9.2c1.3-2.7,3.2-4.8,5.8-6.3s5.4-2.2,8.7-2.2c4.7,0,8.5,1.4,11.5,4.3
		s4.6,6.8,5,11.7l0.1,2.4c0,5.3-1.5,9.6-4.5,12.9s-7,4.9-12,4.9s-9-1.6-12-4.8s-4.5-7.6-4.5-13.1V470.7z M351.8,471.3
		c0,3.3,0.6,5.8,1.9,7.6c1.2,1.8,3,2.6,5.3,2.6c2.3,0,4-0.9,5.3-2.6s1.9-4.5,1.9-8.3c0-3.2-0.6-5.8-1.9-7.6
		c-1.3-1.8-3.1-2.7-5.3-2.7c-2.3,0-4,0.9-5.3,2.7C352.5,464.8,351.8,467.6,351.8,471.3z"/>
	<path style="fill:#FFFFFF;" d="M400.9,462.3c-1.3-0.2-2.4-0.3-3.4-0.3c-3.5,0-5.8,1.2-6.9,3.6v22.8h-9.3v-34.9h8.8l0.3,4.2
		c1.9-3.2,4.5-4.8,7.8-4.8c1,0,2,0.1,2.9,0.4L400.9,462.3z"/>
	<path style="fill:#FFFFFF;" d="M418,474.4l-3.4,3.4v10.6h-9.3v-49.5h9.3v27.4l1.8-2.3l8.9-10.5h11.2L424,468.1l13.7,20.3H427
		L418,474.4z"/>
	<path style="fill:#FFFFFF;" d="M459.5,478.8c0-1.1-0.6-2-1.7-2.7c-1.1-0.7-2.9-1.2-5.4-1.8c-8.3-1.7-12.4-5.3-12.4-10.6
		c0-3.1,1.3-5.7,3.9-7.8c2.6-2.1,5.9-3.1,10.1-3.1c4.4,0,8,1,10.6,3.1c2.7,2.1,4,4.8,4,8.1h-9.3c0-1.3-0.4-2.4-1.3-3.3
		s-2.2-1.3-4-1.3c-1.6,0-2.8,0.4-3.6,1.1s-1.3,1.6-1.3,2.7c0,1,0.5,1.9,1.5,2.5c1,0.6,2.6,1.2,4.9,1.6s4.3,1,5.9,1.6
		c4.9,1.8,7.4,4.9,7.4,9.4c0,3.2-1.4,5.8-4.1,7.7s-6.3,2.9-10.6,2.9c-2.9,0-5.5-0.5-7.8-1.6c-2.3-1-4-2.5-5.3-4.3
		c-1.3-1.8-1.9-3.8-1.9-5.9h8.8c0.1,1.7,0.7,2.9,1.8,3.8s2.7,1.3,4.6,1.3c1.8,0,3.1-0.3,4-1S459.5,479.9,459.5,478.8z"/>
	<path style="fill:#FFFFFF;" d="M483.6,457.3c2.5-3,5.6-4.4,9.3-4.4c7.6,0,11.4,4.4,11.5,13.2v22.3h-9.3v-22.1c0-2-0.4-3.5-1.3-4.4
		s-2.3-1.4-4.3-1.4c-2.7,0-4.7,1.1-5.9,3.2v24.8h-9.3v-49.5h9.3V457.3z"/>
	<path style="fill:#FFFFFF;" d="M510,470.7c0-3.5,0.7-6.5,2-9.2s3.2-4.8,5.8-6.3s5.4-2.2,8.7-2.2c4.7,0,8.5,1.4,11.5,4.3
		s4.6,6.8,5,11.7l0.1,2.4c0,5.3-1.5,9.6-4.5,12.9s-7,4.9-12,4.9s-9-1.6-12-4.8c-3-3.2-4.5-7.6-4.5-13.1V470.7z M519.4,471.3
		c0,3.3,0.6,5.8,1.9,7.6c1.2,1.8,3,2.6,5.3,2.6c2.3,0,4-0.9,5.3-2.6s1.9-4.5,1.9-8.3c0-3.2-0.6-5.8-1.9-7.6
		c-1.3-1.8-3.1-2.7-5.3-2.7c-2.3,0-4,0.9-5.3,2.7C520,464.8,519.4,467.6,519.4,471.3z"/>
	<path style="fill:#FFFFFF;" d="M580.2,471.3c0,5.4-1.2,9.7-3.7,12.9c-2.4,3.2-5.7,4.9-9.9,4.9c-3.5,0-6.4-1.2-8.5-3.7v16.4h-9.3
		v-48.3h8.6l0.3,3.4c2.3-2.7,5.2-4.1,8.8-4.1c4.3,0,7.6,1.6,10,4.8s3.6,7.6,3.6,13.1V471.3z M570.9,470.6c0-3.2-0.6-5.7-1.7-7.5
		c-1.1-1.8-2.8-2.6-5-2.6c-2.9,0-4.9,1.1-6,3.4v14.3c1.1,2.3,3.2,3.4,6.1,3.4C568.7,481.5,570.9,477.9,570.9,470.6z"/>
	<path style="fill:#FFFFFF;" d="M604.8,478.8c0-1.1-0.6-2-1.7-2.7c-1.1-0.7-2.9-1.2-5.4-1.8c-8.3-1.7-12.4-5.3-12.4-10.6
		c0-3.1,1.3-5.7,3.9-7.8c2.6-2.1,5.9-3.1,10.1-3.1c4.4,0,8,1,10.6,3.1c2.7,2.1,4,4.8,4,8.1h-9.3c0-1.3-0.4-2.4-1.3-3.3
		s-2.2-1.3-4-1.3c-1.6,0-2.8,0.4-3.6,1.1s-1.3,1.6-1.3,2.7c0,1,0.5,1.9,1.5,2.5c1,0.6,2.6,1.2,4.9,1.6s4.3,1,5.9,1.6
		c4.9,1.8,7.4,4.9,7.4,9.4c0,3.2-1.4,5.8-4.1,7.7s-6.3,2.9-10.6,2.9c-2.9,0-5.5-0.5-7.8-1.6c-2.3-1-4-2.5-5.3-4.3
		c-1.3-1.8-1.9-3.8-1.9-5.9h8.8c0.1,1.7,0.7,2.9,1.8,3.8s2.7,1.3,4.6,1.3c1.8,0,3.1-0.3,4-1S604.8,479.9,604.8,478.8z"/>
</g>
<g id="SvgjsG1343">
	<rect x="346.2" y="93.7" style="fill:none;" width="207.6" height="207.6"/>
	<path style="fill-rule:evenodd;clip-rule:evenodd;fill:#FFFFFF;" d="M480.8,236.5h29.5c5.4,0,9.7-4.4,9.7-9.7c0-8.1,0-21,0-21
		c0-1.8-1.5-3.2-3.2-3.2c-1.8,0-3.2,1.5-3.2,3.2v21c0,1.8-1.5,3.2-3.2,3.2h-29.5c-1.8,0-3.2,1.5-3.2,3.2S479,236.5,480.8,236.5
		L480.8,236.5z M404.3,236.5H439c1.8,0,3.2-1.5,3.2-3.2s-1.5-3.2-3.2-3.2h-34.7c-1.8,0-3.2,1.5-3.2,3.2S402.5,236.5,404.3,236.5z
		 M516.8,94.8H357.6c-2.6,0-5.1,1-6.9,2.9c-1.8,1.8-2.9,4.3-2.9,6.9c0,22.8,0,99.4,0,122.3c0,2.6,1,5.1,2.9,6.9
		c1.8,1.8,4.3,2.9,6.9,2.9h4.8c1.8,0,3.2-1.5,3.2-3.2s-1.5-3.2-3.2-3.2h-4.8c-0.9,0-1.7-0.3-2.3-0.9c-0.6-0.6-0.9-1.4-0.9-2.3V104.5
		c0-0.9,0.3-1.7,0.9-2.3c0.6-0.6,1.4-0.9,2.3-0.9h159.2c1.8,0,3.2-1.5,3.2-3.2S518.6,94.8,516.8,94.8z"/>
	<path style="fill-rule:evenodd;clip-rule:evenodd;fill:#FFFFFF;" d="M445.5,169.5c0-4.2-3.4-7.6-7.6-7.6H430
		c-4.2,0-7.6,3.4-7.6,7.6c0,7.6,0,22.7,0,22.7c0,1.8,1.5,3.2,3.2,3.2h16.6c1.8,0,3.2-1.5,3.2-3.2V169.5L445.5,169.5z M439,169.5V189
		h-10.1v-19.4c0-0.6,0.5-1.1,1.1-1.1h7.9C438.6,168.5,439,168.9,439,169.5L439,169.5z M475.8,150.3c0-2-0.8-3.9-2.2-5.4
		c-1.4-1.4-3.3-2.2-5.4-2.2h-7.9c-2,0-3.9,0.8-5.4,2.2c-1.4,1.4-2.2,3.3-2.2,5.4v41.9c0,1.8,1.5,3.2,3.2,3.2h16.6
		c1.8,0,3.2-1.5,3.2-3.2V150.3z M469.3,150.3V189h-10.1v-38.7c0-0.3,0.1-0.6,0.3-0.8c0.2-0.2,0.5-0.3,0.8-0.3h7.9
		c0.3,0,0.6,0.1,0.8,0.3C469.2,149.8,469.3,150,469.3,150.3z M415.3,175.2c0-4.2-3.4-7.6-7.6-7.6h-7.9c-4.2,0-7.6,3.4-7.6,7.6v17
		c0,1.8,1.5,3.2,3.2,3.2h16.6c1.8,0,3.2-1.5,3.2-3.2V175.2z M408.8,175.2V189h-10.1v-13.7c0-0.6,0.5-1.1,1.1-1.1h7.9
		C408.3,174.2,408.8,174.6,408.8,175.2z M397.6,161.3l8.3-7.1h26.2c1.8,0,3.5-0.6,4.9-1.8l27.9-23.8c1.4-1.2,1.5-3.2,0.4-4.6
		c-1.2-1.4-3.2-1.5-4.6-0.4l-27.9,23.8c-0.2,0.2-0.4,0.3-0.7,0.3h-27.4c-0.8,0-1.5,0.3-2.1,0.8l-9.2,7.9c-1.4,1.2-1.5,3.2-0.4,4.6
		C394.2,162.3,396.2,162.5,397.6,161.3z M362,116.4h124.9c1.8,0,3.2-1.5,3.2-3.2c0-1.8-1.5-3.2-3.2-3.2H362c-1.8,0-3.2,1.5-3.2,3.2
		C358.7,115,360.2,116.4,362,116.4z M514.9,106.2c-13.4,0-24.3,10.9-24.3,24.3c0,13.4,10.9,24.3,24.3,24.3
		c13.4,0,24.3-10.9,24.3-24.3C539.2,117.1,528.3,106.2,514.9,106.2z M514.9,112.7c9.8,0,17.8,8,17.8,17.8s-8,17.8-17.8,17.8
		c-9.8,0-17.8-8-17.8-17.8S505.1,112.7,514.9,112.7z M488,197.9c0-15.9,12.9-28.8,28.8-28.8c15.9,0,28.8,12.9,28.8,28.8
		c0,1.8,1.5,3.2,3.2,3.2c1.8,0,3.2-1.5,3.2-3.2c0-19.5-15.8-35.3-35.3-35.3c-19.5,0-35.3,15.8-35.3,35.3c0,1.8,1.5,3.2,3.2,3.2
		C486.6,201.1,488,199.7,488,197.9L488,197.9z"/>
	<path style="fill-rule:evenodd;clip-rule:evenodd;fill:#FFFFFF;" d="M517.4,166.7c0,0,2.1,11.1,3,15.7c0.1,0.3,0,0.6-0.2,0.9
		l-2.5,3.3c-0.2,0.3-0.5,0.4-0.9,0.4c-0.3,0-0.6-0.2-0.9-0.4l-2.5-3.3c-0.2-0.2-0.3-0.6-0.2-0.9l3-15.7c0.3-1.8-0.8-3.5-2.6-3.8
		c-1.8-0.3-3.5,0.8-3.8,2.6c0,0-2.1,11.1-3,15.7c-0.4,2.1,0.1,4.3,1.5,6.1l2.5,3.3c1.4,1.8,3.6,2.9,6,2.9c2.3,0,4.5-1.1,6-2.9
		l2.5-3.3c1.3-1.7,1.9-3.9,1.5-6.1c-0.9-4.6-3-15.7-3-15.7c-0.3-1.8-2-2.9-3.8-2.6C518.3,163.2,517.1,164.9,517.4,166.7L517.4,166.7
		z M383.2,205.4c-13.4,0-24.3,10.9-24.3,24.3c0,13.4,10.9,24.3,24.3,24.3c13.4,0,24.3-10.9,24.3-24.3
		C407.5,216.3,396.6,205.4,383.2,205.4z M383.2,211.9c9.8,0,17.8,8,17.8,17.8s-8,17.8-17.8,17.8c-9.8,0-17.8-8-17.8-17.8
		S373.3,211.9,383.2,211.9z M459.7,205.4c-13.4,0-24.3,10.9-24.3,24.3c0,13.4,10.9,24.3,24.3,24.3c13.4,0,24.3-10.9,24.3-24.3
		C484.1,216.3,473.2,205.4,459.7,205.4z M459.7,211.9c9.8,0,17.8,8,17.8,17.8s-8,17.8-17.8,17.8c-9.8,0-17.8-8-17.8-17.8
		S449.9,211.9,459.7,211.9z M354.4,297c0-15.9,12.9-28.8,28.8-28.8c15.9,0,28.8,12.9,28.8,28.8c0,1.8,1.5,3.2,3.2,3.2
		s3.2-1.5,3.2-3.2c0-19.5-15.8-35.3-35.3-35.3c-19.5,0-35.3,15.8-35.3,35.3c0,1.8,1.5,3.2,3.2,3.2
		C352.9,300.3,354.4,298.8,354.4,297z M432.8,297c0-15.9,12.9-28.8,28.8-28.8c15.9,0,28.8,12.9,28.8,28.8c0,1.8,1.5,3.2,3.2,3.2
		c1.8,0,3.2-1.5,3.2-3.2c0-19.5-15.8-35.3-35.3-35.3c-19.5,0-35.3,15.8-35.3,35.3c0,1.8,1.5,3.2,3.2,3.2
		C431.4,300.3,432.8,298.8,432.8,297z"/>
</g>
<rect id="_x3C_Slice_x3E__7_" x="-0.2" y="140.5" style="fill:none;" width="1747.4" height="459.5"/>
<rect id="_x3C_Slice_x3E__11_" x="-0.2" style="fill:none;" width="1747.4" height="140.5"/>
</svg>
