<?xml version="1.0" encoding="utf-8"?>
<!-- Generator: Adobe Illustrator 25.0.0, SVG Export Plug-In . SVG Version: 6.00 Build 0)  -->
<svg version="1.1" id="Layer_1" xmlns="http://www.w3.org/2000/svg" xmlns:xlink="http://www.w3.org/1999/xlink" x="0px" y="0px"
	 width="900px" height="600px" viewBox="0 0 900 600" style="enable-background:new 0 0 900 600;" xml:space="preserve">
<linearGradient id="SVGID_1_" gradientUnits="userSpaceOnUse" x1="981.8505" y1="668.1495" x2="1688.9607" y2="-38.9607">
	<stop  offset="5.103600e-04" style="stop-color:#F6A200"/>
	<stop  offset="0.2113" style="stop-color:#F7AA01"/>
	<stop  offset="0.5424" style="stop-color:#F9C106"/>
	<stop  offset="0.9504" style="stop-color:#FCE50C"/>
	<stop  offset="1" style="stop-color:#FCEA0D"/>
</linearGradient>
<rect x="899.8" style="fill:url(#SVGID_1_);" width="900.5" height="600"/>
<linearGradient id="SVGID_2_" gradientUnits="userSpaceOnUse" x1="85.7077" y1="664.2923" x2="911.9669" y2="-161.9669">
	<stop  offset="7.066580e-03" style="stop-color:#44B444"/>
	<stop  offset="0.2264" style="stop-color:#60BA3C"/>
	<stop  offset="0.5585" style="stop-color:#84C231"/>
	<stop  offset="0.8283" style="stop-color:#9BC62A"/>
	<stop  offset="1" style="stop-color:#A3C828"/>
</linearGradient>
<rect x="-0.2" style="fill:url(#SVGID_2_);" width="900.5" height="600"/>
<linearGradient id="SVGID_3_" gradientUnits="userSpaceOnUse" x1="-814.2923" y1="664.2923" x2="-94.6184" y2="-55.3816" gradientTransform="matrix(-1 0 0 -1 -900 600)">
	<stop  offset="0" style="stop-color:#CEEC0A"/>
	<stop  offset="1" style="stop-color:#0AECA9"/>
</linearGradient>
<polygon style="fill:url(#SVGID_3_);" points="-900.2,0 0.2,0 0.2,600 -900.2,600 "/>
<g>
	
		<linearGradient id="SVGID_4_" gradientUnits="userSpaceOnUse" x1="-1619.8871" y1="-1698.4758" x2="-1619.8871" y2="-2125.2239" gradientTransform="matrix(-0.2633 0.321 -3.9028 -3.2011 -7886.1938 -5459.541)">
		<stop  offset="0" style="stop-color:#FFFFFF;stop-opacity:0"/>
		<stop  offset="0.9029" style="stop-color:#FFFFFF;stop-opacity:0.9029"/>
		<stop  offset="1" style="stop-color:#FFFFFF"/>
	</linearGradient>
	<polygon style="opacity:0.53;fill:url(#SVGID_4_);" points="-838.7,-528.3 -807.5,-571 842.5,809.3 811.3,852 	"/>
	
		<linearGradient id="SVGID_5_" gradientUnits="userSpaceOnUse" x1="-1717.6802" y1="-1698.2568" x2="-1717.6802" y2="-2124.5488" gradientTransform="matrix(-0.2633 0.321 -3.9028 -3.2011 -7886.1938 -5459.541)">
		<stop  offset="0" style="stop-color:#FFFFFF;stop-opacity:0"/>
		<stop  offset="0.9029" style="stop-color:#FFFFFF;stop-opacity:0.9029"/>
		<stop  offset="1" style="stop-color:#FFFFFF"/>
	</linearGradient>
	<polygon style="opacity:0.53;fill:url(#SVGID_5_);" points="-802.5,-577.9 -795.8,-587.1 854.3,793.2 847.6,802.4 	"/>
</g>
<g>
	
		<linearGradient id="SVGID_6_" gradientUnits="userSpaceOnUse" x1="-4150.4409" y1="-1952.2523" x2="-4150.4409" y2="-2379.0005" gradientTransform="matrix(-0.2633 0.321 -3.9028 -3.2011 -7886.1938 -5459.541)">
		<stop  offset="0" style="stop-color:#FFFFFF;stop-opacity:0"/>
		<stop  offset="0.9029" style="stop-color:#FFFFFF;stop-opacity:0.9029"/>
		<stop  offset="1" style="stop-color:#FFFFFF"/>
	</linearGradient>
	<polygon style="opacity:0.53;fill:url(#SVGID_6_);" points="818,-528.3 849.2,-571 2499.3,809.3 2468.1,852 	"/>
	
		<linearGradient id="SVGID_7_" gradientUnits="userSpaceOnUse" x1="-4248.2344" y1="-1952.0333" x2="-4248.2344" y2="-2378.3254" gradientTransform="matrix(-0.2633 0.321 -3.9028 -3.2011 -7886.1938 -5459.541)">
		<stop  offset="0" style="stop-color:#FFFFFF;stop-opacity:0"/>
		<stop  offset="0.9029" style="stop-color:#FFFFFF;stop-opacity:0.9029"/>
		<stop  offset="1" style="stop-color:#FFFFFF"/>
	</linearGradient>
	<polygon style="opacity:0.53;fill:url(#SVGID_7_);" points="854.3,-577.9 861,-587.1 2511.1,793.2 2504.3,802.4 	"/>
</g>
<g>
	
		<linearGradient id="SVGID_8_" gradientUnits="userSpaceOnUse" x1="-2982.312" y1="-1835.1064" x2="-2982.312" y2="-2261.8547" gradientTransform="matrix(-0.2633 0.321 -3.9028 -3.2011 -7886.1938 -5459.541)">
		<stop  offset="0" style="stop-color:#FFFFFF;stop-opacity:0"/>
		<stop  offset="0.9029" style="stop-color:#FFFFFF;stop-opacity:0.9029"/>
		<stop  offset="1" style="stop-color:#FFFFFF"/>
	</linearGradient>
	<polygon style="opacity:0.53;fill:url(#SVGID_8_);" points="53.2,-528.3 84.5,-571 1734.5,809.3 1703.3,852 	"/>
	
		<linearGradient id="SVGID_9_" gradientUnits="userSpaceOnUse" x1="-3080.105" y1="-1834.8876" x2="-3080.105" y2="-2261.1797" gradientTransform="matrix(-0.2633 0.321 -3.9028 -3.2011 -7886.1938 -5459.541)">
		<stop  offset="0" style="stop-color:#FFFFFF;stop-opacity:0"/>
		<stop  offset="0.9029" style="stop-color:#FFFFFF;stop-opacity:0.9029"/>
		<stop  offset="1" style="stop-color:#FFFFFF"/>
	</linearGradient>
	<polygon style="opacity:0.53;fill:url(#SVGID_9_);" points="89.5,-577.9 96.2,-587.1 1746.3,793.2 1739.5,802.4 	"/>
</g>
<g>
	<path style="fill:#FFFFFF;" d="M314.1,409.2h-9.7v-46.9h9.7V409.2z"/>
	<path style="fill:#FFFFFF;" d="M331,374.3l0.3,4c2.5-3.1,5.8-4.7,10-4.7c3.7,0,6.4,1.1,8.2,3.3s2.7,5.4,2.8,9.7v22.5H343v-22.3
		c0-2-0.4-3.4-1.3-4.3s-2.3-1.3-4.3-1.3c-2.6,0-4.6,1.1-5.9,3.4v24.6h-9.3v-34.9H331z"/>
	<path style="fill:#FFFFFF;" d="M370.6,365.8v8.6h6v6.8h-6v17.4c0,1.3,0.2,2.2,0.7,2.8c0.5,0.6,1.4,0.8,2.8,0.8c1,0,1.9-0.1,2.7-0.2
		v7.1c-1.8,0.6-3.7,0.8-5.6,0.8c-6.5,0-9.9-3.3-10-9.9v-18.8h-5.1v-6.8h5.1v-8.6H370.6z"/>
	<path style="fill:#FFFFFF;" d="M397.8,409.9c-5.1,0-9.3-1.6-12.5-4.7c-3.2-3.1-4.8-7.3-4.8-12.5v-0.9c0-3.5,0.7-6.6,2-9.4
		c1.4-2.8,3.3-4.9,5.8-6.4c2.5-1.5,5.3-2.2,8.5-2.2c4.8,0,8.5,1.5,11.3,4.5c2.7,3,4.1,7.3,4.1,12.8v3.8h-22.2
		c0.3,2.3,1.2,4.1,2.7,5.5c1.5,1.4,3.4,2.1,5.8,2.1c3.6,0,6.4-1.3,8.4-3.9l4.6,5.1c-1.4,2-3.3,3.5-5.7,4.6S400.7,409.9,397.8,409.9z
		 M396.7,381.2c-1.8,0-3.3,0.6-4.5,1.9c-1.2,1.3-1.9,3-2.2,5.4h13v-0.7c0-2.1-0.6-3.7-1.7-4.8S398.7,381.2,396.7,381.2z"/>
	<path style="fill:#FFFFFF;" d="M437,383.1c-1.3-0.2-2.4-0.3-3.4-0.3c-3.5,0-5.8,1.2-6.9,3.6v22.8h-9.3v-34.9h8.8l0.3,4.2
		c1.9-3.2,4.5-4.8,7.8-4.8c1,0,2,0.1,2.9,0.4L437,383.1z"/>
	<path style="fill:#FFFFFF;" d="M450,374.3l0.3,4c2.5-3.1,5.8-4.7,10-4.7c3.7,0,6.4,1.1,8.2,3.3s2.7,5.4,2.8,9.7v22.5h-9.3v-22.3
		c0-2-0.4-3.4-1.3-4.3s-2.3-1.3-4.3-1.3c-2.6,0-4.6,1.1-5.9,3.4v24.6h-9.3v-34.9H450z"/>
	<path style="fill:#FFFFFF;" d="M497.3,399.6c0-1.1-0.6-2-1.7-2.7c-1.1-0.7-2.9-1.2-5.4-1.8c-8.3-1.7-12.4-5.3-12.4-10.6
		c0-3.1,1.3-5.7,3.9-7.8c2.6-2.1,5.9-3.1,10.1-3.1c4.4,0,8,1,10.6,3.1c2.7,2.1,4,4.8,4,8.1H497c0-1.3-0.4-2.4-1.3-3.3
		s-2.2-1.3-4-1.3c-1.6,0-2.8,0.4-3.6,1.1s-1.3,1.6-1.3,2.7c0,1,0.5,1.9,1.5,2.5c1,0.6,2.6,1.2,4.9,1.6c2.3,0.5,4.3,1,5.9,1.6
		c4.9,1.8,7.4,4.9,7.4,9.4c0,3.2-1.4,5.8-4.1,7.7s-6.3,2.9-10.6,2.9c-2.9,0-5.5-0.5-7.8-1.6c-2.3-1-4-2.5-5.3-4.3s-1.9-3.8-1.9-5.9
		h8.8c0.1,1.7,0.7,2.9,1.8,3.8c1.1,0.9,2.7,1.3,4.6,1.3c1.8,0,3.1-0.3,4-1C496.9,401.6,497.3,400.7,497.3,399.6z"/>
	<path style="fill:#FFFFFF;" d="M521.4,378.1c2.5-3,5.6-4.4,9.3-4.4c7.6,0,11.4,4.4,11.5,13.2v22.3H533v-22.1c0-2-0.4-3.5-1.3-4.4
		c-0.9-1-2.3-1.4-4.3-1.4c-2.7,0-4.7,1.1-5.9,3.2v24.8h-9.3v-49.5h9.3V378.1z"/>
	<path style="fill:#FFFFFF;" d="M549.2,365.3c0-1.4,0.5-2.5,1.4-3.4c0.9-0.9,2.2-1.4,3.8-1.4c1.6,0,2.9,0.5,3.8,1.4s1.4,2.1,1.4,3.4
		c0,1.4-0.5,2.6-1.4,3.5c-1,0.9-2.2,1.4-3.8,1.4s-2.8-0.5-3.8-1.4C549.7,367.9,549.2,366.7,549.2,365.3z M559.1,409.2h-9.3v-34.9
		h9.3V409.2z"/>
	<path style="fill:#FFFFFF;" d="M598.2,392.1c0,5.4-1.2,9.7-3.7,12.9c-2.4,3.2-5.7,4.8-9.9,4.8c-3.5,0-6.4-1.2-8.5-3.7v16.4h-9.3
		v-48.3h8.6l0.3,3.4c2.3-2.7,5.2-4.1,8.8-4.1c4.3,0,7.6,1.6,10,4.8c2.4,3.2,3.6,7.6,3.6,13.1V392.1z M588.9,391.4
		c0-3.2-0.6-5.7-1.7-7.5c-1.1-1.8-2.8-2.6-5-2.6c-2.9,0-4.9,1.1-6,3.4v14.3c1.1,2.3,3.2,3.4,6.1,3.4
		C586.6,402.3,588.9,398.7,588.9,391.4z"/>
	<path style="fill:#FFFFFF;" d="M360,476.1c0-1.8-0.6-3.2-1.9-4.2s-3.6-2-7-3.1s-6-2.2-8-3.2c-5.3-2.9-8-6.8-8-11.6
		c0-2.5,0.7-4.8,2.1-6.8c1.4-2,3.5-3.5,6.2-4.7s5.7-1.7,9-1.7c3.4,0,6.3,0.6,9,1.8c2.6,1.2,4.7,2.9,6.1,5.1c1.5,2.2,2.2,4.7,2.2,7.5
		H360c0-2.1-0.7-3.8-2-5s-3.3-1.8-5.7-1.8c-2.4,0-4.2,0.5-5.5,1.5c-1.3,1-2,2.3-2,3.9c0,1.5,0.8,2.8,2.3,3.8c1.5,1,3.8,2,6.8,2.9
		c5.5,1.7,9.5,3.7,12,6.2s3.8,5.5,3.8,9.2c0,4.1-1.5,7.2-4.6,9.6c-3.1,2.3-7.2,3.5-12.4,3.5c-3.6,0-6.9-0.7-9.9-2s-5.2-3.1-6.8-5.4
		c-1.6-2.3-2.3-5-2.3-8h9.7c0,5.2,3.1,7.8,9.3,7.8c2.3,0,4.1-0.5,5.4-1.4S360,477.8,360,476.1z"/>
	<path style="fill:#FFFFFF;" d="M396.5,484.9c-2.3,2.8-5.5,4.2-9.5,4.2c-3.7,0-6.6-1.1-8.6-3.2c-2-2.1-3-5.3-3-9.4v-22.8h9.3v22.6
		c0,3.6,1.7,5.5,5,5.5c3.2,0,5.3-1.1,6.5-3.3v-24.7h9.3v34.9h-8.8L396.5,484.9z"/>
	<path style="fill:#FFFFFF;" d="M443.9,471.3c0,5.4-1.2,9.7-3.7,12.9c-2.4,3.2-5.7,4.9-9.9,4.9c-3.5,0-6.4-1.2-8.5-3.7v16.4h-9.3
		v-48.3h8.6l0.3,3.4c2.3-2.7,5.2-4.1,8.8-4.1c4.3,0,7.6,1.6,10,4.8s3.6,7.6,3.6,13.1V471.3z M434.6,470.6c0-3.2-0.6-5.7-1.7-7.5
		c-1.2-1.8-2.8-2.6-5-2.6c-2.9,0-4.9,1.1-6,3.4v14.3c1.1,2.3,3.2,3.4,6.1,3.4C432.4,481.5,434.6,477.9,434.6,470.6z"/>
	<path style="fill:#FFFFFF;" d="M481.1,471.3c0,5.4-1.2,9.7-3.7,12.9c-2.4,3.2-5.7,4.9-9.9,4.9c-3.5,0-6.4-1.2-8.5-3.7v16.4h-9.3
		v-48.3h8.6l0.3,3.4c2.3-2.7,5.2-4.1,8.8-4.1c4.3,0,7.6,1.6,10,4.8s3.6,7.6,3.6,13.1V471.3z M471.8,470.6c0-3.2-0.6-5.7-1.7-7.5
		c-1.1-1.8-2.8-2.6-5-2.6c-2.9,0-4.9,1.1-6,3.4v14.3c1.1,2.3,3.2,3.4,6.1,3.4C469.5,481.5,471.8,477.9,471.8,470.6z"/>
	<path style="fill:#FFFFFF;" d="M485.4,470.7c0-3.5,0.7-6.5,2-9.2s3.2-4.8,5.8-6.3c2.5-1.5,5.4-2.2,8.7-2.2c4.7,0,8.5,1.4,11.5,4.3
		c3,2.9,4.6,6.8,5,11.7l0.1,2.4c0,5.3-1.5,9.6-4.5,12.9s-7,4.9-12,4.9s-9-1.6-12-4.8c-3-3.2-4.5-7.6-4.5-13.1V470.7z M494.7,471.3
		c0,3.3,0.6,5.8,1.9,7.6c1.2,1.8,3,2.6,5.3,2.6c2.3,0,4-0.9,5.3-2.6s1.9-4.5,1.9-8.3c0-3.2-0.6-5.8-1.9-7.6
		c-1.3-1.8-3.1-2.7-5.3-2.7c-2.3,0-4,0.9-5.3,2.7C495.3,464.8,494.7,467.6,494.7,471.3z"/>
	<path style="fill:#FFFFFF;" d="M543.7,462.3c-1.3-0.2-2.4-0.3-3.4-0.3c-3.5,0-5.8,1.2-6.9,3.6v22.8h-9.3v-34.9h8.8l0.3,4.2
		c1.9-3.2,4.5-4.8,7.8-4.8c1,0,2,0.1,2.9,0.4L543.7,462.3z"/>
	<path style="fill:#FFFFFF;" d="M561,445v8.6h6v6.8h-6v17.4c0,1.3,0.2,2.2,0.7,2.8s1.4,0.8,2.8,0.8c1,0,1.9-0.1,2.7-0.2v7.1
		c-1.8,0.6-3.7,0.8-5.6,0.8c-6.5,0-9.9-3.3-10-9.9v-18.8h-5.1v-6.8h5.1V445H561z"/>
</g>
<g id="SvgjsG1239">
	<path style="fill:#FFFFFF;" d="M495,190.6h6.9v6.9H495V190.6z M481.1,190.6h6.9v6.9h-6.9V190.6z M467.3,190.6h6.9v6.9h-6.9V190.6z"
		/>
	<path style="fill:#FFFFFF;" d="M553.8,131.8v-6.9h-69.2v-6.9c0-13.4-10.9-24.2-24.2-24.2h-20.8c-13.4,0-24.2,10.9-24.2,24.2v6.9
		h-27.7c-1.9,0-3.5,1.5-3.5,3.5v65.7c0,2.2,0.4,4.3,1.2,6.2l-36.7,9.5c-1.9,0.5-3,2.4-2.5,4.2c0.3,1.2,1.3,2.2,2.5,2.5l45.9,11.9
		V246h-38.1v6.9h38.1v6.9h-27.7v6.9h27.7v6.9h-17.3v6.9h20.2l51.4,17.1c0.7,0.2,1.5,0.2,2.2,0l51.9-17.3c1.4-0.5,2.4-1.8,2.4-3.3
		v-48.8l34.6-8.9v50l-6.6,13.1c-0.5,1-0.5,2.1,0,3.1l6.9,13.8c0.9,1.7,2.9,2.4,4.6,1.5c0.7-0.3,1.2-0.9,1.5-1.5l6.9-13.8
		c0.5-1,0.5-2.1,0-3.1l-6.6-13.1v-51.8l4.3-1.1c1.8-0.5,3-2.4,2.5-4.2c-0.3-1.2-1.3-2.2-2.5-2.5l-36.7-9.5c0.8-2,1.2-4.1,1.2-6.2
		v-34.6h17.3v-6.9h-17.3v-6.9h27.7v-6.9h-27.7v-6.9H553.8z M543.4,290.1l-3.1-6.1l3.1-6.1l3.1,6.1L543.4,290.1z M422.3,117.9
		c0-9.5,7.8-17.3,17.3-17.3h20.8c9.5,0,17.3,7.8,17.3,17.3v6.9h-6.9v-6.9c0-5.7-4.7-10.4-10.4-10.4h-20.8c-5.7,0-10.4,4.7-10.4,10.4
		v6.9h-6.9V117.9z M463.8,124.8h-27.7v-6.9c0-1.9,1.5-3.5,3.5-3.5h20.8c1.9,0,3.5,1.5,3.5,3.5V124.8z M391.2,131.8h117.7v13.8
		c0,5.7-4.7,10.4-10.4,10.4h-34.6v-10.4c0-1.9-1.5-3.5-3.5-3.5h-20.8c-1.9,0-3.5,1.5-3.5,3.5V156h-34.6c-5.7,0-10.4-4.7-10.4-10.4
		V131.8z M508.8,194.1c0,2.4-0.8,4.5-2.1,6.2c0,0-0.1,0-0.1,0.1c-0.5,0.7-1.1,1.2-1.7,1.8c-0.5,0.4-1.1,0.8-1.7,1.1
		c-0.1,0.1-0.2,0.1-0.3,0.2c-0.6,0.3-1.1,0.5-1.7,0.6c-0.1,0-0.3,0.1-0.4,0.1c-0.7,0.2-1.5,0.3-2.2,0.3h-96.9
		c-0.8,0-1.5-0.1-2.3-0.3c-0.1,0-0.3-0.1-0.4-0.1c-0.6-0.2-1.2-0.4-1.7-0.6c-0.1,0-0.2-0.1-0.3-0.2c-1.3-0.7-2.5-1.7-3.4-2.9
		c0,0,0,0-0.1-0.1c-1.4-1.8-2.1-4-2.1-6.2v-34.7c3,2.3,6.6,3.5,10.4,3.6h3.5v10.4c0,1.9,1.5,3.5,3.5,3.5h13.8c1.9,0,3.5-1.5,3.5-3.5
		v-10.4h48.4v10.4c0,1.9,1.5,3.5,3.5,3.5h13.8c1.9,0,3.5-1.5,3.5-3.5v-10.4h3.5c3.9,0,7.5-1.4,10.4-3.6V194.1z M411.9,162.9h6.9v6.9
		h-6.9V162.9z M456.9,156h-13.8v-6.9h13.8V156z M481.1,162.9h6.9v6.9h-6.9V162.9z M498.4,274.6L450,290.8l-48.4-16.2v-44.5
		l47.6,12.3c0.6,0.1,1.2,0.1,1.7,0l47.6-12.3V274.6z M450,235.5l-86.5-22.4l26-6.7c1.6,1.6,3.5,2.8,5.5,3.7c0.4,0.2,0.8,0.2,1.2,0.4
		c0.7,0.2,1.3,0.5,2,0.6c1.1,0.2,2.3,0.3,3.4,0.3h96.9c1.2,0,2.3-0.1,3.4-0.3c0.7-0.1,1.3-0.4,2-0.6c0.4-0.1,0.8-0.2,1.2-0.4
		c2.1-0.9,3.9-2.1,5.5-3.7l26,6.7L450,235.5z"/>
</g>
<rect id="_x3C_Slice_x3E__5_" y="140.5" style="fill:none;" width="899.8" height="459.5"/>
<rect id="_x3C_Slice_x3E__6_" x="899.8" y="140.5" style="fill:none;" width="900" height="459.5"/>
<rect id="_x3C_Slice_x3E__9_" style="fill:none;" width="899.8" height="140.5"/>
<rect id="_x3C_Slice_x3E__10_" x="899.8" style="fill:none;" width="900" height="140.5"/>
</svg>
