<?xml version="1.0" encoding="utf-8"?>
<!-- Generator: Adobe Illustrator 25.0.0, SVG Export Plug-In . SVG Version: 6.00 Build 0)  -->
<svg version="1.1" id="Layer_1" xmlns="http://www.w3.org/2000/svg" xmlns:xlink="http://www.w3.org/1999/xlink" x="0px" y="0px"
	 width="900px" height="600px" viewBox="0 0 900 600" style="enable-background:new 0 0 900 600;" xml:space="preserve">
<linearGradient id="SVGID_1_" gradientUnits="userSpaceOnUse" x1="989.5648" y1="660.4352" x2="1659.0677" y2="-9.0677">
	<stop  offset="0" style="stop-color:#FF1204"/>
	<stop  offset="0.3046" style="stop-color:#FF2812"/>
	<stop  offset="0.9383" style="stop-color:#FF6234"/>
	<stop  offset="1" style="stop-color:#FF6838"/>
</linearGradient>
<rect x="899.8" style="fill:url(#SVGID_1_);" width="900.5" height="600"/>
<linearGradient id="SVGID_2_" gradientUnits="userSpaceOnUse" x1="81.8505" y1="668.1495" x2="788.9607" y2="-38.9607">
	<stop  offset="5.103600e-04" style="stop-color:#F6A200"/>
	<stop  offset="0.2113" style="stop-color:#F7AA01"/>
	<stop  offset="0.5424" style="stop-color:#F9C106"/>
	<stop  offset="0.9504" style="stop-color:#FCE50C"/>
	<stop  offset="1" style="stop-color:#FCEA0D"/>
</linearGradient>
<rect x="-0.2" style="fill:url(#SVGID_2_);" width="900.5" height="600"/>
<linearGradient id="SVGID_3_" gradientUnits="userSpaceOnUse" x1="-814.2923" y1="664.2923" x2="11.9669" y2="-161.9669">
	<stop  offset="7.066580e-03" style="stop-color:#44B444"/>
	<stop  offset="0.2264" style="stop-color:#60BA3C"/>
	<stop  offset="0.5585" style="stop-color:#84C231"/>
	<stop  offset="0.8283" style="stop-color:#9BC62A"/>
	<stop  offset="1" style="stop-color:#A3C828"/>
</linearGradient>
<rect x="-900.2" style="fill:url(#SVGID_3_);" width="900.5" height="600"/>
<g>
	
		<linearGradient id="SVGID_4_" gradientUnits="userSpaceOnUse" x1="-5050.4409" y1="-1952.2523" x2="-5050.4409" y2="-2379.0005" gradientTransform="matrix(-0.2633 0.321 -3.9028 -3.2011 -9023.1787 -5170.6196)">
		<stop  offset="0" style="stop-color:#FFFFFF;stop-opacity:0"/>
		<stop  offset="0.9029" style="stop-color:#FFFFFF;stop-opacity:0.9029"/>
		<stop  offset="1" style="stop-color:#FFFFFF"/>
	</linearGradient>
	<polygon style="opacity:0.53;fill:url(#SVGID_4_);" points="-82,-528.3 -50.8,-571 1599.3,809.3 1568.1,852 	"/>
	
		<linearGradient id="SVGID_5_" gradientUnits="userSpaceOnUse" x1="-5148.2344" y1="-1952.0333" x2="-5148.2344" y2="-2378.3254" gradientTransform="matrix(-0.2633 0.321 -3.9028 -3.2011 -9023.1787 -5170.6196)">
		<stop  offset="0" style="stop-color:#FFFFFF;stop-opacity:0"/>
		<stop  offset="0.9029" style="stop-color:#FFFFFF;stop-opacity:0.9029"/>
		<stop  offset="1" style="stop-color:#FFFFFF"/>
	</linearGradient>
	<polygon style="opacity:0.53;fill:url(#SVGID_5_);" points="-45.7,-577.9 -39,-587.1 1611.1,793.2 1604.3,802.4 	"/>
</g>
<g>
	
		<linearGradient id="SVGID_6_" gradientUnits="userSpaceOnUse" x1="-3882.312" y1="-1835.1064" x2="-3882.312" y2="-2261.8547" gradientTransform="matrix(-0.2633 0.321 -3.9028 -3.2011 -9023.1787 -5170.6196)">
		<stop  offset="0" style="stop-color:#FFFFFF;stop-opacity:0"/>
		<stop  offset="0.9029" style="stop-color:#FFFFFF;stop-opacity:0.9029"/>
		<stop  offset="1" style="stop-color:#FFFFFF"/>
	</linearGradient>
	<polygon style="opacity:0.53;fill:url(#SVGID_6_);" points="-846.8,-528.3 -815.5,-571 834.5,809.3 803.3,852 	"/>
	
		<linearGradient id="SVGID_7_" gradientUnits="userSpaceOnUse" x1="-3980.105" y1="-1834.8876" x2="-3980.105" y2="-2261.1797" gradientTransform="matrix(-0.2633 0.321 -3.9028 -3.2011 -9023.1787 -5170.6196)">
		<stop  offset="0" style="stop-color:#FFFFFF;stop-opacity:0"/>
		<stop  offset="0.9029" style="stop-color:#FFFFFF;stop-opacity:0.9029"/>
		<stop  offset="1" style="stop-color:#FFFFFF"/>
	</linearGradient>
	<polygon style="opacity:0.53;fill:url(#SVGID_7_);" points="-810.5,-577.9 -803.8,-587.1 846.3,793.2 839.5,802.4 	"/>
</g>
<g>
	<path style="fill:#FFFFFF;" d="M172.5,370.1h-14.4v39.1h-9.7v-39.1h-14.2v-7.8h38.2V370.1z"/>
	<path style="fill:#FFFFFF;" d="M190.6,409.9c-5.1,0-9.3-1.6-12.5-4.7c-3.2-3.1-4.8-7.3-4.8-12.5v-0.9c0-3.5,0.7-6.6,2-9.4
		c1.4-2.8,3.3-4.9,5.8-6.4c2.5-1.5,5.3-2.2,8.5-2.2c4.8,0,8.5,1.5,11.3,4.5c2.7,3,4.1,7.3,4.1,12.8v3.8h-22.2
		c0.3,2.3,1.2,4.1,2.7,5.5s3.4,2.1,5.8,2.1c3.6,0,6.4-1.3,8.4-3.9l4.6,5.1c-1.4,2-3.3,3.5-5.7,4.6S193.5,409.9,190.6,409.9z
		 M189.6,381.2c-1.8,0-3.3,0.6-4.5,1.9c-1.1,1.3-1.9,3-2.2,5.4h13v-0.7c0-2.1-0.6-3.7-1.7-4.8C193.1,381.8,191.5,381.2,189.6,381.2z
		"/>
	<path style="fill:#FFFFFF;" d="M224.8,402.3c1.7,0,3.1-0.5,4.2-1.4c1.1-0.9,1.6-2.2,1.7-3.8h8.7c0,2.4-0.7,4.5-1.9,6.5
		s-3,3.5-5.2,4.6s-4.6,1.6-7.3,1.6c-5,0-8.9-1.6-11.8-4.8s-4.3-7.5-4.3-13.1v-0.6c0-5.4,1.4-9.7,4.3-12.9c2.9-3.2,6.8-4.8,11.8-4.8
		c4.4,0,7.9,1.2,10.5,3.7c2.6,2.5,4,5.8,4,9.9h-8.7c0-1.8-0.6-3.3-1.7-4.4c-1.1-1.1-2.5-1.7-4.3-1.7c-2.2,0-3.8,0.8-4.9,2.4
		c-1.1,1.6-1.7,4.1-1.7,7.7v1c0,3.6,0.5,6.2,1.6,7.7S222.5,402.3,224.8,402.3z"/>
	<path style="fill:#FFFFFF;" d="M253.8,378.1c2.5-3,5.6-4.4,9.3-4.4c7.6,0,11.4,4.4,11.5,13.2v22.3h-9.3v-22.1c0-2-0.4-3.5-1.3-4.4
		c-0.9-1-2.3-1.4-4.3-1.4c-2.7,0-4.7,1.1-5.9,3.2v24.8h-9.3v-49.5h9.3V378.1z"/>
	<path style="fill:#FFFFFF;" d="M290.2,374.3l0.3,4c2.5-3.1,5.8-4.7,10-4.7c3.7,0,6.4,1.1,8.2,3.3s2.7,5.4,2.8,9.7v22.5h-9.3v-22.3
		c0-2-0.4-3.4-1.3-4.3s-2.3-1.3-4.3-1.3c-2.6,0-4.6,1.1-5.9,3.4v24.6h-9.3v-34.9H290.2z"/>
	<path style="fill:#FFFFFF;" d="M318.5,365.3c0-1.4,0.5-2.5,1.4-3.4s2.2-1.4,3.8-1.4c1.6,0,2.9,0.5,3.8,1.4s1.4,2.1,1.4,3.4
		c0,1.4-0.5,2.6-1.4,3.5c-1,0.9-2.2,1.4-3.8,1.4s-2.8-0.5-3.8-1.4S318.5,366.7,318.5,365.3z M328.4,409.2H319v-34.9h9.3V409.2z"/>
	<path style="fill:#FFFFFF;" d="M350.6,402.3c1.7,0,3.1-0.5,4.2-1.4c1.1-0.9,1.6-2.2,1.7-3.8h8.7c0,2.4-0.7,4.5-1.9,6.5
		s-3,3.5-5.2,4.6c-2.2,1.1-4.6,1.6-7.3,1.6c-5,0-8.9-1.6-11.8-4.8s-4.3-7.5-4.3-13.1v-0.6c0-5.4,1.4-9.7,4.3-12.9
		c2.9-3.2,6.8-4.8,11.8-4.8c4.4,0,7.9,1.2,10.5,3.7c2.6,2.5,4,5.8,4,9.9h-8.7c0-1.8-0.6-3.3-1.7-4.4c-1.1-1.1-2.5-1.7-4.3-1.7
		c-2.2,0-3.8,0.8-4.9,2.4c-1.1,1.6-1.7,4.1-1.7,7.7v1c0,3.6,0.5,6.2,1.6,7.7S348.3,402.3,350.6,402.3z"/>
	<path style="fill:#FFFFFF;" d="M390.7,409.2c-0.4-0.8-0.7-1.9-0.9-3.1c-2.3,2.5-5.2,3.8-8.8,3.8c-3.4,0-6.2-1-8.5-3
		c-2.2-2-3.4-4.5-3.4-7.5c0-3.7,1.4-6.5,4.1-8.5c2.7-2,6.7-3,11.9-3h4.3v-2c0-1.6-0.4-2.9-1.2-3.9s-2.1-1.5-3.9-1.5
		c-1.6,0-2.8,0.4-3.7,1.1s-1.3,1.8-1.3,3.1h-9.3c0-2,0.6-3.9,1.9-5.6s3-3.1,5.3-4c2.3-1,4.8-1.5,7.7-1.5c4.3,0,7.7,1.1,10.2,3.2
		c2.5,2.2,3.8,5.2,3.8,9.1v15.1c0,3.3,0.5,5.8,1.4,7.5v0.5H390.7z M383,402.7c1.4,0,2.6-0.3,3.8-0.9s2-1.4,2.6-2.5v-6h-3.5
		c-4.7,0-7.1,1.6-7.4,4.8l0,0.5c0,1.2,0.4,2.1,1.2,2.9C380.4,402.4,381.6,402.7,383,402.7z"/>
	<path style="fill:#FFFFFF;" d="M415.7,409.2h-9.3v-49.5h9.3V409.2z"/>
	<path style="fill:#FFFFFF;" d="M438.5,396.6c0-2.2,0.6-4.2,1.8-6c1.2-1.8,3.4-3.9,6.7-6.2c-1.4-1.9-2.5-3.6-3.3-5.3
		s-1.2-3.4-1.2-5.1c0-3.7,1.2-6.6,3.5-8.9c2.3-2.3,5.4-3.4,9.3-3.4c3.5,0,6.4,1,8.6,3.1s3.4,4.7,3.4,7.8c0,3.7-1.9,7-5.7,9.9
		l-3.6,2.6l8.1,9.4c1.3-2.5,1.9-5.2,1.9-8.2h7.9c0,6.1-1.4,11-4.2,14.8l7,8.2h-10.6l-2.4-2.8c-3.5,2.3-7.4,3.4-11.9,3.4
		c-4.6,0-8.4-1.2-11.2-3.7S438.5,400.6,438.5,396.6z M454.3,402.3c2.2,0,4.4-0.6,6.3-1.9l-9.2-10.7l-0.7,0.5
		c-1.9,1.6-2.9,3.5-2.9,5.8c0,1.9,0.6,3.4,1.8,4.5C450.8,401.8,452.4,402.3,454.3,402.3z M450.9,373.9c0,1.6,0.9,3.6,2.8,6.1
		l2.5-1.6c1.3-0.8,2.1-1.6,2.6-2.4c0.5-0.8,0.7-1.7,0.7-2.8s-0.4-2-1.2-2.8c-0.8-0.8-1.8-1.2-3.1-1.2c-1.3,0-2.4,0.4-3.2,1.3
		C451.3,371.3,450.9,372.4,450.9,373.9z"/>
	<path style="fill:#FFFFFF;" d="M500.2,409.2v-46.9h16.4c5.7,0,10,1.1,13,3.3c2.9,2.2,4.4,5.4,4.4,9.6c0,2.3-0.6,4.3-1.8,6.1
		c-1.2,1.8-2.8,3-4.9,3.9c2.4,0.6,4.3,1.8,5.7,3.6c1.4,1.8,2.1,4.1,2.1,6.7c0,4.5-1.4,7.9-4.3,10.2s-7,3.5-12.3,3.5H500.2z
		 M509.8,381.9h7.2c4.9-0.1,7.3-2,7.3-5.8c0-2.1-0.6-3.7-1.9-4.6c-1.2-0.9-3.2-1.4-5.8-1.4h-6.8V381.9z M509.8,388.8v12.7h8.3
		c2.3,0,4.1-0.5,5.3-1.6s1.9-2.6,1.9-4.5c0-4.3-2.2-6.5-6.7-6.5H509.8z"/>
	<path style="fill:#FFFFFF;" d="M562.6,405.7c-2.3,2.8-5.5,4.2-9.5,4.2c-3.7,0-6.6-1.1-8.6-3.2c-2-2.1-3-5.3-3-9.4v-22.8h9.3v22.6
		c0,3.6,1.7,5.5,5,5.5c3.2,0,5.3-1.1,6.5-3.3v-24.7h9.3v34.9h-8.8L562.6,405.7z"/>
	<path style="fill:#FFFFFF;" d="M597.5,399.6c0-1.1-0.6-2-1.7-2.7c-1.1-0.7-2.9-1.2-5.4-1.8c-8.3-1.7-12.4-5.3-12.4-10.6
		c0-3.1,1.3-5.7,3.9-7.8c2.6-2.1,5.9-3.1,10.1-3.1c4.4,0,8,1,10.6,3.1c2.7,2.1,4,4.8,4,8.1h-9.3c0-1.3-0.4-2.4-1.3-3.3
		s-2.2-1.3-4-1.3c-1.6,0-2.8,0.4-3.6,1.1s-1.3,1.6-1.3,2.7c0,1,0.5,1.9,1.5,2.5c1,0.6,2.6,1.2,4.9,1.6c2.3,0.5,4.3,1,5.9,1.6
		c4.9,1.8,7.4,4.9,7.4,9.4c0,3.2-1.4,5.8-4.1,7.7s-6.3,2.9-10.6,2.9c-2.9,0-5.5-0.5-7.8-1.6c-2.3-1-4-2.5-5.3-4.3s-1.9-3.8-1.9-5.9
		h8.8c0.1,1.7,0.7,2.9,1.8,3.8c1.1,0.9,2.7,1.3,4.6,1.3c1.8,0,3.1-0.3,4-1S597.5,400.7,597.5,399.6z"/>
	<path style="fill:#FFFFFF;" d="M612.5,365.3c0-1.4,0.5-2.5,1.4-3.4c0.9-0.9,2.2-1.4,3.8-1.4c1.6,0,2.9,0.5,3.8,1.4s1.4,2.1,1.4,3.4
		c0,1.4-0.5,2.6-1.4,3.5s-2.2,1.4-3.8,1.4s-2.8-0.5-3.8-1.4C612.9,367.9,612.5,366.7,612.5,365.3z M622.4,409.2H613v-34.9h9.3V409.2
		z"/>
	<path style="fill:#FFFFFF;" d="M638.6,374.3l0.3,4c2.5-3.1,5.8-4.7,10-4.7c3.7,0,6.4,1.1,8.2,3.3s2.7,5.4,2.8,9.7v22.5h-9.3v-22.3
		c0-2-0.4-3.4-1.3-4.3s-2.3-1.3-4.3-1.3c-2.6,0-4.6,1.1-5.9,3.4v24.6h-9.3v-34.9H638.6z"/>
	<path style="fill:#FFFFFF;" d="M683,409.9c-5.1,0-9.3-1.6-12.5-4.7c-3.2-3.1-4.8-7.3-4.8-12.5v-0.9c0-3.5,0.7-6.6,2-9.4
		c1.4-2.8,3.3-4.9,5.8-6.4c2.5-1.5,5.3-2.2,8.5-2.2c4.8,0,8.5,1.5,11.3,4.5c2.7,3,4.1,7.3,4.1,12.8v3.8h-22.2
		c0.3,2.3,1.2,4.1,2.7,5.5c1.5,1.4,3.4,2.1,5.8,2.1c3.6,0,6.4-1.3,8.4-3.9l4.6,5.1c-1.4,2-3.3,3.5-5.7,4.6S685.9,409.9,683,409.9z
		 M682,381.2c-1.8,0-3.3,0.6-4.5,1.9s-1.9,3-2.2,5.4h13v-0.7c0-2.1-0.6-3.7-1.7-4.8S684,381.2,682,381.2z"/>
	<path style="fill:#FFFFFF;" d="M721.6,399.6c0-1.1-0.6-2-1.7-2.7c-1.1-0.7-2.9-1.2-5.4-1.8c-8.3-1.7-12.4-5.3-12.4-10.6
		c0-3.1,1.3-5.7,3.9-7.8c2.6-2.1,5.9-3.1,10.1-3.1c4.4,0,8,1,10.6,3.1c2.7,2.1,4,4.8,4,8.1h-9.3c0-1.3-0.4-2.4-1.3-3.3
		s-2.2-1.3-4-1.3c-1.6,0-2.8,0.4-3.6,1.1s-1.3,1.6-1.3,2.7c0,1,0.5,1.9,1.5,2.5c1,0.6,2.6,1.2,4.9,1.6c2.3,0.5,4.3,1,5.9,1.6
		c4.9,1.8,7.4,4.9,7.4,9.4c0,3.2-1.4,5.8-4.1,7.7s-6.3,2.9-10.6,2.9c-2.9,0-5.5-0.5-7.8-1.6c-2.3-1-4-2.5-5.3-4.3s-1.9-3.8-1.9-5.9
		h8.8c0.1,1.7,0.7,2.9,1.8,3.8c1.1,0.9,2.7,1.3,4.6,1.3c1.8,0,3.1-0.3,4-1S721.6,400.7,721.6,399.6z"/>
	<path style="fill:#FFFFFF;" d="M755.5,399.6c0-1.1-0.6-2-1.7-2.7c-1.1-0.7-2.9-1.2-5.4-1.8c-8.3-1.7-12.4-5.3-12.4-10.6
		c0-3.1,1.3-5.7,3.9-7.8c2.6-2.1,5.9-3.1,10.1-3.1c4.4,0,8,1,10.6,3.1c2.7,2.1,4,4.8,4,8.1h-9.3c0-1.3-0.4-2.4-1.3-3.3
		s-2.2-1.3-4-1.3c-1.6,0-2.8,0.4-3.6,1.1s-1.3,1.6-1.3,2.7c0,1,0.5,1.9,1.5,2.5c1,0.6,2.6,1.2,4.9,1.6c2.3,0.5,4.3,1,5.9,1.6
		c4.9,1.8,7.4,4.9,7.4,9.4c0,3.2-1.4,5.8-4.1,7.7s-6.3,2.9-10.6,2.9c-2.9,0-5.5-0.5-7.8-1.6c-2.3-1-4-2.5-5.3-4.3s-1.9-3.8-1.9-5.9
		h8.8c0.1,1.7,0.7,2.9,1.8,3.8c1.1,0.9,2.7,1.3,4.6,1.3c1.8,0,3.1-0.3,4-1S755.5,400.7,755.5,399.6z"/>
	<path style="fill:#FFFFFF;" d="M314.2,441.5l12.1,34l12-34h12.7v46.9h-9.7v-12.8l1-22.1l-12.7,35h-6.6l-12.6-34.9l1,22.1v12.8h-9.7
		v-46.9H314.2z"/>
	<path style="fill:#FFFFFF;" d="M374.8,489.1c-5.1,0-9.3-1.6-12.5-4.7c-3.2-3.1-4.8-7.3-4.8-12.5v-0.9c0-3.5,0.7-6.6,2-9.4
		s3.3-4.9,5.8-6.4c2.5-1.5,5.3-2.2,8.5-2.2c4.8,0,8.5,1.5,11.3,4.5c2.7,3,4.1,7.3,4.1,12.8v3.8h-22.2c0.3,2.3,1.2,4.1,2.7,5.5
		c1.5,1.4,3.4,2.1,5.8,2.1c3.6,0,6.4-1.3,8.4-3.9l4.6,5.1c-1.4,2-3.3,3.5-5.7,4.6S377.7,489.1,374.8,489.1z M373.7,460.4
		c-1.8,0-3.3,0.6-4.5,1.9c-1.1,1.3-1.9,3-2.2,5.4h13v-0.7c0-2.1-0.6-3.7-1.7-4.8C377.2,461,375.7,460.4,373.7,460.4z"/>
	<path style="fill:#FFFFFF;" d="M403,453.5l0.3,4c2.5-3.1,5.8-4.7,10-4.7c3.7,0,6.4,1.1,8.2,3.3c1.8,2.2,2.7,5.4,2.8,9.7v22.5H415
		v-22.3c0-2-0.4-3.4-1.3-4.3c-0.9-0.9-2.3-1.3-4.3-1.3c-2.6,0-4.6,1.1-5.9,3.4v24.6h-9.3v-34.9H403z"/>
	<path style="fill:#FFFFFF;" d="M442.5,445v8.6h6v6.8h-6v17.4c0,1.3,0.2,2.2,0.7,2.8s1.4,0.8,2.8,0.8c1,0,1.9-0.1,2.7-0.2v7.1
		c-1.8,0.6-3.7,0.8-5.6,0.8c-6.5,0-9.9-3.3-10-9.9v-18.8h-5.1v-6.8h5.1V445H442.5z"/>
	<path style="fill:#FFFFFF;" d="M451.3,470.7c0-3.5,0.7-6.5,2-9.2s3.2-4.8,5.8-6.3s5.4-2.2,8.7-2.2c4.7,0,8.5,1.4,11.5,4.3
		s4.6,6.8,5,11.7l0.1,2.4c0,5.3-1.5,9.6-4.5,12.9s-7,4.9-12,4.9s-9-1.6-12-4.8c-3-3.2-4.5-7.6-4.5-13.1V470.7z M460.6,471.3
		c0,3.3,0.6,5.8,1.9,7.6c1.2,1.8,3,2.6,5.3,2.6c2.3,0,4-0.9,5.3-2.6s1.9-4.5,1.9-8.3c0-3.2-0.6-5.8-1.9-7.6
		c-1.3-1.8-3.1-2.7-5.3-2.7c-2.3,0-4,0.9-5.3,2.7C461.2,464.8,460.6,467.6,460.6,471.3z"/>
	<path style="fill:#FFFFFF;" d="M509.6,462.3c-1.3-0.2-2.4-0.3-3.4-0.3c-3.5,0-5.8,1.2-6.9,3.6v22.8H490v-34.9h8.8l0.3,4.2
		c1.9-3.2,4.5-4.8,7.8-4.8c1,0,2,0.1,2.9,0.4L509.6,462.3z"/>
	<path style="fill:#FFFFFF;" d="M514,444.5c0-1.4,0.5-2.5,1.4-3.4c0.9-0.9,2.2-1.4,3.8-1.4c1.6,0,2.9,0.5,3.8,1.4s1.4,2.1,1.4,3.4
		c0,1.4-0.5,2.6-1.4,3.5s-2.2,1.4-3.8,1.4s-2.8-0.5-3.8-1.4C514.5,447.1,514,445.9,514,444.5z M523.9,488.4h-9.3v-34.9h9.3V488.4z"
		/>
	<path style="fill:#FFFFFF;" d="M540.2,453.5l0.3,4c2.5-3.1,5.8-4.7,10-4.7c3.7,0,6.4,1.1,8.2,3.3c1.8,2.2,2.7,5.4,2.8,9.7v22.5
		h-9.3v-22.3c0-2-0.4-3.4-1.3-4.3c-0.9-0.9-2.3-1.3-4.3-1.3c-2.6,0-4.6,1.1-5.9,3.4v24.6h-9.3v-34.9H540.2z"/>
	<path style="fill:#FFFFFF;" d="M567.2,470.7c0-5.3,1.3-9.7,3.8-12.9c2.5-3.3,6-4.9,10.3-4.9c3.8,0,6.8,1.3,8.9,3.9l0.4-3.3h8.4
		v33.7c0,3-0.7,5.7-2.1,8c-1.4,2.3-3.3,4-5.8,5.2s-5.5,1.8-8.8,1.8c-2.6,0-5-0.5-7.5-1.5c-2.4-1-4.3-2.3-5.5-3.9l4.1-5.7
		c2.3,2.6,5.1,3.9,8.4,3.9c2.5,0,4.4-0.7,5.8-2s2.1-3.2,2.1-5.6v-1.9c-2.1,2.4-5,3.6-8.5,3.6c-4.2,0-7.6-1.6-10.2-4.9
		c-2.6-3.3-3.9-7.6-3.9-13V470.7z M576.5,471.4c0,3.2,0.6,5.6,1.9,7.4c1.3,1.8,3,2.7,5.2,2.7c2.8,0,4.9-1.1,6.1-3.2v-14.7
		c-1.2-2.1-3.3-3.2-6-3.2c-2.2,0-4,0.9-5.3,2.7C577.2,465,576.5,467.8,576.5,471.4z"/>
</g>
<g id="SvgjsG1258">
	<path style="fill:#FFFFFF;" d="M376.3,185.1c2.5,0,4.6-2.1,4.6-4.6v-6.9c3.8-94.7,134.3-94.6,138.1,0c0,0,0,6.9,0,6.9
		c0,2.5,2.1,4.6,4.6,4.6c2.5,0,4.6-2.1,4.6-4.6c4-110.5-151.7-118.5-156.5-6.9c0,0,0,6.9,0,6.9C371.7,183.1,373.8,185.1,376.3,185.1
		z"/>
	<path style="fill:#FFFFFF;" d="M485.3,136c3.2,2.5,4.7,8.3,9.1,8.6c3.6,0.1,5.9-4.3,3.8-7.2c-1.9-2.7-4-5.3-6.3-7.7
		C487.8,125.4,481.2,131.7,485.3,136L485.3,136z M418.9,121c-2.7,1.8-5.4,3.9-7.8,6.2c-3.1,2.7-0.9,8.1,3.1,8
		c3.9-0.4,6.3-4.8,9.8-6.5C429,125.3,423.9,117.7,418.9,121L418.9,121z M398.9,142.8c-2.2,4.5-8.5,14.1,0.2,15.2
		c5.3-0.2,5.2-7.3,7.9-10.7C409.8,141.9,401.9,137.5,398.9,142.8z M466.9,114c-5.8-1.7-8.5,6.9-2.7,8.8c3.4,0.7,6.5,3.1,9.9,3.7
		c4.6,0.2,6.4-6.7,2.1-8.7C473.1,116.2,470,115,466.9,114L466.9,114z M437.1,113c-5.2,1.2-4.2,9.1,1.1,9.1c3.1-0.5,6.2-1.3,9.4-1.3
		c2.5-0.1,4.5-2.3,4.3-4.9C450.9,108.8,441.8,112.4,437.1,113L437.1,113z M332.5,263.2c4.4,9,3.9,19-1.4,27.5
		c-1.3,2.1-1.4,4.8-0.2,7c1.2,2.2,3.5,3.6,6.1,3.6h41.1c4.1,0.1,7.6-3.9,6.9-8c-0.5-3.3,0.4-6.9,2.3-10c10.6,2.4,27.6,2.2,25.9-12.8
		c-0.6-3.4-0.5-5.2-0.4-6.2c7.9,0.2,32.4-2.8,27.3-14.9c-3.9-7.7-5.9-15.8-6.1-23.8c3.7-28.3-14.3-55.7-41.9-64.2
		c-5.8-1.7-8.5,6.8-2.8,8.8c21.1,6.6,35.5,25.6,36,47.2c-1.1,11.8,0.3,23.1,5.6,34.1c-6,2.8-13.1,4-19.6,3.5
		c-8.3,0.5-8.5,10.8-7.2,17c0.2,1.8-1,2.7-2.5,2.9c-4.8,0.5-10,0-14.9-1.3c-1.7-0.5-3.5,0.1-4.6,1.4c-4.3,4.8-6.6,10.9-6.4,17h-34.8
		c5.3-11.1,5.5-24.8-1.7-35.3c-12.2-10.3-18.8-25.2-18-40.9c1.2-23.2,19.1-43.1,42.7-47.3c2.5-0.4,4.2-2.8,3.7-5.3
		c-0.4-2.5-2.8-4.2-5.3-3.7C312.7,168.3,294.1,230.4,332.5,263.2L332.5,263.2z M537.8,159.6c-6-0.9-7.6,7.9-1.6,9.1
		c23.6,4.2,41.5,24,42.7,47.3c0.8,15.7-5.8,30.6-18,40.9c-7.2,10.5-7.1,24.2-1.7,35.3h-34.8c0.2-6-2.1-12.2-6.4-17
		c-1.2-1.3-2.9-1.8-4.6-1.4c-4.9,1.3-10.1,1.8-14.9,1.3c-1.6-0.2-2.7-1.2-2.5-2.9c1.4-6.3,1.2-16.6-7.2-17.1
		c-6.5,0.5-13.5-0.8-19.6-3.5c5.3-11,6.7-22.2,5.6-34.1c0.4-21.6,14.9-40.6,36-47.2c5.7-1.9,3.1-10.5-2.8-8.8
		c-27.6,8.5-45.6,35.9-41.9,64.2c-0.2,8-2.2,16-6.2,23.9c-4.9,12,19.6,14.9,27.4,14.7c0.1,0.9,0.2,2.8-0.4,6.2
		c-1.8,14.9,15.3,15.2,25.9,12.8c2,3.1,2.8,6.6,2.4,9.9c-0.8,4.1,2.7,8.1,6.8,8c0,0,41.1,0,41.1,0c5.2,0.2,8.8-6.2,5.9-10.5
		c-5.3-8.6-5.8-18.6-1.4-27.6C605.9,230.4,587.3,168.3,537.8,159.6L537.8,159.6z"/>
	<path style="fill:#FFFFFF;" d="M399.4,208.2c6.1-0.1,6-9.1,0-9.2c0,0-4.6,0-4.6,0c0-5.1-4.1-9.2-9.2-9.2h-18.4
		c-5.1,0-9.2,4.1-9.2,9.2h-4.6c-2.5,0-4.6,2.1-4.6,4.6c0,2.5,2.1,4.6,4.6,4.6h4.6v4.6h-4.6c-2.5,0-4.6,2.1-4.6,4.6
		c0,2.5,2.1,4.6,4.6,4.6h4.6c0,5.1,4.1,9.2,9.2,9.2h4.6v4.6c0,2.5,2.1,4.6,4.6,4.6s4.6-2.1,4.6-4.6v-4.6h4.6c5.1,0,9.2-4.1,9.2-9.2
		h4.6c2.5,0,4.6-2.1,4.6-4.6c0-2.5-2.1-4.6-4.6-4.6h-4.6v-4.6H399.4z M385.6,222c-4.6,0-13.9,0-18.4,0v-23h18.4V222z M505.2,212.8
		c0,12.7,10.3,23,23,23c30.5-1.1,30.5-45,0-46C515.6,189.7,505.2,200.1,505.2,212.8z M542.1,212.8c-0.5,18.2-27.1,18.2-27.6,0
		C514.9,194.5,541.6,194.5,542.1,212.8z"/>
</g>
<rect id="_x3C_Slice_x3E__6_" x="-0.2" y="140.5" style="fill:none;" width="900" height="459.5"/>
<rect id="_x3C_Slice_x3E__7_" x="899.8" y="140.5" style="fill:none;" width="1747.4" height="459.5"/>
<rect id="_x3C_Slice_x3E__10_" x="-0.2" style="fill:none;" width="900" height="140.5"/>
<rect id="_x3C_Slice_x3E__11_" x="899.8" style="fill:none;" width="1747.4" height="140.5"/>
</svg>
