<?xml version="1.0" encoding="utf-8"?>
<!-- Generator: Adobe Illustrator 25.0.0, SVG Export Plug-In . SVG Version: 6.00 Build 0)  -->
<svg version="1.1" id="Layer_1" xmlns="http://www.w3.org/2000/svg" xmlns:xlink="http://www.w3.org/1999/xlink" x="0px" y="0px"
	 width="900px" height="600px" viewBox="0 0 900 600" style="enable-background:new 0 0 900 600;" xml:space="preserve">
<linearGradient id="SVGID_1_" gradientUnits="userSpaceOnUse" x1="985.7077" y1="664.2923" x2="1811.9669" y2="-161.9669">
	<stop  offset="7.066580e-03" style="stop-color:#44B444"/>
	<stop  offset="0.2264" style="stop-color:#60BA3C"/>
	<stop  offset="0.5585" style="stop-color:#84C231"/>
	<stop  offset="0.8283" style="stop-color:#9BC62A"/>
	<stop  offset="1" style="stop-color:#A3C828"/>
</linearGradient>
<rect x="899.8" style="fill:url(#SVGID_1_);" width="900.5" height="600"/>
<linearGradient id="SVGID_2_" gradientUnits="userSpaceOnUse" x1="85.7077" y1="664.2923" x2="805.3816" y2="-55.3816" gradientTransform="matrix(-1 0 0 -1 900 600)">
	<stop  offset="0" style="stop-color:#CEEC0A"/>
	<stop  offset="1" style="stop-color:#0AECA9"/>
</linearGradient>
<polygon style="fill:url(#SVGID_2_);" points="-0.2,0 900.2,0 900.2,600 -0.2,600 "/>
<g>
	
		<linearGradient id="SVGID_3_" gradientUnits="userSpaceOnUse" x1="-719.8871" y1="-1698.4758" x2="-719.8871" y2="-2125.2239" gradientTransform="matrix(-0.2633 0.321 -3.9028 -3.2011 -6749.2085 -5748.4624)">
		<stop  offset="0" style="stop-color:#FFFFFF;stop-opacity:0"/>
		<stop  offset="0.9029" style="stop-color:#FFFFFF;stop-opacity:0.9029"/>
		<stop  offset="1" style="stop-color:#FFFFFF"/>
	</linearGradient>
	<polygon style="opacity:0.53;fill:url(#SVGID_3_);" points="61.3,-528.3 92.5,-571 1742.5,809.3 1711.3,852 	"/>
	
		<linearGradient id="SVGID_4_" gradientUnits="userSpaceOnUse" x1="-817.6802" y1="-1698.2568" x2="-817.6802" y2="-2124.5488" gradientTransform="matrix(-0.2633 0.321 -3.9028 -3.2011 -6749.2085 -5748.4624)">
		<stop  offset="0" style="stop-color:#FFFFFF;stop-opacity:0"/>
		<stop  offset="0.9029" style="stop-color:#FFFFFF;stop-opacity:0.9029"/>
		<stop  offset="1" style="stop-color:#FFFFFF"/>
	</linearGradient>
	<polygon style="opacity:0.53;fill:url(#SVGID_4_);" points="97.5,-577.9 104.2,-587.1 1754.3,793.2 1747.6,802.4 	"/>
</g>
<g>
	<path style="fill:#FFFFFF;" d="M162.2,409.2h-9.7v-46.9h9.7V409.2z"/>
	<path style="fill:#FFFFFF;" d="M179.1,374.3l0.3,4c2.5-3.1,5.8-4.7,10-4.7c3.7,0,6.4,1.1,8.2,3.3s2.7,5.4,2.8,9.7v22.5h-9.3v-22.3
		c0-2-0.4-3.4-1.3-4.3s-2.3-1.3-4.3-1.3c-2.6,0-4.6,1.1-5.9,3.4v24.6h-9.3v-34.9H179.1z"/>
	<path style="fill:#FFFFFF;" d="M218.6,365.8v8.6h6v6.8h-6v17.4c0,1.3,0.2,2.2,0.7,2.8c0.5,0.6,1.4,0.8,2.8,0.8c1,0,1.9-0.1,2.7-0.2
		v7.1c-1.8,0.6-3.7,0.8-5.6,0.8c-6.5,0-9.9-3.3-10-9.9v-18.8h-5.1v-6.8h5.1v-8.6H218.6z"/>
	<path style="fill:#FFFFFF;" d="M245.8,409.9c-5.1,0-9.3-1.6-12.5-4.7c-3.2-3.1-4.8-7.3-4.8-12.5v-0.9c0-3.5,0.7-6.6,2-9.4
		c1.4-2.8,3.3-4.9,5.8-6.4c2.5-1.5,5.3-2.2,8.5-2.2c4.8,0,8.5,1.5,11.3,4.5c2.7,3,4.1,7.3,4.1,12.8v3.8H238c0.3,2.3,1.2,4.1,2.7,5.5
		s3.4,2.1,5.8,2.1c3.6,0,6.4-1.3,8.4-3.9l4.6,5.1c-1.4,2-3.3,3.5-5.7,4.6S248.7,409.9,245.8,409.9z M244.8,381.2
		c-1.8,0-3.3,0.6-4.5,1.9c-1.1,1.3-1.9,3-2.2,5.4h13v-0.7c0-2.1-0.6-3.7-1.7-4.8S246.8,381.2,244.8,381.2z"/>
	<path style="fill:#FFFFFF;" d="M275.3,409.2H266v-49.5h9.3V409.2z"/>
	<path style="fill:#FFFFFF;" d="M292.8,409.2h-9.3v-49.5h9.3V409.2z"/>
	<path style="fill:#FFFFFF;" d="M316.5,409.9c-5.1,0-9.3-1.6-12.5-4.7c-3.2-3.1-4.8-7.3-4.8-12.5v-0.9c0-3.5,0.7-6.6,2-9.4
		c1.4-2.8,3.3-4.9,5.8-6.4c2.5-1.5,5.3-2.2,8.5-2.2c4.8,0,8.5,1.5,11.3,4.5c2.7,3,4.1,7.3,4.1,12.8v3.8h-22.2
		c0.3,2.3,1.2,4.1,2.7,5.5s3.4,2.1,5.8,2.1c3.6,0,6.4-1.3,8.4-3.9l4.6,5.1c-1.4,2-3.3,3.5-5.7,4.6S319.4,409.9,316.5,409.9z
		 M315.5,381.2c-1.8,0-3.3,0.6-4.5,1.9c-1.1,1.3-1.9,3-2.2,5.4h13v-0.7c0-2.1-0.6-3.7-1.7-4.8S317.4,381.2,315.5,381.2z"/>
	<path style="fill:#FFFFFF;" d="M350.6,402.3c1.7,0,3.1-0.5,4.2-1.4s1.6-2.2,1.7-3.8h8.7c0,2.4-0.7,4.5-1.9,6.5s-3,3.5-5.2,4.6
		c-2.2,1.1-4.6,1.6-7.3,1.6c-5,0-8.9-1.6-11.8-4.8s-4.3-7.5-4.3-13.1v-0.6c0-5.4,1.4-9.7,4.3-12.9s6.8-4.8,11.8-4.8
		c4.4,0,7.9,1.2,10.5,3.7c2.6,2.5,4,5.8,4,9.9h-8.7c0-1.8-0.6-3.3-1.7-4.4c-1.1-1.1-2.5-1.7-4.3-1.7c-2.2,0-3.8,0.8-4.9,2.4
		c-1.1,1.6-1.7,4.1-1.7,7.7v1c0,3.6,0.5,6.2,1.6,7.7S348.4,402.3,350.6,402.3z"/>
	<path style="fill:#FFFFFF;" d="M381.7,365.8v8.6h6v6.8h-6v17.4c0,1.3,0.2,2.2,0.7,2.8c0.5,0.6,1.4,0.8,2.8,0.8c1,0,1.9-0.1,2.7-0.2
		v7.1c-1.8,0.6-3.7,0.8-5.6,0.8c-6.5,0-9.9-3.3-10-9.9v-18.8h-5.1v-6.8h5.1v-8.6H381.7z"/>
	<path style="fill:#FFFFFF;" d="M413.7,405.7c-2.3,2.8-5.5,4.2-9.5,4.2c-3.7,0-6.6-1.1-8.6-3.2c-2-2.1-3-5.3-3-9.4v-22.8h9.3v22.6
		c0,3.6,1.7,5.5,5,5.5c3.2,0,5.3-1.1,6.5-3.3v-24.7h9.3v34.9H414L413.7,405.7z"/>
	<path style="fill:#FFFFFF;" d="M450,409.2c-0.4-0.8-0.7-1.9-0.9-3.1c-2.3,2.5-5.2,3.8-8.8,3.8c-3.4,0-6.2-1-8.5-3
		c-2.2-2-3.4-4.5-3.4-7.5c0-3.7,1.4-6.5,4.1-8.5c2.7-2,6.7-3,11.9-3h4.3v-2c0-1.6-0.4-2.9-1.2-3.9s-2.1-1.5-3.9-1.5
		c-1.6,0-2.8,0.4-3.7,1.1s-1.3,1.8-1.3,3.1h-9.3c0-2,0.6-3.9,1.9-5.6s3-3.1,5.3-4c2.3-1,4.8-1.5,7.7-1.5c4.3,0,7.7,1.1,10.2,3.2
		c2.5,2.2,3.8,5.2,3.8,9.1v15.1c0,3.3,0.5,5.8,1.4,7.5v0.5H450z M442.3,402.7c1.4,0,2.6-0.3,3.8-0.9s2-1.4,2.6-2.5v-6h-3.5
		c-4.7,0-7.1,1.6-7.4,4.8l0,0.5c0,1.2,0.4,2.1,1.2,2.9C439.8,402.4,440.9,402.7,442.3,402.7z"/>
	<path style="fill:#FFFFFF;" d="M475,409.2h-9.3v-49.5h9.3V409.2z"/>
	<path style="fill:#FFFFFF;" d="M509.4,392.7v16.5h-9.7v-46.9H518c3.5,0,6.6,0.6,9.3,1.9c2.7,1.3,4.7,3.1,6.2,5.5s2.2,5.1,2.2,8.1
		c0,4.6-1.6,8.2-4.7,10.9c-3.1,2.7-7.5,4-13.1,4H509.4z M509.4,384.8h8.6c2.6,0,4.5-0.6,5.8-1.8c1.3-1.2,2-2.9,2-5.2
		c0-2.3-0.7-4.2-2-5.6s-3.2-2.1-5.6-2.2h-8.9V384.8z"/>
	<path style="fill:#FFFFFF;" d="M561.3,383.1c-1.3-0.2-2.4-0.3-3.4-0.3c-3.5,0-5.8,1.2-6.9,3.6v22.8h-9.3v-34.9h8.8l0.3,4.2
		c1.9-3.2,4.5-4.8,7.8-4.8c1,0,2,0.1,2.9,0.4L561.3,383.1z"/>
	<path style="fill:#FFFFFF;" d="M563.1,391.5c0-3.5,0.7-6.5,2-9.2s3.2-4.8,5.8-6.3s5.4-2.2,8.7-2.2c4.7,0,8.5,1.4,11.5,4.3
		c3,2.9,4.6,6.8,5,11.7l0.1,2.4c0,5.3-1.5,9.6-4.5,12.9c-3,3.2-7,4.8-12,4.8s-9-1.6-12-4.8c-3-3.2-4.5-7.6-4.5-13.1V391.5z
		 M572.5,392.1c0,3.3,0.6,5.8,1.9,7.6s3,2.6,5.3,2.6c2.3,0,4-0.9,5.3-2.6c1.3-1.7,1.9-4.5,1.9-8.3c0-3.2-0.6-5.8-1.9-7.6
		c-1.3-1.8-3.1-2.7-5.3-2.7c-2.3,0-4,0.9-5.3,2.7S572.5,388.4,572.5,392.1z"/>
	<path style="fill:#FFFFFF;" d="M633.3,392.1c0,5.4-1.2,9.7-3.7,12.9c-2.4,3.2-5.7,4.8-9.9,4.8c-3.5,0-6.4-1.2-8.5-3.7v16.4h-9.3
		v-48.3h8.6l0.3,3.4c2.3-2.7,5.2-4.1,8.8-4.1c4.3,0,7.6,1.6,10,4.8c2.4,3.2,3.6,7.6,3.6,13.1V392.1z M624,391.4
		c0-3.2-0.6-5.7-1.7-7.5s-2.8-2.6-5-2.6c-2.9,0-4.9,1.1-6,3.4v14.3c1.1,2.3,3.2,3.4,6.1,3.4C621.8,402.3,624,398.7,624,391.4z"/>
	<path style="fill:#FFFFFF;" d="M655.1,409.9c-5.1,0-9.3-1.6-12.5-4.7c-3.2-3.1-4.8-7.3-4.8-12.5v-0.9c0-3.5,0.7-6.6,2-9.4
		c1.4-2.8,3.3-4.9,5.8-6.4c2.5-1.5,5.3-2.2,8.5-2.2c4.8,0,8.5,1.5,11.3,4.5c2.7,3,4.1,7.3,4.1,12.8v3.8h-22.2
		c0.3,2.3,1.2,4.1,2.7,5.5c1.5,1.4,3.4,2.1,5.8,2.1c3.6,0,6.4-1.3,8.4-3.9l4.6,5.1c-1.4,2-3.3,3.5-5.7,4.6S658,409.9,655.1,409.9z
		 M654.1,381.2c-1.8,0-3.3,0.6-4.5,1.9s-1.9,3-2.2,5.4h13v-0.7c0-2.1-0.6-3.7-1.7-4.8S656,381.2,654.1,381.2z"/>
	<path style="fill:#FFFFFF;" d="M694.3,383.1c-1.3-0.2-2.4-0.3-3.4-0.3c-3.5,0-5.8,1.2-6.9,3.6v22.8h-9.3v-34.9h8.8l0.3,4.2
		c1.9-3.2,4.5-4.8,7.8-4.8c1,0,2,0.1,2.9,0.4L694.3,383.1z"/>
	<path style="fill:#FFFFFF;" d="M711.6,365.8v8.6h6v6.8h-6v17.4c0,1.3,0.2,2.2,0.7,2.8c0.5,0.6,1.4,0.8,2.8,0.8c1,0,1.9-0.1,2.7-0.2
		v7.1c-1.8,0.6-3.7,0.8-5.6,0.8c-6.5,0-9.9-3.3-10-9.9v-18.8h-5.1v-6.8h5.1v-8.6H711.6z"/>
	<path style="fill:#FFFFFF;" d="M735.8,396l6.4-21.7h10l-14,40.3l-0.8,1.8c-2.1,4.6-5.5,6.8-10.3,6.8c-1.4,0-2.7-0.2-4.1-0.6v-7.1
		l1.4,0c1.8,0,3.1-0.3,3.9-0.8c0.9-0.5,1.6-1.4,2-2.7l1.1-2.9l-12.2-35h10L735.8,396z"/>
	<path style="fill:#FFFFFF;" d="M376.3,471.2h-7.7v17.2H359v-46.9h17.4c5.5,0,9.8,1.2,12.8,3.7c3,2.5,4.5,6,4.5,10.5
		c0,3.2-0.7,5.9-2.1,8c-1.4,2.1-3.5,3.8-6.3,5.1l10.2,19.2v0.5h-10.4L376.3,471.2z M368.6,463.4h7.8c2.4,0,4.3-0.6,5.6-1.9
		c1.3-1.2,2-2.9,2-5.1c0-2.2-0.6-4-1.9-5.2c-1.3-1.3-3.2-1.9-5.8-1.9h-7.8V463.4z"/>
	<path style="fill:#FFFFFF;" d="M400.4,444.5c0-1.4,0.5-2.5,1.4-3.4c0.9-0.9,2.2-1.4,3.8-1.4c1.6,0,2.9,0.5,3.8,1.4s1.4,2.1,1.4,3.4
		c0,1.4-0.5,2.6-1.4,3.5s-2.2,1.4-3.8,1.4s-2.8-0.5-3.8-1.4C400.9,447.1,400.4,445.9,400.4,444.5z M410.3,488.4H401v-34.9h9.3V488.4
		z"/>
	<path style="fill:#FFFFFF;" d="M416.6,470.7c0-5.3,1.3-9.7,3.8-12.9c2.5-3.3,6-4.9,10.3-4.9c3.8,0,6.8,1.3,8.9,3.9l0.4-3.3h8.4
		v33.7c0,3-0.7,5.7-2.1,8c-1.4,2.3-3.3,4-5.8,5.2s-5.5,1.8-8.8,1.8c-2.6,0-5-0.5-7.5-1.5c-2.4-1-4.3-2.3-5.5-3.9l4.1-5.7
		c2.3,2.6,5.1,3.9,8.4,3.9c2.5,0,4.4-0.7,5.8-2s2.1-3.2,2.1-5.6v-1.9c-2.1,2.4-5,3.6-8.5,3.6c-4.2,0-7.6-1.6-10.2-4.9
		c-2.6-3.3-3.9-7.6-3.9-13V470.7z M425.9,471.4c0,3.2,0.6,5.6,1.9,7.4c1.3,1.8,3,2.7,5.2,2.7c2.8,0,4.9-1.1,6.1-3.2v-14.7
		c-1.2-2.1-3.3-3.2-6-3.2c-2.2,0-4,0.9-5.3,2.7C426.6,465,425.9,467.8,425.9,471.4z"/>
	<path style="fill:#FFFFFF;" d="M464.7,457.3c2.5-3,5.6-4.4,9.3-4.4c7.6,0,11.4,4.4,11.5,13.2v22.3h-9.3v-22.1c0-2-0.4-3.5-1.3-4.4
		s-2.3-1.4-4.3-1.4c-2.7,0-4.7,1.1-5.9,3.2v24.8h-9.3v-49.5h9.3V457.3z"/>
	<path style="fill:#FFFFFF;" d="M503.7,445v8.6h6v6.8h-6v17.4c0,1.3,0.2,2.2,0.7,2.8s1.4,0.8,2.8,0.8c1,0,1.9-0.1,2.7-0.2v7.1
		c-1.8,0.6-3.7,0.8-5.6,0.8c-6.5,0-9.9-3.3-10-9.9v-18.8h-5.1v-6.8h5.1V445H503.7z"/>
	<path style="fill:#FFFFFF;" d="M533.8,478.8c0-1.1-0.6-2-1.7-2.7c-1.1-0.7-2.9-1.2-5.4-1.8c-8.3-1.7-12.4-5.3-12.4-10.6
		c0-3.1,1.3-5.7,3.9-7.8c2.6-2.1,5.9-3.1,10.1-3.1c4.4,0,8,1,10.6,3.1c2.7,2.1,4,4.8,4,8.1h-9.3c0-1.3-0.4-2.4-1.3-3.3
		s-2.2-1.3-4-1.3c-1.6,0-2.8,0.4-3.6,1.1s-1.3,1.6-1.3,2.7c0,1,0.5,1.9,1.5,2.5c1,0.6,2.6,1.2,4.9,1.6s4.3,1,5.9,1.6
		c4.9,1.8,7.4,4.9,7.4,9.4c0,3.2-1.4,5.8-4.1,7.7s-6.3,2.9-10.6,2.9c-2.9,0-5.5-0.5-7.8-1.6c-2.3-1-4-2.5-5.3-4.3
		c-1.3-1.8-1.9-3.8-1.9-5.9h8.8c0.1,1.7,0.7,2.9,1.8,3.8s2.7,1.3,4.6,1.3c1.8,0,3.1-0.3,4-1S533.8,479.9,533.8,478.8z"/>
</g>
<g id="SvgjsG1191">
	
		<path style="fill:none;stroke:#FFFFFF;stroke-width:6.7371;stroke-linecap:round;stroke-linejoin:round;stroke-miterlimit:43.6364;" d="
		M462.5,233.8c1-11.8-15.2-33-15.2-33l33.3-48.2l32.7,48.2c0,0-16.5,21.2-15.2,33H462.5z"/>
	
		<line style="fill:none;stroke:#FFFFFF;stroke-width:6.7371;stroke-linecap:round;stroke-linejoin:round;stroke-miterlimit:43.6364;" x1="480.7" y1="152.7" x2="480.7" y2="190.7"/>
	
		<path style="fill:none;stroke:#FFFFFF;stroke-width:6.7371;stroke-linecap:round;stroke-linejoin:round;stroke-miterlimit:43.6364;" d="
		M489.8,201.8c0,5.1-4.4,9.4-9.4,9.4s-9.4-4.4-9.4-9.4s4.4-9.4,9.4-9.4S489.8,196.4,489.8,201.8z"/>
	
		<line style="fill:none;stroke:#FFFFFF;stroke-width:6.7371;stroke-linecap:round;stroke-linejoin:round;stroke-miterlimit:43.6364;" x1="489.4" y1="121.3" x2="515.7" y2="121.3"/>
	
		<line style="fill:none;stroke:#FFFFFF;stroke-width:6.7371;stroke-linecap:round;stroke-linejoin:round;stroke-miterlimit:43.6364;" x1="445" y1="121.3" x2="470.2" y2="121.3"/>
	
		<path style="fill:none;stroke:#FFFFFF;stroke-width:6.7371;stroke-linecap:round;stroke-linejoin:round;stroke-miterlimit:43.6364;" d="
		M489.4,122.3c15.2,3.7,26.6,16.5,28.6,32 M442.3,153.3c2.4-15.2,13.8-26.9,28.3-31"/>
	
		<rect x="471.2" y="112.2" style="fill:none;stroke:#FFFFFF;stroke-width:6.7371;stroke-linecap:round;stroke-linejoin:round;stroke-miterlimit:43.6364;" width="17.9" height="17.9"/>
	
		<path style="fill:none;stroke:#FFFFFF;stroke-width:6.7371;stroke-linecap:round;stroke-linejoin:round;stroke-miterlimit:43.6364;" d="
		M527.8,163.4c0,5.1-4,8.8-8.8,8.8c-5.1,0-8.8-4-8.8-8.8c0-5.1,4-8.8,8.8-8.8C523.8,154.7,527.8,158.7,527.8,163.4z M533.2,121.3
		c0,5.1-4,8.8-8.8,8.8c-4.7,0-8.8-4-8.8-8.8c0-4.7,4-8.8,8.8-8.8C529.2,112.6,533.2,116.3,533.2,121.3z M445,121.3
		c0,5.1-4,8.8-8.8,8.8s-8.8-4-8.8-8.8c0-4.7,4-8.8,8.8-8.8S445,116.3,445,121.3z M450.7,163.4c0,5.1-4,8.8-8.8,8.8s-8.8-4-8.8-8.8
		c0-5.1,4-8.8,8.8-8.8S450.7,158.7,450.7,163.4z"/>
	<g>
		
			<path style="fill:none;stroke:#FFFFFF;stroke-width:6.7371;stroke-linecap:round;stroke-linejoin:round;stroke-miterlimit:43.6364;" d="
			M407.2,281.3h54.2v-8.1c0-4.4-3.7-8.1-8.1-8.1h-38.1c-4.4,0-8.1,3.7-8.1,8.1C407.2,273.2,407.2,281.3,407.2,281.3z"/>
		
			<rect x="400.3" y="281.8" style="fill:none;stroke:#FFFFFF;stroke-width:6.7371;stroke-linecap:round;stroke-linejoin:round;stroke-miterlimit:43.6364;" width="68" height="16.2"/>
		
			<path style="fill:none;stroke:#FFFFFF;stroke-width:6.7371;stroke-linecap:round;stroke-linejoin:round;stroke-miterlimit:43.6364;" d="
			M381,209.6c10.4,8.4,19.9,17.9,28.3,28.3l20.9-20.9c-10.4-8.4-19.9-17.9-28.3-28.3L381,209.6z M409.6,247.3L409.6,247.3
			c-2.7-2.7-2.7-6.7,0-9.4l20.5-20.5c2.7-2.7,6.7-2.7,9.4,0l0,0c2.7,2.7,2.7,6.7,0,9.4L419,247.3C416.3,249.7,412,249.7,409.6,247.3
			z"/>
		
			<path style="fill:none;stroke:#FFFFFF;stroke-width:6.7371;stroke-linecap:round;stroke-linejoin:round;stroke-miterlimit:43.6364;" d="
			M371.9,209.6L371.9,209.6c-2.7-2.7-2.7-6.7,0-9.4l20.5-20.5c2.7-2.7,6.7-2.7,9.4,0l0,0c2.7,2.7,2.7,6.7,0,9.4l-20.5,20.5
			C378.6,211.9,374.2,211.9,371.9,209.6z M390.1,218.7l-41.4,38.4c-4,3.7-4,9.8-0.3,13.5l0,0c3.7,3.7,9.8,3.7,13.5-0.3l38.4-41.4"/>
	</g>
	<g>
		
			<path style="fill:none;stroke:#FFFFFF;stroke-width:6.7371;stroke-linecap:round;stroke-linejoin:round;stroke-miterlimit:43.6364;" d="
			M432.8,233.8h105.8c8.8,0,15.8-7.1,15.8-15.8V113.2c0-8.8-7.1-15.8-15.8-15.8h-155 M345.6,136.5v81.2c0,8.8,7.1,15.8,15.8,15.8
			h9.4 M367.8,135.5h-22.2l38.1-38.4v22.6C383.7,128.4,376.6,135.5,367.8,135.5z"/>
	</g>
	
		<line style="fill:none;stroke:#FFFFFF;stroke-width:6.7371;stroke-linecap:round;stroke-linejoin:round;stroke-miterlimit:43.6364;" x1="364.8" y1="149.3" x2="416" y2="149.3"/>
	
		<line style="fill:none;stroke:#FFFFFF;stroke-width:6.7371;stroke-linecap:round;stroke-linejoin:round;stroke-miterlimit:43.6364;" x1="364.8" y1="165.5" x2="385.3" y2="165.5"/>
</g>
<rect id="_x3C_Slice_x3E__4_" x="-3902.9" y="140.5" style="fill:none;" width="4802.9" height="459.5"/>
<rect id="_x3C_Slice_x3E__8_" x="-3902.9" style="fill:none;" width="4802.9" height="140.5"/>
</svg>
