<?xml version="1.0" encoding="utf-8"?>
<!-- Generator: Adobe Illustrator 25.0.0, SVG Export Plug-In . SVG Version: 6.00 Build 0)  -->
<svg version="1.1" id="Layer_1" xmlns="http://www.w3.org/2000/svg" xmlns:xlink="http://www.w3.org/1999/xlink" x="0px" y="0px"
	 width="900px" height="600px" viewBox="0 0 900 600" style="enable-background:new 0 0 900 600;" xml:space="preserve">
<linearGradient id="SVGID_1_" gradientUnits="userSpaceOnUse" x1="-802.5066" y1="652.5066" x2="-3.1539" y2="-146.8461">
	<stop  offset="5.103600e-04" style="stop-color:#011994"/>
	<stop  offset="9.353911e-02" style="stop-color:#032197"/>
	<stop  offset="0.2398" style="stop-color:#08389F"/>
	<stop  offset="0.421" style="stop-color:#115CAC"/>
	<stop  offset="0.6301" style="stop-color:#1D90BF"/>
	<stop  offset="0.8597" style="stop-color:#2CD0D6"/>
	<stop  offset="1" style="stop-color:#36FBE6"/>
</linearGradient>
<rect x="-900.2" style="fill:url(#SVGID_1_);" width="900.5" height="600"/>
<linearGradient id="SVGID_2_" gradientUnits="userSpaceOnUse" x1="89.1362" y1="660.8638" x2="694.6248" y2="55.3752" gradientTransform="matrix(-1 0 0 -1 900 600)">
	<stop  offset="0" style="stop-color:#BA0ADB"/>
	<stop  offset="1" style="stop-color:#580068"/>
</linearGradient>
<polygon style="fill:url(#SVGID_2_);" points="-0.2,0 900.2,0 900.2,600 -0.2,600 "/>
<g>
	
		<linearGradient id="SVGID_3_" gradientUnits="userSpaceOnUse" x1="-5950.4409" y1="-1352.2523" x2="-5950.4409" y2="-1779.0005" gradientTransform="matrix(-0.2633 0.321 -3.9028 -3.2011 -7818.4922 -2361.0271)">
		<stop  offset="0" style="stop-color:#FFFFFF;stop-opacity:0"/>
		<stop  offset="0.9029" style="stop-color:#FFFFFF;stop-opacity:0.9029"/>
		<stop  offset="1" style="stop-color:#FFFFFF"/>
	</linearGradient>
	<polygon style="opacity:0.53;fill:url(#SVGID_3_);" points="-982,71.7 -950.8,29 699.3,1409.3 668.1,1452 	"/>
	
		<linearGradient id="SVGID_4_" gradientUnits="userSpaceOnUse" x1="-6048.2344" y1="-1352.0333" x2="-6048.2344" y2="-1778.3253" gradientTransform="matrix(-0.2633 0.321 -3.9028 -3.2011 -7818.4922 -2361.0271)">
		<stop  offset="0" style="stop-color:#FFFFFF;stop-opacity:0"/>
		<stop  offset="0.9029" style="stop-color:#FFFFFF;stop-opacity:0.9029"/>
		<stop  offset="1" style="stop-color:#FFFFFF"/>
	</linearGradient>
	<polygon style="opacity:0.53;fill:url(#SVGID_4_);" points="-945.7,22.1 -939,12.9 711.1,1393.2 704.3,1402.4 	"/>
</g>
<g>
	
		<linearGradient id="SVGID_5_" gradientUnits="userSpaceOnUse" x1="-7532.3682" y1="-1510.8958" x2="-7532.3682" y2="-1937.644" gradientTransform="matrix(-0.2633 0.321 -3.9028 -3.2011 -7818.4922 -2361.0271)">
		<stop  offset="0" style="stop-color:#FFFFFF;stop-opacity:0"/>
		<stop  offset="0.9029" style="stop-color:#FFFFFF;stop-opacity:0.9029"/>
		<stop  offset="1" style="stop-color:#FFFFFF"/>
	</linearGradient>
	<polygon style="opacity:0.53;fill:url(#SVGID_5_);" points="53.7,71.7 84.9,29 1735,1409.3 1703.8,1452 	"/>
	
		<linearGradient id="SVGID_6_" gradientUnits="userSpaceOnUse" x1="-7630.1616" y1="-1510.6768" x2="-7630.1616" y2="-1936.9689" gradientTransform="matrix(-0.2633 0.321 -3.9028 -3.2011 -7818.4922 -2361.0271)">
		<stop  offset="0" style="stop-color:#FFFFFF;stop-opacity:0"/>
		<stop  offset="0.9029" style="stop-color:#FFFFFF;stop-opacity:0.9029"/>
		<stop  offset="1" style="stop-color:#FFFFFF"/>
	</linearGradient>
	<polygon style="opacity:0.53;fill:url(#SVGID_6_);" points="90,22.1 96.7,12.9 1746.8,1393.2 1740,1402.4 	"/>
</g>
<g>
	<path style="fill:#FFFFFF;" d="M319.3,396.6c-0.4,5-2.2,9-5.6,11.9s-7.8,4.4-13.3,4.4c-6,0-10.7-2-14.2-6.1s-5.2-9.6-5.2-16.7v-2.9
		c0-4.5,0.8-8.5,2.4-11.9c1.6-3.4,3.9-6.1,6.8-7.9s6.4-2.8,10.3-2.8c5.4,0,9.8,1.5,13.1,4.4s5.2,7,5.7,12.2h-9.7
		c-0.2-3-1.1-5.2-2.5-6.6s-3.7-2-6.6-2c-3.2,0-5.6,1.2-7.2,3.5c-1.6,2.3-2.4,5.9-2.5,10.7v3.5c0,5.1,0.8,8.8,2.3,11.1
		c1.5,2.3,4,3.5,7.3,3.5c3,0,5.2-0.7,6.7-2c1.5-1.4,2.3-3.5,2.5-6.3H319.3z"/>
	<path style="fill:#FFFFFF;" d="M323.6,394.5c0-3.5,0.7-6.5,2-9.2c1.3-2.7,3.2-4.8,5.8-6.3c2.5-1.5,5.4-2.2,8.7-2.2
		c4.7,0,8.5,1.4,11.5,4.3c3,2.9,4.6,6.8,5,11.7l0.1,2.4c0,5.3-1.5,9.6-4.5,12.9c-3,3.2-7,4.8-12,4.8s-9-1.6-12-4.8
		s-4.5-7.6-4.5-13.1V394.5z M332.9,395.1c0,3.3,0.6,5.8,1.9,7.6s3,2.6,5.3,2.6c2.3,0,4-0.9,5.3-2.6c1.3-1.7,1.9-4.5,1.9-8.3
		c0-3.2-0.6-5.8-1.9-7.6c-1.3-1.8-3.1-2.7-5.3-2.7c-2.3,0-4,0.9-5.3,2.7S332.9,391.4,332.9,395.1z"/>
	<path style="fill:#FFFFFF;" d="M380.5,395.9h-18.1v-7.5h18.1V395.9z"/>
	<path style="fill:#FFFFFF;" d="M418.3,399.5l4.6-22.2h9l-8.9,34.9h-7.8l-6.6-21.9l-6.6,21.9h-7.8l-8.9-34.9h9l4.5,22.2l6.4-22.2
		h6.7L418.3,399.5z"/>
	<path style="fill:#FFFFFF;" d="M435,394.5c0-3.5,0.7-6.5,2-9.2s3.2-4.8,5.8-6.3s5.4-2.2,8.7-2.2c4.7,0,8.5,1.4,11.5,4.3
		c3,2.9,4.6,6.8,5,11.7l0.1,2.4c0,5.3-1.5,9.6-4.5,12.9s-7,4.8-12,4.8s-9-1.6-12-4.8c-3-3.2-4.5-7.6-4.5-13.1V394.5z M444.3,395.1
		c0,3.3,0.6,5.8,1.9,7.6s3,2.6,5.3,2.6c2.3,0,4-0.9,5.3-2.6c1.3-1.7,1.9-4.5,1.9-8.3c0-3.2-0.6-5.8-1.9-7.6
		c-1.3-1.8-3.1-2.7-5.3-2.7c-2.3,0-4,0.9-5.3,2.7S444.3,391.4,444.3,395.1z"/>
	<path style="fill:#FFFFFF;" d="M493.4,386.1c-1.3-0.2-2.4-0.3-3.4-0.3c-3.5,0-5.8,1.2-6.9,3.6v22.8h-9.3v-34.9h8.8l0.3,4.2
		c1.9-3.2,4.5-4.8,7.8-4.8c1,0,2,0.1,2.9,0.4L493.4,386.1z"/>
	<path style="fill:#FFFFFF;" d="M510.5,398.2l-3.4,3.4v10.6h-9.3v-49.5h9.3v27.4l1.8-2.3l8.9-10.5h11.2l-12.6,14.5l13.7,20.3h-10.7
		L510.5,398.2z"/>
	<path style="fill:#FFFFFF;" d="M533.1,368.3c0-1.4,0.5-2.5,1.4-3.4c0.9-0.9,2.2-1.4,3.8-1.4c1.6,0,2.9,0.5,3.8,1.4s1.4,2.1,1.4,3.4
		c0,1.4-0.5,2.6-1.4,3.5s-2.2,1.4-3.8,1.4s-2.8-0.5-3.8-1.4C533.5,370.9,533.1,369.7,533.1,368.3z M543,412.2h-9.3v-34.9h9.3V412.2z
		"/>
	<path style="fill:#FFFFFF;" d="M559.2,377.3l0.3,4c2.5-3.1,5.8-4.7,10-4.7c3.7,0,6.4,1.1,8.2,3.3c1.8,2.2,2.7,5.4,2.8,9.7v22.5
		h-9.3v-22.3c0-2-0.4-3.4-1.3-4.3s-2.3-1.3-4.3-1.3c-2.6,0-4.6,1.1-5.9,3.4v24.6h-9.3v-34.9H559.2z"/>
	<path style="fill:#FFFFFF;" d="M586.2,394.5c0-5.3,1.3-9.7,3.8-12.9c2.5-3.3,6-4.9,10.3-4.9c3.8,0,6.8,1.3,8.9,3.9l0.4-3.3h8.4
		v33.7c0,3.1-0.7,5.7-2.1,8c-1.4,2.3-3.3,4-5.8,5.2s-5.5,1.8-8.8,1.8c-2.6,0-5-0.5-7.5-1.5c-2.4-1-4.3-2.3-5.5-3.9l4.1-5.7
		c2.3,2.6,5.1,3.9,8.4,3.9c2.5,0,4.4-0.7,5.8-2s2.1-3.2,2.1-5.6v-1.9c-2.1,2.4-5,3.6-8.5,3.6c-4.2,0-7.6-1.6-10.2-4.9
		c-2.6-3.3-3.9-7.6-3.9-13V394.5z M595.6,395.2c0,3.2,0.6,5.6,1.9,7.4c1.3,1.8,3,2.7,5.2,2.7c2.8,0,4.9-1.1,6.1-3.2v-14.7
		c-1.2-2.1-3.3-3.2-6-3.2c-2.2,0-4,0.9-5.3,2.7C596.2,388.8,595.6,391.6,595.6,395.2z"/>
	<path style="fill:#FFFFFF;" d="M386.9,479.1c0-1.8-0.6-3.2-1.9-4.2s-3.6-2-7-3.1s-6-2.2-8-3.2c-5.3-2.9-8-6.8-8-11.6
		c0-2.5,0.7-4.8,2.1-6.8c1.4-2,3.5-3.5,6.2-4.7c2.7-1.1,5.7-1.7,9-1.7c3.4,0,6.3,0.6,9,1.8s4.7,2.9,6.1,5.1c1.5,2.2,2.2,4.7,2.2,7.5
		h-9.7c0-2.1-0.7-3.8-2-5s-3.3-1.8-5.7-1.8c-2.4,0-4.2,0.5-5.5,1.5s-2,2.3-2,3.9c0,1.5,0.8,2.8,2.3,3.8c1.5,1,3.8,2,6.8,2.9
		c5.5,1.7,9.5,3.7,12,6.2s3.8,5.5,3.8,9.2c0,4.1-1.5,7.2-4.6,9.6s-7.2,3.5-12.4,3.5c-3.6,0-6.9-0.7-9.9-2s-5.2-3.1-6.8-5.4
		c-1.6-2.3-2.3-5-2.3-8h9.7c0,5.2,3.1,7.8,9.3,7.8c2.3,0,4.1-0.5,5.4-1.4S386.9,480.8,386.9,479.1z"/>
	<path style="fill:#FFFFFF;" d="M433.9,474.3c0,5.4-1.2,9.7-3.7,12.9c-2.4,3.2-5.7,4.8-9.9,4.8c-3.5,0-6.4-1.2-8.5-3.7v16.4h-9.3
		v-48.3h8.6l0.3,3.4c2.3-2.7,5.2-4.1,8.8-4.1c4.3,0,7.6,1.6,10,4.8c2.4,3.2,3.6,7.6,3.6,13.1V474.3z M424.6,473.6
		c0-3.2-0.6-5.7-1.7-7.5c-1.1-1.8-2.8-2.6-5-2.6c-2.9,0-4.9,1.1-6,3.4v14.3c1.1,2.3,3.2,3.4,6.1,3.4
		C422.4,484.5,424.6,480.9,424.6,473.6z"/>
	<path style="fill:#FFFFFF;" d="M459.9,491.4c-0.4-0.8-0.7-1.9-0.9-3.1c-2.3,2.5-5.2,3.8-8.8,3.8c-3.4,0-6.2-1-8.5-3
		c-2.2-2-3.4-4.5-3.4-7.5c0-3.7,1.4-6.5,4.1-8.5c2.7-2,6.7-3,11.9-3h4.3v-2c0-1.6-0.4-2.9-1.2-3.9s-2.1-1.5-3.9-1.5
		c-1.6,0-2.8,0.4-3.7,1.1c-0.9,0.8-1.3,1.8-1.3,3.1h-9.3c0-2,0.6-3.9,1.9-5.6c1.2-1.7,3-3.1,5.3-4s4.8-1.5,7.7-1.5
		c4.3,0,7.7,1.1,10.2,3.2c2.5,2.2,3.8,5.2,3.8,9.1v15.1c0,3.3,0.5,5.8,1.4,7.5v0.5H459.9z M452.2,484.9c1.4,0,2.6-0.3,3.8-0.9
		s2-1.4,2.6-2.5v-6h-3.5c-4.7,0-7.1,1.6-7.4,4.8l0,0.5c0,1.2,0.4,2.1,1.2,2.9C449.7,484.6,450.8,484.9,452.2,484.9z"/>
	<path style="fill:#FFFFFF;" d="M489.6,484.5c1.7,0,3.1-0.5,4.2-1.4c1.1-0.9,1.6-2.2,1.7-3.8h8.7c0,2.4-0.7,4.5-1.9,6.5
		s-3,3.5-5.2,4.6c-2.2,1.1-4.6,1.6-7.3,1.6c-5,0-8.9-1.6-11.8-4.8s-4.3-7.5-4.3-13.1v-0.6c0-5.4,1.4-9.7,4.3-12.9
		c2.9-3.2,6.8-4.8,11.8-4.8c4.4,0,7.9,1.2,10.5,3.7c2.6,2.5,4,5.8,4,9.9h-8.7c0-1.8-0.6-3.3-1.7-4.4s-2.5-1.7-4.3-1.7
		c-2.2,0-3.8,0.8-4.9,2.4c-1.1,1.6-1.7,4.1-1.7,7.7v1c0,3.6,0.5,6.2,1.6,7.7C485.7,483.8,487.4,484.5,489.6,484.5z"/>
	<path style="fill:#FFFFFF;" d="M525.6,492.1c-5.1,0-9.3-1.6-12.5-4.7c-3.2-3.1-4.8-7.3-4.8-12.5v-0.9c0-3.5,0.7-6.6,2-9.4
		s3.3-4.9,5.8-6.4c2.5-1.5,5.3-2.2,8.5-2.2c4.8,0,8.5,1.5,11.3,4.5c2.7,3,4.1,7.3,4.1,12.8v3.8h-22.2c0.3,2.3,1.2,4.1,2.7,5.5
		c1.5,1.4,3.4,2.1,5.8,2.1c3.6,0,6.4-1.3,8.4-3.9l4.6,5.1c-1.4,2-3.3,3.5-5.7,4.6S528.5,492.1,525.6,492.1z M524.5,463.4
		c-1.8,0-3.3,0.6-4.5,1.9s-1.9,3-2.2,5.4h13v-0.7c0-2.1-0.6-3.7-1.7-4.8C528,464,526.5,463.4,524.5,463.4z"/>
</g>
<g id="SvgjsG1124">
	<path style="fill:#FFFFFF;" d="M432.2,238.1h-67.6c-4.7,0-8.5-3.8-8.5-8.5v-6.2c0-1.3,1.1-2.4,2.4-2.4s2.4,1.1,2.4,2.4v6.2
		c0,2.1,1.7,3.8,3.8,3.8h67.6c2.1,0,3.8-1.7,3.8-3.8v-6.2c0-1.3,1.1-2.4,2.4-2.4s2.4,1.1,2.4,2.4v6.2
		C440.7,234.3,436.9,238.1,432.2,238.1z"/>
	<path style="fill:#FFFFFF;" d="M438.4,226.3h-79.9c-1.1,0-2.1-0.8-2.3-1.9l-6.9-32.7c-0.5-2.2,0.1-4.5,1.7-6.4
		c2.5-3.1,7.2-5.1,12.1-5.1h70.8c4.8,0,9.6,2,12.1,5.1c1.5,1.9,2.1,4.2,1.7,6.4l-6.9,32.7C440.5,225.5,439.5,226.3,438.4,226.3z
		 M360.4,221.6h76.1l6.5-30.9c0.2-0.8-0.1-1.6-0.7-2.4c-1.6-2-5.1-3.3-8.4-3.3H363c-3.4,0-6.8,1.4-8.4,3.3c-0.7,0.8-0.9,1.6-0.7,2.4
		L360.4,221.6z M390.3,174.1c-0.1,0-0.3,0-0.4,0c-0.7-0.1-1.3-0.5-1.6-1.1l-9.9-17.2c-0.6-1.1-0.3-2.6,0.9-3.2
		c1.1-0.6,2.6-0.3,3.2,0.9l8.5,14.8l4-3.3l-8.5-8.7c-0.9-0.9-0.9-2.4,0-3.3c0.9-0.9,2.4-0.9,3.3,0l10.3,10.5
		c0.5,0.5,0.7,1.1,0.7,1.8c0,0.7-0.3,1.3-0.8,1.7l-8.1,6.8C391.4,173.9,390.9,174.1,390.3,174.1z"/>
	<path style="fill:#FFFFFF;" d="M372.3,185c-1.3,0-2.4-1.1-2.4-2.4v-7.2c0-1.3,1.1-2.4,2.4-2.4s2.4,1.1,2.4,2.4v7.2
		C374.7,183.9,373.6,185,372.3,185z M388.1,156.8c-1.3,0-2.4-1.1-2.4-2.4v-9.3c0-1.3,1.1-2.4,2.4-2.4c1.3,0,2.4,1.1,2.4,2.4v9.3
		C390.5,155.8,389.4,156.8,388.1,156.8z M408.7,156.8c-1.3,0-2.4-1.1-2.4-2.4v-8.8c0-1.3,1.1-2.4,2.4-2.4s2.4,1.1,2.4,2.4v8.8
		C411,155.8,410,156.8,408.7,156.8z"/>
	<path style="fill:#FFFFFF;" d="M398.6,151.5C398.6,151.5,398.6,151.5,398.6,151.5c-9.6,0-20.1-7.6-20.4-24.3c0-1.3,1-2.4,2.3-2.4
		c1.3,0,2.4,1,2.4,2.3c0.3,13.5,8.3,19.7,15.7,19.7c0,0,0,0,0,0c7.3,0,15.4-6.1,15.7-19.6c0-1.3,1.1-2.3,2.4-2.3
		c1.3,0,2.3,1.1,2.3,2.4C418.7,143.9,408.2,151.5,398.6,151.5z"/>
	<path style="fill:#FFFFFF;" d="M416.7,129.6c-0.2,0-0.4,0-0.5-0.1c-1-0.2-1.8-1.2-1.8-2.2c-0.2-8.1-2-11.9-3-13.5
		c-8.9,4.8-16.1,2.1-20.9,0.2c-2.4-0.9-3.5-1.2-4.1-1.1c-0.2,8-3.5,14.9-3.6,15.2c-0.4,0.7-1.1,1.2-1.9,1.3c-0.8,0.1-1.6-0.3-2.1-1
		c-5.6-7.7-6-16.3-1.1-24.1c5.6-9.1,17.5-15,27.1-13.5c6.7,1.1,11.4,5.6,13.3,12.8c9.7,8,1.2,24,0.9,24.7
		C418.4,129.2,417.6,129.6,416.7,129.6z M401.4,95.4c-7.2,0-15.7,4.8-19.8,11.5c-2.2,3.5-3.9,8.7-1.4,14.7c0.8-2.6,1.5-6.1,1.5-9.6
		c0-0.5,0.1-0.9,0.4-1.3c2.5-3.8,6.5-2.3,10-0.9c4.8,1.8,10.7,4.1,18.4-0.8c0.7-0.5,1.6-0.5,2.4-0.1c0.7,0.4,3.2,2.1,4.8,8
		c0.5-3.7,0-7.5-3.2-9.9c-0.5-0.3-0.8-0.8-0.9-1.4c-1.3-5.7-4.7-9.2-9.7-10C403,95.5,402.2,95.4,401.4,95.4z M424.4,185
		c-1.3,0-2.4-1.1-2.4-2.4v-7.2c0-1.3,1.1-2.4,2.4-2.4s2.4,1.1,2.4,2.4v7.2C426.8,183.9,425.7,185,424.4,185z M406.4,174.1
		c-0.5,0-1.1-0.2-1.5-0.5l-8.1-6.8c-0.5-0.4-0.8-1-0.8-1.7c0-0.7,0.2-1.3,0.7-1.8l10.3-10.5c0.9-0.9,2.4-0.9,3.3,0
		c0.9,0.9,0.9,2.4,0,3.3l-8.5,8.7l4,3.3l8.5-14.8c0.6-1.1,2.1-1.5,3.2-0.9c1.1,0.6,1.5,2.1,0.9,3.2l-9.9,17.2
		c-0.3,0.6-0.9,1-1.6,1.1C406.7,174,406.6,174.1,406.4,174.1z"/>
	<path style="fill:#FFFFFF;" d="M360.5,185.2c-1.3,0-2.4-1.1-2.4-2.4v-7.2c0-13,10.6-23.5,23.5-23.5h6.4c1.3,0,2.4,1.1,2.4,2.4
		s-1.1,2.4-2.4,2.4h-6.4c-10.4,0-18.8,8.4-18.8,18.8v7.2C362.9,184.1,361.8,185.2,360.5,185.2z M436.2,185.1c-1.3,0-2.4-1.1-2.4-2.4
		v-7.2c0-10.4-8.4-18.8-18.8-18.8h-6.4c-1.3,0-2.4-1.1-2.4-2.4s1.1-2.4,2.4-2.4h6.4c13,0,23.5,10.6,23.5,23.5v7.2
		C438.6,184.1,437.5,185.1,436.2,185.1z"/>
	<path style="fill:#FFFFFF;" d="M383.3,185C383.2,185,383.2,185,383.3,185c-1.3,0-2.4-1.1-2.4-2.4l0.1-3.8l-11.1-20.8
		c-0.6-1.1-0.2-2.6,1-3.2c1.1-0.6,2.6-0.2,3.2,1l11.3,21.4c0.2,0.4,0.3,0.7,0.3,1.1l-0.1,4.4C385.6,183.9,384.5,185,383.3,185z
		 M413.6,185c-1.3,0-2.3-1-2.4-2.3l-0.1-4.4c0-0.4,0.1-0.8,0.3-1.1l11.3-21.3c0.6-1.1,2-1.6,3.2-1c1.1,0.6,1.6,2,1,3.2l-11,20.8
		l0.1,3.8C416,183.9,415,184.9,413.6,185C413.6,185,413.6,185,413.6,185z M535.3,238.1h-67.6c-4.7,0-8.5-3.8-8.5-8.5v-6.2
		c0-1.3,1.1-2.4,2.4-2.4c1.3,0,2.4,1.1,2.4,2.4v6.2c0,2.1,1.7,3.8,3.8,3.8h67.6c2.1,0,3.8-1.7,3.8-3.8v-6.2c0-1.3,1.1-2.4,2.4-2.4
		c1.3,0,2.4,1.1,2.4,2.4v6.2C543.8,234.3,540,238.1,535.3,238.1z"/>
	<path style="fill:#FFFFFF;" d="M541.5,226.3h-79.9c-1.1,0-2.1-0.8-2.3-1.9l-6.9-32.7c-0.5-2.2,0.1-4.5,1.7-6.4
		c2.5-3.1,7.2-5.1,12.1-5.1H537c4.8,0,9.6,2,12.1,5.1c1.5,1.9,2.1,4.2,1.7,6.4l-6.9,32.7C543.6,225.5,542.7,226.3,541.5,226.3z
		 M463.5,221.6h76.1l6.5-30.9c0.2-0.8-0.1-1.6-0.7-2.4c-1.6-2-5.1-3.3-8.4-3.3h-70.8c-3.4,0-6.8,1.4-8.4,3.3
		c-0.7,0.8-0.9,1.6-0.7,2.4L463.5,221.6z M493.5,174.1c-0.1,0-0.3,0-0.4,0c-0.7-0.1-1.3-0.5-1.6-1.1l-9.9-17.2
		c-0.6-1.1-0.3-2.6,0.9-3.2c1.1-0.6,2.6-0.3,3.2,0.9l8.5,14.8l4-3.3l-8.5-8.7c-0.9-0.9-0.9-2.4,0-3.3c0.9-0.9,2.4-0.9,3.3,0
		l10.3,10.5c0.5,0.5,0.7,1.1,0.7,1.8c0,0.7-0.3,1.3-0.8,1.7l-8.1,6.8C494.5,173.9,494,174.1,493.5,174.1z"/>
	<path style="fill:#FFFFFF;" d="M475.5,185c-1.3,0-2.4-1.1-2.4-2.4v-7.2c0-1.3,1.1-2.4,2.4-2.4c1.3,0,2.4,1.1,2.4,2.4v7.2
		C477.8,183.9,476.8,185,475.5,185z M491.2,156.8c-1.3,0-2.4-1.1-2.4-2.4v-9.3c0-1.3,1.1-2.4,2.4-2.4c1.3,0,2.4,1.1,2.4,2.4v9.3
		C493.6,155.8,492.5,156.8,491.2,156.8z M511.8,156.8c-1.3,0-2.4-1.1-2.4-2.4v-8.8c0-1.3,1.1-2.4,2.4-2.4c1.3,0,2.4,1.1,2.4,2.4v8.8
		C514.2,155.8,513.1,156.8,511.8,156.8z"/>
	<path style="fill:#FFFFFF;" d="M501.8,151.5C501.8,151.5,501.8,151.5,501.8,151.5c-9.6,0-20.1-7.6-20.4-24.3c0-1.3,1-2.4,2.3-2.4
		c0,0,0,0,0,0c1.3,0,2.3,1,2.4,2.3c0.3,13.5,8.3,19.7,15.7,19.7c0,0,0,0,0,0c7.3,0,15.4-6.1,15.7-19.6c0-1.3,1.1-2.3,2.4-2.3
		c1.3,0,2.3,1.1,2.3,2.4C521.8,143.9,511.3,151.5,501.8,151.5z"/>
	<path style="fill:#FFFFFF;" d="M519.9,129.6c-0.2,0-0.4,0-0.5-0.1c-1-0.2-1.8-1.2-1.8-2.2c-0.2-8.1-2-11.9-3-13.5
		c-8.9,4.8-16.1,2.1-20.9,0.2c-2.4-0.9-3.5-1.2-4.1-1.1c-0.2,8-3.5,14.9-3.6,15.2c-0.4,0.7-1.1,1.2-1.9,1.3c-0.8,0.1-1.6-0.3-2.1-1
		c-5.6-7.7-6-16.3-1.1-24.1c5.6-9.1,17.5-15,27.1-13.5c6.7,1.1,11.4,5.6,13.3,12.8c9.7,8,1.2,24,0.9,24.7
		C521.5,129.2,520.7,129.6,519.9,129.6z M504.5,95.4c-7.2,0-15.7,4.8-19.8,11.5c-2.2,3.5-3.9,8.7-1.4,14.7c0.8-2.6,1.5-6.1,1.5-9.6
		c0-0.5,0.1-0.9,0.4-1.3c2.5-3.8,6.5-2.3,10-0.9c4.8,1.8,10.7,4.1,18.4-0.8c0.7-0.5,1.6-0.5,2.4-0.1c0.7,0.4,3.2,2.1,4.8,8
		c0.5-3.7,0-7.5-3.2-9.9c-0.5-0.3-0.8-0.8-0.9-1.4c-1.3-5.7-4.7-9.2-9.7-10C506.2,95.5,505.4,95.4,504.5,95.4z M527.6,185
		c-1.3,0-2.4-1.1-2.4-2.4v-7.2c0-1.3,1.1-2.4,2.4-2.4c1.3,0,2.4,1.1,2.4,2.4v7.2C529.9,183.9,528.9,185,527.6,185z M509.6,174.1
		c-0.5,0-1.1-0.2-1.5-0.5l-8.1-6.8c-0.5-0.4-0.8-1-0.8-1.7c0-0.7,0.2-1.3,0.7-1.8l10.3-10.5c0.9-0.9,2.4-0.9,3.3,0
		c0.9,0.9,0.9,2.4,0,3.3l-8.5,8.7l4,3.3l8.5-14.8c0.6-1.1,2.1-1.5,3.2-0.9s1.5,2.1,0.9,3.2l-9.9,17.2c-0.3,0.6-0.9,1-1.6,1.1
		C509.9,174,509.7,174.1,509.6,174.1z"/>
	<path style="fill:#FFFFFF;" d="M463.7,185.2c-1.3,0-2.4-1.1-2.4-2.4v-7.2c0-13,10.6-23.5,23.5-23.5h6.4c1.3,0,2.4,1.1,2.4,2.4
		s-1.1,2.4-2.4,2.4h-6.4c-10.4,0-18.8,8.4-18.8,18.8v7.2C466,184.1,465,185.2,463.7,185.2z M539.4,185.1c-1.3,0-2.4-1.1-2.4-2.4
		v-7.2c0-10.4-8.4-18.8-18.8-18.8h-6.4c-1.3,0-2.4-1.1-2.4-2.4s1.1-2.4,2.4-2.4h6.4c13,0,23.5,10.6,23.5,23.5v7.2
		C541.7,184.1,540.7,185.1,539.4,185.1z"/>
	<path style="fill:#FFFFFF;" d="M486.4,185C486.4,185,486.4,185,486.4,185c-1.3,0-2.4-1.1-2.4-2.4l0.1-3.8l-11.1-20.8
		c-0.6-1.1-0.2-2.6,1-3.2c1.1-0.6,2.6-0.2,3.2,1l11.3,21.4c0.2,0.4,0.3,0.7,0.3,1.1l-0.1,4.4C488.7,183.9,487.7,185,486.4,185z
		 M516.8,185c-1.3,0-2.3-1-2.4-2.3l-0.1-4.4c0-0.4,0.1-0.8,0.3-1.1l11.3-21.3c0.6-1.1,2-1.6,3.2-1c1.1,0.6,1.6,2,1,3.2l-11,20.8
		l0.1,3.8C519.1,183.9,518.1,184.9,516.8,185C516.8,185,516.8,185,516.8,185z"/>
	<g>
		<path style="fill:#FFFFFF;" d="M555.4,253.6H344.6c-1.3,0-2.4-1.1-2.4-2.4v-15.5c0-1.3,1.1-2.4,2.4-2.4h210.9
			c1.3,0,2.4,1.1,2.4,2.4v15.5C557.8,252.6,556.7,253.6,555.4,253.6z M346.9,248.9h206.1v-10.8H346.9V248.9z"/>
	</g>
	<g>
		<path style="fill:#FFFFFF;" d="M380.9,298.3h-22.1c-1.3,0-2.4-1.1-2.4-2.4v-44.7c0-1.3,1.1-2.4,2.4-2.4h22.1
			c1.3,0,2.4,1.1,2.4,2.4V296C383.2,297.3,382.2,298.3,380.9,298.3z M361.2,293.6h17.4v-40h-17.4V293.6z M541.2,298.3h-22.1
			c-1.3,0-2.4-1.1-2.4-2.4v-44.7c0-1.3,1.1-2.4,2.4-2.4h22.1c1.3,0,2.4,1.1,2.4,2.4V296C543.5,297.3,542.5,298.3,541.2,298.3z
			 M521.5,293.6h17.4v-40h-17.4V293.6z"/>
	</g>
	<g>
		<path style="fill:#FFFFFF;" d="M519.1,270.6H380.9c-1.3,0-2.4-1.1-2.4-2.4c0-1.3,1.1-2.4,2.4-2.4h138.2c1.3,0,2.4,1.1,2.4,2.4
			C521.5,269.5,520.4,270.6,519.1,270.6z"/>
	</g>
</g>
<rect id="_x3C_Slice_x3E__15_" x="-0.2" style="fill:none;" width="1747.4" height="600"/>
</svg>
