<?xml version="1.0" encoding="utf-8"?>
<!-- Generator: Adobe Illustrator 25.0.0, SVG Export Plug-In . SVG Version: 6.00 Build 0)  -->
<svg version="1.1" id="Layer_1" xmlns="http://www.w3.org/2000/svg" xmlns:xlink="http://www.w3.org/1999/xlink" x="0px" y="0px"
	 width="900px" height="600px" viewBox="0 0 900 600" style="enable-background:new 0 0 900 600;" xml:space="preserve">
<linearGradient id="SVGID_1_" gradientUnits="userSpaceOnUse" x1="991.7077" y1="658.2923" x2="1601.3044" y2="48.6956">
	<stop  offset="0" style="stop-color:#3397A9"/>
	<stop  offset="0.3563" style="stop-color:#33AABF"/>
	<stop  offset="1" style="stop-color:#33D3F1"/>
</linearGradient>
<rect x="899.8" style="fill:url(#SVGID_1_);" width="900.5" height="600"/>
<linearGradient id="SVGID_2_" gradientUnits="userSpaceOnUse" x1="82.277" y1="667.723" x2="777.5499" y2="-27.5499">
	<stop  offset="0" style="stop-color:#BD2555"/>
	<stop  offset="0.2038" style="stop-color:#CE286A"/>
	<stop  offset="0.4747" style="stop-color:#DF2A7E"/>
	<stop  offset="0.7421" style="stop-color:#EA2B8B"/>
	<stop  offset="1" style="stop-color:#ED2C8F"/>
</linearGradient>
<rect x="-0.2" style="fill:url(#SVGID_2_);" width="900.5" height="600"/>
<g>
	
		<linearGradient id="SVGID_3_" gradientUnits="userSpaceOnUse" x1="-719.8871" y1="-1098.4758" x2="-719.8871" y2="-1525.224" gradientTransform="matrix(-0.2633 0.321 -3.9028 -3.2011 -4407.5376 -3227.792)">
		<stop  offset="0" style="stop-color:#FFFFFF;stop-opacity:0"/>
		<stop  offset="0.9029" style="stop-color:#FFFFFF;stop-opacity:0.9029"/>
		<stop  offset="1" style="stop-color:#FFFFFF"/>
	</linearGradient>
	<polygon style="opacity:0.53;fill:url(#SVGID_3_);" points="61.3,71.7 92.5,29 1742.5,1409.3 1711.3,1452 	"/>
	
		<linearGradient id="SVGID_4_" gradientUnits="userSpaceOnUse" x1="-817.6802" y1="-1098.2568" x2="-817.6802" y2="-1524.5488" gradientTransform="matrix(-0.2633 0.321 -3.9028 -3.2011 -4407.5376 -3227.792)">
		<stop  offset="0" style="stop-color:#FFFFFF;stop-opacity:0"/>
		<stop  offset="0.9029" style="stop-color:#FFFFFF;stop-opacity:0.9029"/>
		<stop  offset="1" style="stop-color:#FFFFFF"/>
	</linearGradient>
	<polygon style="opacity:0.53;fill:url(#SVGID_4_);" points="97.5,22.1 104.2,12.9 1754.3,1393.2 1747.6,1402.4 	"/>
</g>
<rect x="-0.2" style="fill:none;" width="900.2" height="600"/>
<g>
	<path style="fill:#FFFFFF;" d="M162.8,402.5h-17l-3.2,9.7h-10.3l17.5-46.9h9l17.6,46.9h-10.3L162.8,402.5z M148.5,394.7h11.7
		l-5.9-17.6L148.5,394.7z"/>
	<path style="fill:#FFFFFF;" d="M194.6,405.3c1.7,0,3.1-0.5,4.2-1.4c1.1-0.9,1.6-2.2,1.7-3.8h8.7c0,2.4-0.7,4.5-1.9,6.5
		c-1.3,2-3,3.5-5.2,4.6c-2.2,1.1-4.6,1.6-7.3,1.6c-5,0-8.9-1.6-11.8-4.8c-2.9-3.2-4.3-7.5-4.3-13.1v-0.6c0-5.4,1.4-9.7,4.3-12.9
		c2.9-3.2,6.8-4.8,11.8-4.8c4.4,0,7.9,1.2,10.5,3.7s4,5.8,4,9.9h-8.7c0-1.8-0.6-3.3-1.7-4.4c-1.1-1.1-2.5-1.7-4.3-1.7
		c-2.2,0-3.8,0.8-4.9,2.4s-1.7,4.1-1.7,7.7v1c0,3.6,0.5,6.2,1.6,7.7C190.7,404.6,192.4,405.3,194.6,405.3z"/>
	<path style="fill:#FFFFFF;" d="M229.1,405.3c1.7,0,3.1-0.5,4.2-1.4c1.1-0.9,1.6-2.2,1.7-3.8h8.7c0,2.4-0.7,4.5-1.9,6.5
		c-1.3,2-3,3.5-5.2,4.6c-2.2,1.1-4.6,1.6-7.3,1.6c-5,0-8.9-1.6-11.8-4.8c-2.9-3.2-4.3-7.5-4.3-13.1v-0.6c0-5.4,1.4-9.7,4.3-12.9
		c2.9-3.2,6.8-4.8,11.8-4.8c4.4,0,7.9,1.2,10.5,3.7s4,5.8,4,9.9h-8.7c0-1.8-0.6-3.3-1.7-4.4c-1.1-1.1-2.5-1.7-4.3-1.7
		c-2.2,0-3.8,0.8-4.9,2.4s-1.7,4.1-1.7,7.7v1c0,3.6,0.5,6.2,1.6,7.7C225.2,404.6,226.8,405.3,229.1,405.3z"/>
	<path style="fill:#FFFFFF;" d="M265,412.9c-5.1,0-9.3-1.6-12.5-4.7s-4.8-7.3-4.8-12.5v-0.9c0-3.5,0.7-6.6,2-9.4
		c1.4-2.8,3.3-4.9,5.8-6.4c2.5-1.5,5.3-2.2,8.5-2.2c4.8,0,8.5,1.5,11.3,4.5s4.1,7.3,4.1,12.8v3.8h-22.2c0.3,2.3,1.2,4.1,2.7,5.5
		s3.4,2.1,5.8,2.1c3.6,0,6.4-1.3,8.4-3.9l4.6,5.1c-1.4,2-3.3,3.5-5.7,4.6S267.9,412.9,265,412.9z M264,384.2c-1.8,0-3.3,0.6-4.5,1.9
		c-1.1,1.3-1.9,3-2.2,5.4h13v-0.7c0-2.1-0.6-3.7-1.7-4.8C267.5,384.8,265.9,384.2,264,384.2z"/>
	<path style="fill:#FFFFFF;" d="M303.5,402.6c0-1.1-0.6-2-1.7-2.7c-1.1-0.7-2.9-1.2-5.4-1.8c-8.3-1.7-12.4-5.3-12.4-10.6
		c0-3.1,1.3-5.7,3.9-7.8c2.6-2.1,5.9-3.1,10.1-3.1c4.4,0,8,1,10.6,3.1s4,4.8,4,8.1h-9.3c0-1.3-0.4-2.4-1.3-3.3
		c-0.9-0.9-2.2-1.3-4-1.3c-1.6,0-2.8,0.4-3.6,1.1c-0.9,0.7-1.3,1.6-1.3,2.7c0,1,0.5,1.9,1.5,2.5c1,0.6,2.6,1.2,4.9,1.6
		c2.3,0.5,4.3,1,5.9,1.6c4.9,1.8,7.4,4.9,7.4,9.4c0,3.2-1.4,5.8-4.1,7.7c-2.7,2-6.3,2.9-10.6,2.9c-2.9,0-5.5-0.5-7.8-1.6
		s-4-2.5-5.3-4.3c-1.3-1.8-1.9-3.8-1.9-5.9h8.8c0.1,1.7,0.7,2.9,1.8,3.8c1.1,0.9,2.7,1.3,4.6,1.3c1.8,0,3.1-0.3,4-1
		S303.5,403.7,303.5,402.6z"/>
	<path style="fill:#FFFFFF;" d="M337.5,402.6c0-1.1-0.6-2-1.7-2.7c-1.1-0.7-2.9-1.2-5.4-1.8c-8.3-1.7-12.4-5.3-12.4-10.6
		c0-3.1,1.3-5.7,3.9-7.8c2.6-2.1,5.9-3.1,10.1-3.1c4.4,0,8,1,10.6,3.1s4,4.8,4,8.1h-9.3c0-1.3-0.4-2.4-1.3-3.3
		c-0.9-0.9-2.2-1.3-4-1.3c-1.6,0-2.8,0.4-3.6,1.1c-0.9,0.7-1.3,1.6-1.3,2.7c0,1,0.5,1.9,1.5,2.5c1,0.6,2.6,1.2,4.9,1.6
		c2.3,0.5,4.3,1,5.9,1.6c4.9,1.8,7.4,4.9,7.4,9.4c0,3.2-1.4,5.8-4.1,7.7c-2.7,2-6.3,2.9-10.6,2.9c-2.9,0-5.5-0.5-7.8-1.6
		s-4-2.5-5.3-4.3c-1.3-1.8-1.9-3.8-1.9-5.9h8.8c0.1,1.7,0.7,2.9,1.8,3.8c1.1,0.9,2.7,1.3,4.6,1.3c1.8,0,3.1-0.3,4-1
		S337.5,403.7,337.5,402.6z"/>
	<path style="fill:#FFFFFF;" d="M380.1,368.8v8.6h6v6.8h-6v17.4c0,1.3,0.2,2.2,0.7,2.8s1.4,0.8,2.8,0.8c1,0,1.9-0.1,2.7-0.2v7.1
		c-1.8,0.6-3.7,0.8-5.6,0.8c-6.5,0-9.9-3.3-10-9.9v-18.8h-5.1v-6.8h5.1v-8.6H380.1z"/>
	<path style="fill:#FFFFFF;" d="M388.8,394.5c0-3.5,0.7-6.5,2-9.2s3.2-4.8,5.8-6.3s5.4-2.2,8.7-2.2c4.7,0,8.5,1.4,11.5,4.3
		s4.6,6.8,5,11.7l0.1,2.4c0,5.3-1.5,9.6-4.5,12.9c-3,3.2-7,4.9-12,4.9s-9-1.6-12-4.8c-3-3.2-4.5-7.6-4.5-13.1V394.5z M398.2,395.1
		c0,3.3,0.6,5.8,1.9,7.6c1.2,1.8,3,2.6,5.3,2.6c2.3,0,4-0.9,5.3-2.6s1.9-4.5,1.9-8.3c0-3.2-0.6-5.8-1.9-7.6s-3.1-2.7-5.3-2.7
		c-2.3,0-4,0.9-5.3,2.7C398.8,388.6,398.2,391.4,398.2,395.1z"/>
	<path style="fill:#FFFFFF;" d="M482.8,412.2h-9.7l-18.8-30.9v30.9h-9.7v-46.9h9.7l18.9,30.9v-30.9h9.6V412.2z"/>
	<path style="fill:#FFFFFF;" d="M506.7,412.9c-5.1,0-9.3-1.6-12.5-4.7c-3.2-3.1-4.8-7.3-4.8-12.5v-0.9c0-3.5,0.7-6.6,2-9.4
		c1.4-2.8,3.3-4.9,5.8-6.4c2.5-1.5,5.3-2.2,8.5-2.2c4.8,0,8.5,1.5,11.3,4.5c2.7,3,4.1,7.3,4.1,12.8v3.8h-22.2
		c0.3,2.3,1.2,4.1,2.7,5.5c1.5,1.4,3.4,2.1,5.8,2.1c3.6,0,6.4-1.3,8.4-3.9l4.6,5.1c-1.4,2-3.3,3.5-5.7,4.6S509.6,412.9,506.7,412.9z
		 M505.6,384.2c-1.8,0-3.3,0.6-4.5,1.9c-1.1,1.3-1.9,3-2.2,5.4h13v-0.7c0-2.1-0.6-3.7-1.7-4.8S507.6,384.2,505.6,384.2z"/>
	<path style="fill:#FFFFFF;" d="M537.5,368.8v8.6h6v6.8h-6v17.4c0,1.3,0.2,2.2,0.7,2.8s1.4,0.8,2.8,0.8c1,0,1.9-0.1,2.7-0.2v7.1
		c-1.8,0.6-3.7,0.8-5.6,0.8c-6.5,0-9.9-3.3-10-9.9v-18.8h-5.1v-6.8h5.1v-8.6H537.5z"/>
	<path style="fill:#FFFFFF;" d="M578.9,399.5l4.6-22.2h9l-8.9,34.9h-7.8l-6.6-21.9l-6.6,21.9h-7.8l-8.9-34.9h9l4.5,22.2l6.4-22.2
		h6.7L578.9,399.5z"/>
	<path style="fill:#FFFFFF;" d="M595.7,394.5c0-3.5,0.7-6.5,2-9.2s3.2-4.8,5.8-6.3s5.4-2.2,8.7-2.2c4.7,0,8.5,1.4,11.5,4.3
		s4.6,6.8,5,11.7l0.1,2.4c0,5.3-1.5,9.6-4.5,12.9c-3,3.2-7,4.9-12,4.9s-9-1.6-12-4.8c-3-3.2-4.5-7.6-4.5-13.1V394.5z M605,395.1
		c0,3.3,0.6,5.8,1.9,7.6c1.2,1.8,3,2.6,5.3,2.6c2.3,0,4-0.9,5.3-2.6s1.9-4.5,1.9-8.3c0-3.2-0.6-5.8-1.9-7.6s-3.1-2.7-5.3-2.7
		c-2.3,0-4,0.9-5.3,2.7C605.6,388.6,605,391.4,605,395.1z"/>
	<path style="fill:#FFFFFF;" d="M654,386.1c-1.3-0.2-2.4-0.3-3.4-0.3c-3.5,0-5.8,1.2-6.9,3.6v22.8h-9.3v-34.9h8.8l0.3,4.2
		c1.9-3.2,4.5-4.8,7.8-4.8c1,0,2,0.1,2.9,0.4L654,386.1z"/>
	<path style="fill:#FFFFFF;" d="M671.2,398.2l-3.4,3.4v10.6h-9.3v-49.5h9.3v27.4l1.8-2.3l8.9-10.5h11.2l-12.6,14.5l13.7,20.3h-10.7
		L671.2,398.2z"/>
	<path style="fill:#FFFFFF;" d="M708.8,394.5c0-3.5,0.7-6.5,2-9.2s3.2-4.8,5.8-6.3s5.4-2.2,8.7-2.2c4.7,0,8.5,1.4,11.5,4.3
		s4.6,6.8,5,11.7l0.1,2.4c0,5.3-1.5,9.6-4.5,12.9c-3,3.2-7,4.9-12,4.9s-9-1.6-12-4.8c-3-3.2-4.5-7.6-4.5-13.1V394.5z M718.1,395.1
		c0,3.3,0.6,5.8,1.9,7.6c1.2,1.8,3,2.6,5.3,2.6c2.3,0,4-0.9,5.3-2.6s1.9-4.5,1.9-8.3c0-3.2-0.6-5.8-1.9-7.6s-3.1-2.7-5.3-2.7
		c-2.3,0-4,0.9-5.3,2.7C718.7,388.6,718.1,391.4,718.1,395.1z"/>
	<path style="fill:#FFFFFF;" d="M750.1,412.2v-28h-5.2v-6.8h5.2v-3c0-3.9,1.1-6.9,3.4-9.1s5.4-3.2,9.4-3.2c1.3,0,2.9,0.2,4.7,0.6
		l-0.1,7.2c-0.8-0.2-1.7-0.3-2.8-0.3c-3.5,0-5.3,1.6-5.3,4.9v2.8h6.9v6.8h-6.9v28H750.1z"/>
	<path style="fill:#FFFFFF;" d="M369.6,471.1H351v12.6h21.8v7.8h-31.5v-46.9h31.4v7.8H351v11.2h18.6V471.1z"/>
	<path style="fill:#FFFFFF;" d="M391.1,467l5.9-10.4h10l-9.9,17.1l10.3,17.8h-10l-6.2-11l-6.2,11h-10l10.3-17.8l-9.9-17.1h10
		L391.1,467z"/>
	<path style="fill:#FFFFFF;" d="M442.8,474.3c0,5.4-1.2,9.7-3.7,12.9c-2.4,3.2-5.7,4.9-9.9,4.9c-3.5,0-6.4-1.2-8.5-3.7v16.4h-9.3
		v-48.3h8.6l0.3,3.4c2.3-2.7,5.2-4.1,8.8-4.1c4.3,0,7.6,1.6,10,4.8s3.6,7.6,3.6,13.1V474.3z M433.5,473.6c0-3.2-0.6-5.7-1.7-7.5
		s-2.8-2.6-5-2.6c-2.9,0-4.9,1.1-6,3.4v14.3c1.1,2.3,3.2,3.4,6.1,3.4C431.3,484.5,433.5,480.9,433.5,473.6z"/>
	<path style="fill:#FFFFFF;" d="M464.6,492.1c-5.1,0-9.3-1.6-12.5-4.7c-3.2-3.1-4.8-7.3-4.8-12.5v-0.9c0-3.5,0.7-6.6,2-9.4
		c1.4-2.8,3.3-4.9,5.8-6.4c2.5-1.5,5.3-2.2,8.5-2.2c4.8,0,8.5,1.5,11.3,4.5c2.7,3,4.1,7.3,4.1,12.8v3.8h-22.2
		c0.3,2.3,1.2,4.1,2.7,5.5c1.5,1.4,3.4,2.1,5.8,2.1c3.6,0,6.4-1.3,8.4-3.9l4.6,5.1c-1.4,2-3.3,3.5-5.7,4.6S467.5,492.1,464.6,492.1z
		 M463.6,463.4c-1.8,0-3.3,0.6-4.5,1.9c-1.1,1.3-1.9,3-2.2,5.4h13v-0.7c0-2.1-0.6-3.7-1.7-4.8S465.6,463.4,463.6,463.4z"/>
	<path style="fill:#FFFFFF;" d="M503.9,465.3c-1.3-0.2-2.4-0.3-3.4-0.3c-3.5,0-5.8,1.2-6.9,3.6v22.8h-9.3v-34.9h8.8l0.3,4.2
		c1.9-3.2,4.5-4.8,7.8-4.8c1,0,2,0.1,2.9,0.4L503.9,465.3z"/>
	<path style="fill:#FFFFFF;" d="M521.1,448v8.6h6v6.8h-6v17.4c0,1.3,0.2,2.2,0.7,2.8s1.4,0.8,2.8,0.8c1,0,1.9-0.1,2.7-0.2v7.1
		c-1.8,0.6-3.7,0.8-5.6,0.8c-6.5,0-9.9-3.3-10-9.9v-18.8h-5.1v-6.8h5.1V448H521.1z"/>
	<path style="fill:#FFFFFF;" d="M551.1,481.8c0-1.1-0.6-2-1.7-2.7c-1.1-0.7-2.9-1.2-5.4-1.8c-8.3-1.7-12.4-5.3-12.4-10.6
		c0-3.1,1.3-5.7,3.9-7.8c2.6-2.1,5.9-3.1,10.1-3.1c4.4,0,8,1,10.6,3.1c2.7,2.1,4,4.8,4,8.1h-9.3c0-1.3-0.4-2.4-1.3-3.3
		s-2.2-1.3-4-1.3c-1.6,0-2.8,0.4-3.6,1.1s-1.3,1.6-1.3,2.7c0,1,0.5,1.9,1.5,2.5c1,0.6,2.6,1.2,4.9,1.6c2.3,0.5,4.3,1,5.9,1.6
		c4.9,1.8,7.4,4.9,7.4,9.4c0,3.2-1.4,5.8-4.1,7.7s-6.3,2.9-10.6,2.9c-2.9,0-5.5-0.5-7.8-1.6c-2.3-1-4-2.5-5.3-4.3
		c-1.3-1.8-1.9-3.8-1.9-5.9h8.8c0.1,1.7,0.7,2.9,1.8,3.8s2.7,1.3,4.6,1.3c1.8,0,3.1-0.3,4-1S551.1,482.9,551.1,481.8z"/>
</g>
<g id="SvgjsG1020">
	<path style="fill-rule:evenodd;clip-rule:evenodd;fill:#FFFFFF;" d="M449.9,105.7c-49.4,0-89.6,40.2-89.6,89.6
		c0,49.4,40.2,89.6,89.6,89.6c49.4,0,89.6-40.2,89.6-89.6S499.3,105.7,449.9,105.7L449.9,105.7z M449.9,289.2
		c-25.1,0-48.7-9.8-66.4-27.5C365.8,244,356,220.4,356,195.3c0-25.1,9.8-48.7,27.5-66.4c17.7-17.7,41.3-27.5,66.4-27.5
		c25.1,0,48.7,9.8,66.4,27.5c17.7,17.7,27.5,41.3,27.5,66.4c0,25.1-9.8,48.7-27.5,66.4C498.5,279.4,475,289.2,449.9,289.2
		L449.9,289.2z"/>
	<path style="fill-rule:evenodd;clip-rule:evenodd;fill:#FFFFFF;" d="M495.8,249.1c-0.3,0-0.6-0.1-0.8-0.2c-1.1-0.5-1.6-1.7-1.2-2.8
		c6.2-15,9.5-32.6,9.5-50.9c0-20.8-4.4-41-12.3-57c-10.2-20.7-25.2-32.6-41.2-32.6c-14.3,0-27.8,9.5-38,26.7c-0.6,1-1.9,1.4-2.9,0.8
		c-1-0.6-1.4-1.9-0.8-2.9c11-18.6,25.8-28.8,41.7-28.8c17.6,0,34,12.7,45,35c8.2,16.6,12.7,37.5,12.7,58.9c0,18.8-3.4,37-9.8,52.5
		C497.5,248.6,496.7,249.1,495.8,249.1L495.8,249.1z M449.9,289.2c-17.6,0-34-12.7-45-35c-8.2-16.6-12.7-37.5-12.7-58.9
		c0-18.8,3.4-37,9.8-52.5c0.5-1.1,1.7-1.6,2.8-1.2c1.1,0.5,1.6,1.7,1.2,2.8c-6.2,15-9.5,32.6-9.5,50.9c0,20.8,4.4,41,12.3,57
		c10.2,20.7,25.3,32.6,41.2,32.6c14.3,0,27.8-9.5,38-26.7c0.6-1,1.9-1.4,2.9-0.8c1,0.6,1.4,1.9,0.8,2.9
		C480.6,279,465.8,289.2,449.9,289.2L449.9,289.2z"/>
	<path style="fill-rule:evenodd;clip-rule:evenodd;fill:#FFFFFF;" d="M408.9,197.5h-50.8c-1.2,0-2.2-1-2.2-2.1c0-1.2,1-2.1,2.1-2.1
		h50.8c1.2,0,2.1,1,2.1,2.1C411,196.5,410.1,197.5,408.9,197.5L408.9,197.5z M541.6,197.5h-50.8c-1.2,0-2.2-1-2.2-2.1
		c0-1.2,1-2.1,2.1-2.1h50.8c1.2,0,2.1,1,2.1,2.1C543.8,196.5,542.8,197.5,541.6,197.5L541.6,197.5z M400,138.3c-0.1,0-0.3,0-0.4,0
		c-5.9-1.2-11.6-2.5-16.8-4.1c-1.1-0.3-1.8-1.5-1.4-2.7c0.3-1.1,1.5-1.8,2.7-1.4c5.1,1.5,10.6,2.9,16.4,4c1.2,0.2,1.9,1.4,1.7,2.5
		C401.9,137.6,401,138.3,400,138.3L400,138.3z M449.9,142.8c-12.6,0-24.9-0.8-36.6-2.4c-1.2-0.2-2-1.2-1.8-2.4
		c0.2-1.2,1.2-2,2.4-1.8c11.5,1.5,23.6,2.3,36,2.3c14.9,0,29.3-1.1,42.8-3.3c0.6-0.1,1.1-0.2,1.7-0.3c7.6-1.3,14.8-3,21.4-4.9
		c1.1-0.3,2.3,0.3,2.7,1.4c0.3,1.1-0.3,2.3-1.4,2.7c-6.7,2-14.1,3.7-21.9,5c-0.6,0.1-1.2,0.2-1.7,0.3
		C479.6,141.7,465,142.8,449.9,142.8L449.9,142.8z M383.4,260.7c-0.9,0-1.8-0.6-2.1-1.5c-0.3-1.1,0.3-2.3,1.4-2.7
		c6.7-2,14.1-3.7,21.9-5c0.6-0.1,1.2-0.2,1.7-0.3c13.7-2.2,28.3-3.4,43.4-3.4c12.6,0,24.9,0.8,36.6,2.4c1.2,0.2,2,1.2,1.8,2.4
		c-0.2,1.2-1.2,2-2.4,1.8c-11.5-1.5-23.6-2.3-36-2.3c-14.9,0-29.3,1.1-42.8,3.3c-0.6,0.1-1.1,0.2-1.7,0.3c-7.6,1.3-14.8,3-21.4,4.9
		C383.8,260.7,383.6,260.7,383.4,260.7L383.4,260.7z M516.3,260.7c-0.2,0-0.4,0-0.6-0.1c-5.1-1.5-10.6-2.9-16.4-4
		c-1.2-0.2-1.9-1.4-1.7-2.5c0.2-1.2,1.4-1.9,2.5-1.7c5.9,1.2,11.6,2.5,16.8,4.1c1.1,0.3,1.8,1.5,1.4,2.7
		C518.1,260.1,517.3,260.7,516.3,260.7L516.3,260.7z"/>
	<path style="fill-rule:evenodd;clip-rule:evenodd;fill:#FFFFFF;" d="M406.8,132.6c-2.6,0-4.7,2.1-4.7,4.7c0,2.6,2.1,4.7,4.7,4.7
		c2.6,0,4.7-2.1,4.7-4.7C411.5,134.7,409.4,132.6,406.8,132.6z M406.8,146.4c-5,0-9-4.1-9-9c0-5,4.1-9,9-9c5,0,9,4.1,9,9
		C415.8,142.3,411.8,146.4,406.8,146.4L406.8,146.4z M493,248.5c-2.6,0-4.7,2.1-4.7,4.7c0,2.6,2.1,4.7,4.7,4.7
		c2.6,0,4.7-2.1,4.7-4.7C497.7,250.7,495.6,248.5,493,248.5z M493,262.3c-5,0-9-4.1-9-9c0-5,4.1-9,9-9c5,0,9,4.1,9,9
		C502,258.3,498,262.3,493,262.3z M449.9,156.5c-1.2,0-2.2-1-2.2-2.1l0-50.8c0-1.2,1-2.1,2.1-2.1c1.2,0,2.1,1,2.1,2.1l0,50.8
		C452,155.5,451.1,156.5,449.9,156.5L449.9,156.5z M449.9,289.2c-1.2,0-2.2-1-2.2-2.1l0-50.8c0-1.2,1-2.1,2.1-2.1
		c1.2,0,2.1,1,2.1,2.1l0,50.8C452,288.2,451.1,289.2,449.9,289.2L449.9,289.2z"/>
	<path style="fill-rule:evenodd;clip-rule:evenodd;fill:#FFFFFF;" d="M449.9,156.5c-21.4,0-38.8,17.4-38.8,38.8
		c0,21.4,17.4,38.8,38.8,38.8c21.4,0,38.8-17.4,38.8-38.8C488.7,173.9,471.3,156.5,449.9,156.5z M449.9,238.4
		c-23.8,0-43.1-19.3-43.1-43.1c0-23.8,19.3-43.1,43.1-43.1c23.8,0,43.1,19.3,43.1,43.1C493,219.1,473.7,238.4,449.9,238.4
		L449.9,238.4z"/>
	<path style="fill-rule:evenodd;clip-rule:evenodd;fill:#FFFFFF;" d="M459.5,183.5c-1.2,0-2.2,1-2.2,2.1c0,1.2,1,2.2,2.1,2.2
		c1.2,0,2.1-1,2.1-2.2C461.7,184.5,460.7,183.5,459.5,183.5z M459.5,192.1c-3.6,0-6.5-2.9-6.5-6.4c0-3.6,2.9-6.4,6.4-6.4
		c3.6,0,6.4,2.9,6.4,6.4C466,189.2,463.1,192.1,459.5,192.1L459.5,192.1z"/>
	<path style="fill-rule:evenodd;clip-rule:evenodd;fill:#FFFFFF;" d="M449.4,202.7L449.4,202.7L449.4,202.7z M429.3,212.1l-0.5,4.3
		l4-0.3l0.8-0.8l0.6-3.4c0.2-0.9,0.9-1.6,1.8-1.8l2.3-0.3l0.4-2.5c0.2-0.9,0.9-1.6,1.8-1.8l2.3-0.3l0.4-2.5c0.2-0.9,0.9-1.6,1.8-1.8
		l3.2-0.4l4-3.9c0.6-0.6,1.6-0.8,2.4-0.4c4.4,2,9.6,1,13-2.4c4.5-4.5,4.5-11.9,0-16.4c-4.5-4.5-11.9-4.5-16.4,0
		c-3.4,3.4-4.4,8.7-2.3,13.1c0.4,0.8,0.2,1.8-0.4,2.4L429.3,212.1L429.3,212.1z M426.5,220.8c-0.6,0-1.1-0.2-1.5-0.7
		c-0.4-0.5-0.7-1.1-0.6-1.7l0.8-7.6c0.1-0.5,0.3-0.9,0.6-1.3l18.8-18.6c-2-5.7-0.6-12.2,3.8-16.5c6.2-6.2,16.3-6.2,22.5,0
		c6.2,6.2,6.2,16.3,0,22.5c-4.3,4.3-10.7,5.7-16.4,3.8l-3.5,3.5c-0.3,0.3-0.8,0.5-1.2,0.6l-2.3,0.3l-0.4,2.5
		c-0.2,0.9-0.9,1.6-1.8,1.8l-2.3,0.3l-0.4,2.5c-0.2,0.9-0.9,1.6-1.8,1.8l-2.3,0.3l-0.4,2.5c-0.1,0.4-0.3,0.8-0.6,1.2l-1.8,1.8
		c-0.4,0.4-0.8,0.6-1.4,0.6l-7.3,0.5C426.6,220.8,426.5,220.8,426.5,220.8L426.5,220.8z"/>
	<rect x="345.3" y="90.7" style="fill:none;" width="209.2" height="209.2"/>
</g>
<rect id="_x3C_Slice_x3E__12_" x="-3902.9" style="fill:none;" width="4802.9" height="600"/>
</svg>
