<?xml version="1.0" encoding="utf-8"?>
<!-- Generator: Adobe Illustrator 25.0.0, SVG Export Plug-In . SVG Version: 6.00 Build 0)  -->
<svg version="1.1" id="Layer_1" xmlns="http://www.w3.org/2000/svg" xmlns:xlink="http://www.w3.org/1999/xlink" x="0px" y="0px"
	 width="900px" height="600px" viewBox="0 0 900 600" style="enable-background:new 0 0 900 600;" xml:space="preserve">
<linearGradient id="SVGID_1_" gradientUnits="userSpaceOnUse" x1="91.7077" y1="658.2923" x2="701.3044" y2="48.6956">
	<stop  offset="0" style="stop-color:#3397A9"/>
	<stop  offset="0.3563" style="stop-color:#33AABF"/>
	<stop  offset="1" style="stop-color:#33D3F1"/>
</linearGradient>
<rect x="-0.2" style="fill:url(#SVGID_1_);" width="900.5" height="600"/>
<linearGradient id="SVGID_2_" gradientUnits="userSpaceOnUse" x1="997.4934" y1="652.5066" x2="1796.8461" y2="-146.8461">
	<stop  offset="5.103600e-04" style="stop-color:#011994"/>
	<stop  offset="9.353911e-02" style="stop-color:#032197"/>
	<stop  offset="0.2398" style="stop-color:#08389F"/>
	<stop  offset="0.421" style="stop-color:#115CAC"/>
	<stop  offset="0.6301" style="stop-color:#1D90BF"/>
	<stop  offset="0.8597" style="stop-color:#2CD0D6"/>
	<stop  offset="1" style="stop-color:#36FBE6"/>
</linearGradient>
<rect x="899.8" style="fill:url(#SVGID_2_);" width="900.5" height="600"/>
<linearGradient id="SVGID_3_" gradientUnits="userSpaceOnUse" x1="-817.723" y1="667.723" x2="-122.4501" y2="-27.5499">
	<stop  offset="0" style="stop-color:#BD2555"/>
	<stop  offset="0.2038" style="stop-color:#CE286A"/>
	<stop  offset="0.4747" style="stop-color:#DF2A7E"/>
	<stop  offset="0.7421" style="stop-color:#EA2B8B"/>
	<stop  offset="1" style="stop-color:#ED2C8F"/>
</linearGradient>
<rect x="-900.2" style="fill:url(#SVGID_3_);" width="900.5" height="600"/>
<g>
	
		<linearGradient id="SVGID_4_" gradientUnits="userSpaceOnUse" x1="-1619.8871" y1="-1098.4758" x2="-1619.8871" y2="-1525.224" gradientTransform="matrix(-0.2633 0.321 -3.9028 -3.2011 -5544.5225 -2938.8704)">
		<stop  offset="0" style="stop-color:#FFFFFF;stop-opacity:0"/>
		<stop  offset="0.9029" style="stop-color:#FFFFFF;stop-opacity:0.9029"/>
		<stop  offset="1" style="stop-color:#FFFFFF"/>
	</linearGradient>
	<polygon style="opacity:0.53;fill:url(#SVGID_4_);" points="-838.7,71.7 -807.5,29 842.5,1409.3 811.3,1452 	"/>
	
		<linearGradient id="SVGID_5_" gradientUnits="userSpaceOnUse" x1="-1717.6802" y1="-1098.2568" x2="-1717.6802" y2="-1524.5488" gradientTransform="matrix(-0.2633 0.321 -3.9028 -3.2011 -5544.5225 -2938.8704)">
		<stop  offset="0" style="stop-color:#FFFFFF;stop-opacity:0"/>
		<stop  offset="0.9029" style="stop-color:#FFFFFF;stop-opacity:0.9029"/>
		<stop  offset="1" style="stop-color:#FFFFFF"/>
	</linearGradient>
	<polygon style="opacity:0.53;fill:url(#SVGID_5_);" points="-802.5,22.1 -795.8,12.9 854.3,1393.2 847.6,1402.4 	"/>
</g>
<g>
	
		<linearGradient id="SVGID_6_" gradientUnits="userSpaceOnUse" x1="-4150.4409" y1="-1352.2523" x2="-4150.4409" y2="-1779.0005" gradientTransform="matrix(-0.2633 0.321 -3.9028 -3.2011 -5544.5225 -2938.8704)">
		<stop  offset="0" style="stop-color:#FFFFFF;stop-opacity:0"/>
		<stop  offset="0.9029" style="stop-color:#FFFFFF;stop-opacity:0.9029"/>
		<stop  offset="1" style="stop-color:#FFFFFF"/>
	</linearGradient>
	<polygon style="opacity:0.53;fill:url(#SVGID_6_);" points="818,71.7 849.2,29 2499.3,1409.3 2468.1,1452 	"/>
	
		<linearGradient id="SVGID_7_" gradientUnits="userSpaceOnUse" x1="-4248.2344" y1="-1352.0333" x2="-4248.2344" y2="-1778.3253" gradientTransform="matrix(-0.2633 0.321 -3.9028 -3.2011 -5544.5225 -2938.8704)">
		<stop  offset="0" style="stop-color:#FFFFFF;stop-opacity:0"/>
		<stop  offset="0.9029" style="stop-color:#FFFFFF;stop-opacity:0.9029"/>
		<stop  offset="1" style="stop-color:#FFFFFF"/>
	</linearGradient>
	<polygon style="opacity:0.53;fill:url(#SVGID_7_);" points="854.3,22.1 861,12.9 2511.1,1393.2 2504.3,1402.4 	"/>
</g>
<g>
	
		<linearGradient id="SVGID_8_" gradientUnits="userSpaceOnUse" x1="-2982.312" y1="-1235.1064" x2="-2982.312" y2="-1661.8547" gradientTransform="matrix(-0.2633 0.321 -3.9028 -3.2011 -5544.5225 -2938.8704)">
		<stop  offset="0" style="stop-color:#FFFFFF;stop-opacity:0"/>
		<stop  offset="0.9029" style="stop-color:#FFFFFF;stop-opacity:0.9029"/>
		<stop  offset="1" style="stop-color:#FFFFFF"/>
	</linearGradient>
	<polygon style="opacity:0.53;fill:url(#SVGID_8_);" points="53.2,71.7 84.5,29 1734.5,1409.3 1703.3,1452 	"/>
	
		<linearGradient id="SVGID_9_" gradientUnits="userSpaceOnUse" x1="-3080.105" y1="-1234.8876" x2="-3080.105" y2="-1661.1796" gradientTransform="matrix(-0.2633 0.321 -3.9028 -3.2011 -5544.5225 -2938.8704)">
		<stop  offset="0" style="stop-color:#FFFFFF;stop-opacity:0"/>
		<stop  offset="0.9029" style="stop-color:#FFFFFF;stop-opacity:0.9029"/>
		<stop  offset="1" style="stop-color:#FFFFFF"/>
	</linearGradient>
	<polygon style="opacity:0.53;fill:url(#SVGID_9_);" points="89.5,22.1 96.2,12.9 1746.3,1393.2 1739.5,1402.4 	"/>
</g>
<g id="SvgjsG1052_1_">
	<path style="fill:#FFFFFF;" d="M450.1,291.8h-7.9v-14.5c0-1.6-1.2-3-2.8-3.2c-6.8-0.9-13.5-2.7-19.8-5.3c-1.5-0.6-3.2,0-4,1.4
		l-7.2,12.5l-13.7-7.9l7.2-12.5c0.8-1.4,0.5-3.2-0.8-4.2c-5.4-4.2-10.3-9.1-14.5-14.5c-1-1.3-2.8-1.6-4.2-0.8l-12.5,7.2l-7.9-13.7
		l12.5-7.2c1.4-0.8,2-2.5,1.4-4c-2.6-6.4-4.4-13-5.3-19.8c-0.2-1.6-1.6-2.8-3.2-2.8h-14.4v-15.8h14.5c1.6,0,3-1.2,3.2-2.8
		c0.9-6.8,2.7-13.5,5.2-19.9c0.6-1.5,0-3.2-1.4-4l-12.5-7.2l7.9-13.7l12.5,7.2c1.4,0.8,3.2,0.5,4.2-0.8c4.2-5.4,9.1-10.3,14.5-14.5
		c1.3-1,1.6-2.8,0.8-4.2l-7.2-12.5l13.7-7.9l7.2,12.5c0.8,1.4,2.5,2,4,1.4c6.4-2.6,13-4.4,19.8-5.2c1.6-0.2,2.8-1.6,2.8-3.2V97.2
		h7.9c1.8,0,3.2-1.5,3.2-3.2s-1.5-3.2-3.2-3.2h-11.2c-1.8,0-3.2,1.5-3.2,3.2v14.9c-5.4,0.9-10.8,2.3-16,4.2l-7.4-12.9
		c-0.9-1.5-2.9-2.1-4.4-1.2c0,0,0,0,0,0l-19.3,11.1c-1.5,0.9-2.1,2.9-1.2,4.4l7.5,12.9c-4.3,3.5-8.2,7.4-11.7,11.7l-12.9-7.5
		c-1.5-0.9-3.5-0.4-4.4,1.2c0,0,0,0,0,0l-11.2,19.3c-0.9,1.6-0.4,3.5,1.2,4.4c0,0,0,0,0,0l12.9,7.4c-1.9,5.2-3.3,10.5-4.2,16h-14.9
		c-1.8,0-3.2,1.5-3.2,3.2v22.3c0,1.8,1.5,3.2,3.2,3.2h14.9c0.9,5.5,2.3,10.8,4.2,16l-12.9,7.4c-1.6,0.9-2.1,2.9-1.2,4.4c0,0,0,0,0,0
		l11.2,19.3c0.4,0.7,1.1,1.3,2,1.5c0.8,0.2,1.7,0.1,2.5-0.3l12.9-7.5c3.5,4.3,7.4,8.2,11.7,11.7l-7.5,12.9c-0.9,1.5-0.4,3.5,1.2,4.4
		c0,0,0,0,0,0l19.3,11.1c1.6,0.9,3.5,0.4,4.4-1.2l7.4-12.9c5.2,1.9,10.5,3.3,16,4.2v14.9c0,1.8,1.5,3.2,3.2,3.2h11.2
		c1.8,0,3.2-1.5,3.2-3.2S451.9,291.8,450.1,291.8L450.1,291.8z"/>
	<path style="fill:#FFFFFF;" d="M440.2,148.1c1.8-0.4,2.9-2.1,2.5-3.8c-0.4-1.8-2.1-2.9-3.8-2.5l0,0c-29.1,6.2-47.7,34.8-41.5,63.9
		c4.4,21,20.9,37.3,41.8,41.6c0.2,0,0.4,0.1,0.7,0.1c1.8,0,3.2-1.4,3.2-3.2c0-1.5-1.1-2.9-2.6-3.2c-25.6-5.3-42.1-30.4-36.9-56
		C407.5,166.5,421.8,152,440.2,148.1L440.2,148.1z M524.6,165.6h-37.4c-1.8,0-3.2,1.5-3.2,3.2c0,1.8,1.5,3.2,3.2,3.2h37.3
		c1.8,5.1,7.4,7.9,12.6,6.1c5.1-1.8,7.9-7.4,6.1-12.6s-7.4-7.9-12.6-6.1C527.8,160.5,525.5,162.8,524.6,165.6L524.6,165.6z
		 M537.2,168.9c0,1.9-1.5,3.4-3.4,3.4s-3.4-1.5-3.4-3.4s1.5-3.4,3.4-3.4l0,0C535.7,165.5,537.2,167,537.2,168.9L537.2,168.9z"/>
	<path style="fill:#FFFFFF;" d="M510.1,183.5c0-5.4-4.4-9.9-9.8-9.9c-4.2,0-8,2.6-9.3,6.6h-13.5L457.3,160c-1.3-1.3-3.3-1.3-4.6,0
		s-1.3,3.3,0,4.6l21.2,21.2c0.6,0.6,1.4,0.9,2.3,0.9H491c1.8,5.1,7.4,7.9,12.5,6.1C507.5,191.4,510.1,187.7,510.1,183.5L510.1,183.5
		z M500.3,186.9c-1.9,0-3.4-1.5-3.4-3.4c0-1.9,1.5-3.4,3.4-3.4c1.9,0,3.4,1.5,3.4,3.4c0,0,0,0,0,0
		C503.6,185.3,502.1,186.8,500.3,186.9L500.3,186.9z M543.9,197.1c-5.4,0-9.8,4.3-9.9,9.8c0,1.2,0.2,2.5,0.7,3.6l-11.8,11.8
		l-6.3-6.3c-0.6-0.6-1.4-1-2.3-1h-19.9c-1.8,0-3.2,1.5-3.2,3.2c0,1.8,1.5,3.2,3.2,3.2H513l7.6,7.7c1.3,1.3,3.3,1.3,4.6,0l13.7-13.7
		c4.7,2.7,10.7,1.2,13.5-3.5s1.2-10.7-3.5-13.5C547.4,197.6,545.6,197.1,543.9,197.1z M543.9,210.4c-1.9,0-3.4-1.5-3.4-3.4
		c0-1.9,1.5-3.4,3.4-3.4s3.4,1.5,3.4,3.4v0C547.2,208.9,545.7,210.4,543.9,210.4L543.9,210.4z M479.7,208.4c-5.5,0-9.9,4.4-9.9,9.9
		c0,1.2,0.2,2.3,0.6,3.4l-5.6,5.6h-9.7c-1.8,0-3.2,1.5-3.2,3.2c0,1.8,1.5,3.2,3.2,3.2h11c0.9,0,1.7-0.3,2.3-1l6.1-6.1
		c1.5,0.9,3.3,1.4,5.1,1.4c5.4,0,9.9-4.4,9.9-9.9S485.1,208.4,479.7,208.4L479.7,208.4L479.7,208.4z M479.7,221.7
		c-1.9,0-3.4-1.5-3.4-3.4c0-1.9,1.5-3.4,3.4-3.4c1.9,0,3.4,1.5,3.4,3.4C483,220.2,481.5,221.7,479.7,221.7z M521.4,249.9
		c-4.4,0-8.2,2.9-9.4,7.1h-7.5l-4.8-4.8c-0.6-0.6-1.4-1-2.3-1h-11.6c-1.8,0-3.2,1.5-3.2,3.2c0,1.8,1.5,3.2,3.2,3.2h10.3l4.8,4.8
		c0.6,0.6,1.4,1,2.3,1h9.2c2.1,5,7.8,7.4,12.9,5.4c5-2.1,7.4-7.8,5.4-12.9C529,252.3,525.4,249.9,521.4,249.9L521.4,249.9z
		 M521.4,263.2c-1.9,0-3.4-1.5-3.4-3.4s1.5-3.4,3.4-3.4s3.4,1.5,3.4,3.4v0C524.8,261.7,523.3,263.2,521.4,263.2z M509.5,275.3h-10.9
		l-11.2-11.2c-0.6-0.6-1.4-1-2.3-1H471c-1.8-5.1-7.4-7.9-12.6-6.1c-5.1,1.8-7.9,7.4-6.1,12.6c1.8,5.1,7.4,7.9,12.6,6.1
		c2.8-1,5.1-3.2,6.1-6.1h12.8l11.2,11.2c0.6,0.6,1.4,1,2.3,1h12.3c1.8,0,3.2-1.5,3.2-3.2C512.8,276.8,511.3,275.3,509.5,275.3
		L509.5,275.3z M461.7,269.8c-1.9,0-3.4-1.5-3.4-3.4c0-1.9,1.5-3.4,3.4-3.4c1.9,0,3.4,1.5,3.4,3.4l0,0
		C465.1,268.3,463.6,269.8,461.7,269.8z"/>
	<path style="fill:#FFFFFF;" d="M497.2,212.1c1.8,0,3.2-1.5,3.2-3.2c0-0.9-0.3-1.7-0.9-2.3l-12.1-12.1c-0.6-0.6-1.4-1-2.3-1H471
		c-1.8-5.1-7.4-7.9-12.6-6.1c-5.1,1.8-7.9,7.4-6.1,12.6s7.4,7.9,12.6,6.1c2.8-1,5.1-3.2,6.1-6.1h12.8l11.2,11.2
		C495.6,211.8,496.4,212.1,497.2,212.1z M461.7,200.1c-1.9,0-3.4-1.5-3.4-3.4c0-1.9,1.5-3.4,3.4-3.4c1.9,0,3.4,1.5,3.4,3.4
		C465.1,198.6,463.6,200.1,461.7,200.1z M477.1,235l-7.4,8h-14.6c-1.8,0-3.2,1.5-3.2,3.2s1.5,3.2,3.2,3.2h16.1
		c0.9,0,1.8-0.4,2.4-1.1l7.4-8h14.3c1.8,5.1,7.4,7.9,12.6,6.1c5.1-1.8,7.9-7.4,6.1-12.6c-1.8-5.1-7.4-7.9-12.6-6.1
		c-2.8,1-5.1,3.2-6.1,6.1h-15.7C478.6,233.9,477.7,234.3,477.1,235z M504.5,233.8c1.9,0,3.4,1.5,3.4,3.4c0,1.9-1.5,3.4-3.4,3.4
		c-1.9,0-3.4-1.5-3.4-3.4C501.1,235.3,502.6,233.8,504.5,233.8z M471.9,149.8l-8.6-8.6c-0.6-0.6-1.4-0.9-2.3-0.9h-5.9
		c-1.8,0-3.2,1.5-3.2,3.2c0,1.8,1.5,3.2,3.2,3.2h4.6l7,7c-1,1.6-1.6,3.4-1.6,5.3c0,5.5,4.4,9.9,9.9,9.9c5.5,0,9.9-4.4,9.9-9.9
		s-4.4-9.9-9.9-9.9c0,0,0,0,0,0C473.9,149.2,472.9,149.4,471.9,149.8z M478.4,159.1c0,1.9-1.5,3.4-3.4,3.4c-1.9,0-3.4-1.5-3.4-3.4
		c0-1.9,1.5-3.4,3.4-3.4l0,0C476.9,155.7,478.4,157.2,478.4,159.1L478.4,159.1z M483.5,276h-7.4c-0.8,0-1.6,0.3-2.2,0.9l-15.9,15
		c-1.3,1.2-1.3,3.3-0.1,4.6c1.2,1.3,3.3,1.3,4.6,0.1l14.9-14.1h6.1c1.8,0,3.2-1.5,3.2-3.2S485.3,276,483.5,276L483.5,276L483.5,276z
		 M460.8,121.7c4,0,7.5-2.4,9.1-6.1h10.4c0.9,0,1.7-0.3,2.3-1l5.2-5.2c1.3-1.2,1.3-3.3,0.1-4.6c-1.2-1.3-3.3-1.3-4.6-0.1
		c0,0-0.1,0.1-0.1,0.1l-4.2,4.2h-8.7c-1.5-5.2-6.9-8.3-12.2-6.8c-5.2,1.5-8.3,6.9-6.8,12.2C452.6,118.7,456.4,121.7,460.8,121.7
		L460.8,121.7z M460.8,108.4c1.9,0,3.4,1.5,3.4,3.4c0,1.9-1.5,3.4-3.4,3.4c-1.9,0-3.4-1.5-3.4-3.4c0,0,0,0,0,0
		C457.5,109.9,459,108.4,460.8,108.4z M509.5,163.5c5.4,0,9.9-4.4,9.9-9.9s-4.4-9.9-9.9-9.9l0,0c-1.5,0-2.9,0.4-4.3,1l-8.1-8.1
		c-0.6-0.6-1.4-1-2.3-1h-14.3c-1.8,0-3.2,1.5-3.2,3.2s1.5,3.2,3.2,3.2l0,0h13l7.2,7.2c-0.7,1.3-1,2.8-1,4.3
		C499.7,159.1,504.1,163.5,509.5,163.5z M512.9,153.7c0,1.9-1.5,3.4-3.4,3.4c-1.9,0-3.4-1.5-3.4-3.4s1.5-3.4,3.4-3.4l0,0
		C511.4,150.3,512.9,151.8,512.9,153.7L512.9,153.7z M479.5,120.5c-0.8,0-1.6,0.3-2.2,0.9l-7.7,7.4h-14.5c-1.8,0-3.2,1.5-3.2,3.2
		c0,1.8,1.5,3.2,3.2,3.2h15.8c0.8,0,1.7-0.3,2.3-0.9l7.6-7.5h16.8c1.8,5.1,7.4,7.9,12.6,6.1c5.1-1.8,7.9-7.4,6.1-12.6
		c-1.8-5.1-7.4-7.9-12.6-6.1c-2.8,1-5.1,3.2-6.1,6.1H479.5z M506.9,120.3c1.9,0,3.4,1.5,3.4,3.4c0,1.9-1.5,3.4-3.4,3.4
		c-1.9,0-3.4-1.5-3.4-3.4v0C503.5,121.8,505,120.3,506.9,120.3z M508.3,203.6c0.9,0,1.7-0.3,2.3-1l10.8-10.8h19
		c1.8,0,3.2-1.5,3.2-3.2c0-1.8-1.5-3.2-3.2-3.2h-20.4c-0.9,0-1.7,0.3-2.3,1L506,198.1c-1.3,1.3-1.3,3.3,0,4.6
		C506.6,203.3,507.4,203.6,508.3,203.6z M513.8,139c0,1.8,1.5,3.2,3.2,3.2h4.7l8.5,8.5c1.3,1.2,3.4,1.1,4.6-0.2
		c1.2-1.2,1.2-3.2,0-4.4l-9.4-9.4c-0.6-0.6-1.4-1-2.3-1h-6.1C515.3,135.7,513.8,137.2,513.8,139C513.8,139,513.8,139,513.8,139z
		 M540.3,224.6l-9.6,9.6h-6.3c-1.8,0-3.2,1.5-3.2,3.2s1.5,3.2,3.2,3.2h7.6c0.9,0,1.7-0.3,2.3-1l10.6-10.6c1.3-1.3,1.3-3.3,0-4.6
		S541.6,223.3,540.3,224.6L540.3,224.6z"/>
</g>
<g>
	<path style="fill:#FFFFFF;" d="M334.7,402.5h-17l-3.2,9.7h-10.3l17.5-46.9h9l17.6,46.9H338L334.7,402.5z M320.4,394.7h11.7
		l-5.9-17.6L320.4,394.7z"/>
	<path style="fill:#FFFFFF;" d="M366.5,405.3c1.7,0,3.1-0.5,4.2-1.4s1.6-2.2,1.7-3.8h8.7c0,2.4-0.7,4.5-1.9,6.5s-3,3.5-5.2,4.6
		c-2.2,1.1-4.6,1.6-7.3,1.6c-5,0-8.9-1.6-11.8-4.8c-2.9-3.2-4.3-7.5-4.3-13.1v-0.6c0-5.4,1.4-9.7,4.3-12.9c2.9-3.2,6.8-4.8,11.8-4.8
		c4.4,0,7.9,1.2,10.5,3.7c2.6,2.5,4,5.8,4,9.9h-8.7c0-1.8-0.6-3.3-1.7-4.4c-1.1-1.1-2.5-1.7-4.3-1.7c-2.2,0-3.8,0.8-4.9,2.4
		c-1.1,1.6-1.7,4.1-1.7,7.7v1c0,3.6,0.5,6.2,1.6,7.7C362.7,404.6,364.3,405.3,366.5,405.3z"/>
	<path style="fill:#FFFFFF;" d="M401,405.3c1.7,0,3.1-0.5,4.2-1.4s1.6-2.2,1.7-3.8h8.7c0,2.4-0.7,4.5-1.9,6.5s-3,3.5-5.2,4.6
		c-2.2,1.1-4.6,1.6-7.3,1.6c-5,0-8.9-1.6-11.8-4.8c-2.9-3.2-4.3-7.5-4.3-13.1v-0.6c0-5.4,1.4-9.7,4.3-12.9s6.8-4.8,11.8-4.8
		c4.4,0,7.9,1.2,10.5,3.7c2.6,2.5,4,5.8,4,9.9h-8.7c0-1.8-0.6-3.3-1.7-4.4c-1.1-1.1-2.5-1.7-4.3-1.7c-2.2,0-3.8,0.8-4.9,2.4
		s-1.7,4.1-1.7,7.7v1c0,3.6,0.5,6.2,1.6,7.7C397.1,404.6,398.7,405.3,401,405.3z"/>
	<path style="fill:#FFFFFF;" d="M436.9,412.9c-5.1,0-9.3-1.6-12.5-4.7c-3.2-3.1-4.8-7.3-4.8-12.5v-0.9c0-3.5,0.7-6.6,2-9.4
		c1.4-2.8,3.3-4.9,5.8-6.4c2.5-1.5,5.3-2.2,8.5-2.2c4.8,0,8.5,1.5,11.3,4.5c2.7,3,4.1,7.3,4.1,12.8v3.8h-22.2
		c0.3,2.3,1.2,4.1,2.7,5.5c1.5,1.4,3.4,2.1,5.8,2.1c3.6,0,6.4-1.3,8.4-3.9l4.6,5.1c-1.4,2-3.3,3.5-5.7,4.6S439.8,412.9,436.9,412.9z
		 M435.9,384.2c-1.8,0-3.3,0.6-4.5,1.9c-1.1,1.3-1.9,3-2.2,5.4h13v-0.7c0-2.1-0.6-3.7-1.7-4.8S437.8,384.2,435.9,384.2z"/>
	<path style="fill:#FFFFFF;" d="M475.4,402.6c0-1.1-0.6-2-1.7-2.7c-1.1-0.7-2.9-1.2-5.4-1.8c-8.3-1.7-12.4-5.3-12.4-10.6
		c0-3.1,1.3-5.7,3.9-7.8c2.6-2.1,5.9-3.1,10.1-3.1c4.4,0,8,1,10.6,3.1c2.7,2.1,4,4.8,4,8.1h-9.3c0-1.3-0.4-2.4-1.3-3.3
		s-2.2-1.3-4-1.3c-1.6,0-2.8,0.4-3.6,1.1s-1.3,1.6-1.3,2.7c0,1,0.5,1.9,1.5,2.5c1,0.6,2.6,1.2,4.9,1.6c2.3,0.5,4.3,1,5.9,1.6
		c4.9,1.8,7.4,4.9,7.4,9.4c0,3.2-1.4,5.8-4.1,7.7s-6.3,2.9-10.6,2.9c-2.9,0-5.5-0.5-7.8-1.6c-2.3-1-4-2.5-5.3-4.3
		c-1.3-1.8-1.9-3.8-1.9-5.9h8.8c0.1,1.7,0.7,2.9,1.8,3.8s2.7,1.3,4.6,1.3c1.8,0,3.1-0.3,4-1S475.4,403.7,475.4,402.6z"/>
	<path style="fill:#FFFFFF;" d="M509.4,402.6c0-1.1-0.6-2-1.7-2.7c-1.1-0.7-2.9-1.2-5.4-1.8c-8.3-1.7-12.4-5.3-12.4-10.6
		c0-3.1,1.3-5.7,3.9-7.8c2.6-2.1,5.9-3.1,10.1-3.1c4.4,0,8,1,10.6,3.1c2.7,2.1,4,4.8,4,8.1H509c0-1.3-0.4-2.4-1.3-3.3
		s-2.2-1.3-4-1.3c-1.6,0-2.8,0.4-3.6,1.1s-1.3,1.6-1.3,2.7c0,1,0.5,1.9,1.5,2.5c1,0.6,2.6,1.2,4.9,1.6c2.3,0.5,4.3,1,5.9,1.6
		c4.9,1.8,7.4,4.9,7.4,9.4c0,3.2-1.4,5.8-4.1,7.7s-6.3,2.9-10.6,2.9c-2.9,0-5.5-0.5-7.8-1.6c-2.3-1-4-2.5-5.3-4.3
		c-1.3-1.8-1.9-3.8-1.9-5.9h8.8c0.1,1.7,0.7,2.9,1.8,3.8s2.7,1.3,4.6,1.3c1.8,0,3.1-0.3,4-1S509.4,403.7,509.4,402.6z"/>
	<path style="fill:#FFFFFF;" d="M552,368.8v8.6h6v6.8h-6v17.4c0,1.3,0.2,2.2,0.7,2.8s1.4,0.8,2.8,0.8c1,0,1.9-0.1,2.7-0.2v7.1
		c-1.8,0.6-3.7,0.8-5.6,0.8c-6.5,0-9.9-3.3-10-9.9v-18.8h-5.1v-6.8h5.1v-8.6H552z"/>
	<path style="fill:#FFFFFF;" d="M560.7,394.5c0-3.5,0.7-6.5,2-9.2s3.2-4.8,5.8-6.3s5.4-2.2,8.7-2.2c4.7,0,8.5,1.4,11.5,4.3
		s4.6,6.8,5,11.7l0.1,2.4c0,5.3-1.5,9.6-4.5,12.9c-3,3.2-7,4.9-12,4.9s-9-1.6-12-4.8c-3-3.2-4.5-7.6-4.5-13.1V394.5z M570.1,395.1
		c0,3.3,0.6,5.8,1.9,7.6c1.2,1.8,3,2.6,5.3,2.6c2.3,0,4-0.9,5.3-2.6s1.9-4.5,1.9-8.3c0-3.2-0.6-5.8-1.9-7.6s-3.1-2.7-5.3-2.7
		c-2.3,0-4,0.9-5.3,2.7C570.7,388.6,570.1,391.4,570.1,395.1z"/>
	<path style="fill:#FFFFFF;" d="M254.7,452.3h-14.4v39.1h-9.7v-39.1h-14.2v-7.8h38.2V452.3z"/>
	<path style="fill:#FFFFFF;" d="M272.8,492.1c-5.1,0-9.3-1.6-12.5-4.7c-3.2-3.1-4.8-7.3-4.8-12.5v-0.9c0-3.5,0.7-6.6,2-9.4
		c1.4-2.8,3.3-4.9,5.8-6.4c2.5-1.5,5.3-2.2,8.5-2.2c4.8,0,8.5,1.5,11.3,4.5s4.1,7.3,4.1,12.8v3.8h-22.2c0.3,2.3,1.2,4.1,2.7,5.5
		s3.4,2.1,5.8,2.1c3.6,0,6.4-1.3,8.4-3.9l4.6,5.1c-1.4,2-3.3,3.5-5.7,4.6S275.7,492.1,272.8,492.1z M271.7,463.4
		c-1.8,0-3.3,0.6-4.5,1.9c-1.1,1.3-1.9,3-2.2,5.4h13v-0.7c0-2.1-0.6-3.7-1.7-4.8S273.7,463.4,271.7,463.4z"/>
	<path style="fill:#FFFFFF;" d="M306.9,484.5c1.7,0,3.1-0.5,4.2-1.4s1.6-2.2,1.7-3.8h8.7c0,2.4-0.7,4.5-1.9,6.5s-3,3.5-5.2,4.6
		c-2.2,1.1-4.6,1.6-7.3,1.6c-5,0-8.9-1.6-11.8-4.8c-2.9-3.2-4.3-7.5-4.3-13.1v-0.6c0-5.4,1.4-9.7,4.3-12.9s6.8-4.8,11.8-4.8
		c4.4,0,7.9,1.2,10.5,3.7c2.6,2.5,4,5.8,4,9.9h-8.7c0-1.8-0.6-3.3-1.7-4.4c-1.1-1.1-2.5-1.7-4.3-1.7c-2.2,0-3.8,0.8-4.9,2.4
		c-1.1,1.6-1.7,4.1-1.7,7.7v1c0,3.6,0.5,6.2,1.6,7.7C303,483.8,304.7,484.5,306.9,484.5z"/>
	<path style="fill:#FFFFFF;" d="M335.9,460.3c2.5-3,5.6-4.4,9.3-4.4c7.6,0,11.4,4.4,11.5,13.2v22.3h-9.3v-22.1c0-2-0.4-3.5-1.3-4.4
		c-0.9-1-2.3-1.4-4.3-1.4c-2.7,0-4.7,1.1-5.9,3.2v24.8h-9.3v-49.5h9.3V460.3z"/>
	<path style="fill:#FFFFFF;" d="M372.3,456.5l0.3,4c2.5-3.1,5.8-4.7,10-4.7c3.7,0,6.4,1.1,8.2,3.3s2.7,5.4,2.8,9.7v22.5h-9.3v-22.3
		c0-2-0.4-3.4-1.3-4.3c-0.9-0.9-2.3-1.3-4.3-1.3c-2.6,0-4.6,1.1-5.9,3.4v24.6h-9.3v-34.9H372.3z"/>
	<path style="fill:#FFFFFF;" d="M399.3,473.7c0-3.5,0.7-6.5,2-9.2s3.2-4.8,5.8-6.3s5.4-2.2,8.7-2.2c4.7,0,8.5,1.4,11.5,4.3
		s4.6,6.8,5,11.7l0.1,2.4c0,5.3-1.5,9.6-4.5,12.9c-3,3.2-7,4.9-12,4.9s-9-1.6-12-4.8c-3-3.2-4.5-7.6-4.5-13.1V473.7z M408.6,474.3
		c0,3.3,0.6,5.8,1.9,7.6c1.2,1.8,3,2.6,5.3,2.6c2.3,0,4-0.9,5.3-2.6s1.9-4.5,1.9-8.3c0-3.2-0.6-5.8-1.9-7.6s-3.1-2.7-5.3-2.7
		c-2.3,0-4,0.9-5.3,2.7C409.2,467.8,408.6,470.6,408.6,474.3z"/>
	<path style="fill:#FFFFFF;" d="M447.9,491.4h-9.3v-49.5h9.3V491.4z"/>
	<path style="fill:#FFFFFF;" d="M454.1,473.7c0-3.5,0.7-6.5,2-9.2s3.2-4.8,5.8-6.3s5.4-2.2,8.7-2.2c4.7,0,8.5,1.4,11.5,4.3
		s4.6,6.8,5,11.7l0.1,2.4c0,5.3-1.5,9.6-4.5,12.9c-3,3.2-7,4.9-12,4.9s-9-1.6-12-4.8c-3-3.2-4.5-7.6-4.5-13.1V473.7z M463.4,474.3
		c0,3.3,0.6,5.8,1.9,7.6c1.2,1.8,3,2.6,5.3,2.6c2.3,0,4-0.9,5.3-2.6s1.9-4.5,1.9-8.3c0-3.2-0.6-5.8-1.9-7.6s-3.1-2.7-5.3-2.7
		c-2.3,0-4,0.9-5.3,2.7C464,467.8,463.4,470.6,463.4,474.3z"/>
	<path style="fill:#FFFFFF;" d="M491.5,473.7c0-5.3,1.3-9.7,3.8-12.9c2.5-3.3,6-4.9,10.3-4.9c3.8,0,6.8,1.3,8.9,3.9l0.4-3.3h8.4
		v33.7c0,3-0.7,5.7-2.1,8c-1.4,2.3-3.3,4-5.8,5.2c-2.5,1.2-5.5,1.8-8.8,1.8c-2.6,0-5-0.5-7.5-1.5s-4.3-2.3-5.5-3.9l4.1-5.7
		c2.3,2.6,5.1,3.9,8.4,3.9c2.5,0,4.4-0.7,5.8-2s2.1-3.2,2.1-5.6v-1.9c-2.1,2.4-5,3.6-8.5,3.6c-4.2,0-7.6-1.6-10.2-4.9
		c-2.6-3.3-3.9-7.6-3.9-13V473.7z M500.8,474.4c0,3.2,0.6,5.6,1.9,7.4s3,2.7,5.2,2.7c2.8,0,4.9-1.1,6.1-3.2v-14.7
		c-1.2-2.1-3.3-3.2-6-3.2c-2.2,0-4,0.9-5.3,2.7C501.5,468,500.8,470.8,500.8,474.4z"/>
	<path style="fill:#FFFFFF;" d="M543.6,478.2l6.4-21.7h10l-14,40.3l-0.8,1.8c-2.1,4.6-5.5,6.8-10.3,6.8c-1.4,0-2.7-0.2-4.1-0.6v-7.1
		l1.4,0c1.8,0,3.1-0.3,3.9-0.8c0.9-0.5,1.6-1.4,2-2.7l1.1-2.9l-12.2-35h10L543.6,478.2z"/>
	<path style="fill:#FFFFFF;" d="M590.4,483.6h20.5v7.8h-30.2v-46.9h9.7V483.6z"/>
	<path style="fill:#FFFFFF;" d="M636,491.4c-0.4-0.8-0.7-1.9-0.9-3.1c-2.3,2.5-5.2,3.8-8.8,3.8c-3.4,0-6.2-1-8.5-3s-3.4-4.5-3.4-7.5
		c0-3.7,1.4-6.5,4.1-8.5c2.7-2,6.7-3,11.9-3h4.3v-2c0-1.6-0.4-2.9-1.2-3.9s-2.1-1.5-3.9-1.5c-1.6,0-2.8,0.4-3.7,1.1
		s-1.3,1.8-1.3,3.1h-9.3c0-2,0.6-3.9,1.9-5.6s3-3.1,5.3-4c2.3-1,4.8-1.5,7.7-1.5c4.3,0,7.7,1.1,10.2,3.2c2.5,2.2,3.8,5.2,3.8,9.1
		v15.1c0,3.3,0.5,5.8,1.4,7.5v0.5H636z M628.3,484.9c1.4,0,2.6-0.3,3.8-0.9s2-1.4,2.6-2.5v-6h-3.5c-4.7,0-7.1,1.6-7.4,4.8l0,0.5
		c0,1.2,0.4,2.1,1.2,2.9S626.9,484.9,628.3,484.9z"/>
	<path style="fill:#FFFFFF;" d="M682.6,474.3c0,5.6-1.2,9.9-3.6,13.1s-5.7,4.7-10,4.7c-3.8,0-6.8-1.5-9.1-4.4l-0.4,3.7h-8.4v-49.5
		h9.3v17.8c2.1-2.5,5-3.8,8.5-3.8c4.3,0,7.6,1.6,10,4.7c2.4,3.1,3.6,7.5,3.6,13.2V474.3z M673.3,473.6c0-3.5-0.6-6.1-1.7-7.7
		c-1.1-1.6-2.8-2.4-5-2.4c-3,0-5,1.2-6.1,3.6v13.8c1.1,2.4,3.2,3.7,6.2,3.7c3,0,5-1.5,5.9-4.4C673.1,478.7,673.3,476.5,673.3,473.6z
		"/>
</g>
<rect id="_x3C_Slice_x3E__13_" style="fill:none;" width="899.8" height="600"/>
<rect id="_x3C_Slice_x3E__14_" x="899.8" style="fill:none;" width="900" height="600"/>
</svg>
